<?xml version="1.0" encoding="UTF-8"?>
<svg width="44px" height="44px" viewBox="0 0 44 44" version="1.1" xmlns="http://www.w3.org/2000/svg" xmlns:xlink="http://www.w3.org/1999/xlink">
    <title>btn_trash_can</title>
    <g id="btn_trash_can" stroke="none" stroke-width="1" fill="none" fill-rule="evenodd">
        <path d="M22,0 C9.9,0 0,9.9 0,22 C0,34.1 9.9,44 22,44 C34.1,44 44,34.1 44,22 C44,9.9 34.1,0 22,0 Z" id="Path" fill="#F2F2F2"></path>
        <path d="M33.5555751,12.7692578 L27.7777582,12.7692578 C27.7778169,9.58287109 25.1910553,7 22,7 C18.8089447,7 16.2221831,9.58287109 16.2221831,12.7692578 L10.4444249,12.7692578 C9.64648503,12.7692578 9,13.4148437 9,14.211543 C9,15.0082422 9.64654371,15.6538281 10.4444249,15.6538281 L11.0221948,15.6538281 L11.0221948,33.25 C11.025657,35.32 12.7046872,36.996543 14.7777582,37 L29.2222418,37 C31.2953128,36.996543 32.974343,35.32 32.9778052,33.25 L32.9778052,15.6538281 L33.5555751,15.6538281 C34.353515,15.6538281 35,15.0082422 35,14.211543 C35,13.4148438 34.353515,12.7692578 33.5555751,12.7692578 Z M22,9.88462891 C23.5952342,9.88462891 24.8889084,11.1763867 24.8889084,12.7692578 L19.1110916,12.7692578 C19.1110916,11.1763281 20.4047658,9.88462891 22,9.88462891 Z M30.0888967,33.25 C30.0888967,33.7277148 29.7006067,34.1153711 29.2222418,34.1153711 L14.7777582,34.1153711 C14.2993347,34.1153711 13.9111033,33.7276563 13.9111033,33.25 L13.9111033,15.6538281 L30.0888967,15.6538281 L30.0888967,33.25 Z" id="Shape" fill="#FF485A" fill-rule="nonzero"></path>
        <path d="M18.4062321,20 C19.1830162,20 19.8124643,20.6714108 19.8124643,21.4999797 L19.8124643,27.5000203 C19.8125214,28.3285892 19.1830733,29 18.4062321,29 C17.629391,29 17,28.3285892 17,27.5000203 L17,21.4999797 C17,20.6713498 17.6294481,20 18.4062321,20 Z M24.5937679,20 C25.370609,20 26,20.6714108 26,21.4999797 L26,27.5000203 C26,28.3285892 25.3705519,29 24.5937679,29 C23.8169267,29 23.1875357,28.3285892 23.1875357,27.5000203 L23.1875357,21.4999797 C23.1875357,20.6713498 23.8169838,20 24.5937679,20 Z" id="Combined-Shape" fill="#FFBBC0" fill-rule="nonzero"></path>
    </g>
</svg>