<?xml version="1.0" encoding="UTF-8"?>
<svg width="44px" height="44px" viewBox="0 0 44 44" version="1.1" xmlns="http://www.w3.org/2000/svg" xmlns:xlink="http://www.w3.org/1999/xlink" style="background: #D1D1D1;">
    <title>img_bank_connect</title>
    <defs>
        <filter id="filter-1">
            <feColorMatrix in="SourceGraphic" type="matrix" values="0 0 0 0 0.290196 0 0 0 0 0.290196 0 0 0 0 0.290196 0 0 0 1.000000 0"></feColorMatrix>
        </filter>
    </defs>
    <g id="img_bank_connect" stroke="none" stroke-width="1" fill="none" fill-rule="evenodd">
        <rect fill="#D1D1D1" x="0" y="0" width="44" height="44"></rect>
        <g filter="url(#filter-1)" id="Bank">
            <g transform="translate(2.666667, 2.000000)">
                <path d="M18.8362407,0.134400005 C19.1049211,-0.0448755018 19.4550805,-0.0448755018 19.7237608,0.134400005 L19.7237608,0.134400005 L27.4037611,5.25440021 C27.6263082,5.40276489 27.7599876,5.6525319 27.7600011,5.92000024 L27.7600011,5.92000024 L27.7600011,7.12000028 C27.7600011,7.5618281 27.4018289,7.92000031 26.9600011,7.92000031 L26.9600011,7.92000031 L26.4800011,7.92000031 L26.4800011,15.3600006 L26.9600011,15.3600006 C27.4018289,15.3600006 27.7600011,15.7181728 27.7600011,16.1600006 C27.7600011,16.6018285 27.4018289,16.9600007 26.9600011,16.9600007 L26.9600011,16.9600007 L20.1527208,16.9600007 L20.1094408,18.8219207 C20.0828274,19.9684157 19.1332762,20.8770633 17.9867207,20.8532008 L17.9867207,20.8532008 L16.7300007,20.8269608 C16.600973,20.8242722 16.4762983,20.873654 16.3841063,20.9639645 C16.2919143,21.0542751 16.2399726,21.1779052 16.2400006,21.3069608 L16.2400006,21.3069608 L16.2400006,21.9200009 C16.2402652,22.1849879 16.4550136,22.3997363 16.7200007,22.4000009 L16.7200007,22.4000009 L18.0000007,22.4000009 C19.148223,22.4012795 20.0787222,23.3317787 20.0800008,24.480001 L20.0800008,24.480001 L20.0800008,25.600001 L33.3600013,25.600001 C34.5082236,25.6012796 35.4387228,26.5317788 35.4400014,27.6800011 L35.4400014,27.6800011 L35.4400014,37.9200015 C35.4387228,39.0682238 34.5082236,39.998723 33.3600013,40.0000016 L33.3600013,40.0000016 L5.20000021,40.0000016 C4.0517779,39.998723 3.1212787,39.0682238 3.12000012,37.9200015 L3.12000012,37.9200015 L3.12000012,27.6800011 C3.1212787,26.5317788 4.0517779,25.6012796 5.20000021,25.600001 L5.20000021,25.600001 L18.4800007,25.600001 L18.4800007,24.480001 C18.4797361,24.215014 18.2649877,24.0002655 18.0000007,24.000001 L18.0000007,24.000001 L16.7200007,24.000001 C15.5717784,23.9987224 14.6412792,23.0682232 14.6400006,21.9200009 L14.6400006,21.9200009 L14.6400006,21.3069608 C14.6399866,20.7477845 14.8651182,20.2121533 15.2646107,19.8208939 C15.6641033,19.4296344 16.2043058,19.2157041 16.7633607,19.2273608 L16.7633607,19.2273608 L18.0200807,19.2536008 C18.2846492,19.2590973 18.5037591,19.0494346 18.5099207,18.7848807 L18.5099207,18.7848807 L18.5524007,16.9600007 L11.6000005,16.9600007 C11.1581726,16.9600007 10.8000004,16.6018285 10.8000004,16.1600006 C10.8000004,15.7181728 11.1581726,15.3600006 11.6000005,15.3600006 L11.6000005,15.3600006 L12.0800005,15.3600006 L12.0800005,7.92000031 L11.6000005,7.92000031 C11.1581726,7.92000031 10.8000004,7.5618281 10.8000004,7.12000028 L10.8000004,7.12000028 L10.8000004,5.92000024 C10.8000139,5.6525319 10.9336933,5.40276489 11.1562404,5.25440021 L11.1562404,5.25440021 Z M33.3600013,27.2000011 L5.20000021,27.2000011 C4.93501319,27.2002657 4.72000019,27.4150141 4.72000019,27.6800011 L4.72000019,27.6800011 L4.72000019,37.9200015 C4.72000019,38.1849885 4.93501319,38.3997369 5.20000021,38.4000015 L5.20000021,38.4000015 L33.3600013,38.4000015 C33.6249883,38.3997369 33.8400013,38.1849885 33.8400013,37.9200015 L33.8400013,37.9200015 L33.8400013,27.6800011 C33.8400013,27.4150141 33.6249883,27.2002657 33.3600013,27.2000011 L33.3600013,27.2000011 Z M22.4800009,35.2000014 C22.9218287,35.2000014 23.2800006,35.5581736 23.2800006,36.0000014 C23.2800006,36.4418292 22.9218287,36.8000015 22.4800009,36.8000015 L22.4800009,36.8000015 L16.0800006,36.8000015 C15.6381728,36.8000015 15.2800006,36.4418292 15.2800006,36.0000014 C15.2800006,35.5581736 15.6381728,35.2000014 16.0800006,35.2000014 L16.0800006,35.2000014 Z M26.9600011,35.2000014 C27.4018289,35.2000014 27.7600011,35.5581736 27.7600011,36.0000014 C27.7600011,36.4418292 27.4018289,36.8000015 26.9600011,36.8000015 L26.9600011,36.8000015 L25.680001,36.8000015 C25.2381732,36.8000015 24.880001,36.4418292 24.880001,36.0000014 C24.880001,35.5581736 25.2381732,35.2000014 25.680001,35.2000014 L25.680001,35.2000014 Z M31.4400012,35.2000014 C31.8818291,35.2000014 32.2400013,35.5581736 32.2400013,36.0000014 C32.2400013,36.4418292 31.8818291,36.8000015 31.4400012,36.8000015 L31.4400012,36.8000015 L30.1600012,36.8000015 C29.7181734,36.8000015 29.3600012,36.4418292 29.3600012,36.0000014 C29.3600012,35.5581736 29.7181734,35.2000014 30.1600012,35.2000014 L30.1600012,35.2000014 Z M8.40000033,35.2000014 C8.84182815,35.2000014 9.20000037,35.5581736 9.20000037,36.0000014 C9.20000037,36.4418292 8.84182815,36.8000015 8.40000033,36.8000015 L8.40000033,36.8000015 L7.12000028,36.8000015 C6.67817247,36.8000015 6.32000025,36.4418292 6.32000025,36.0000014 C6.32000025,35.5581736 6.67817247,35.2000014 7.12000028,35.2000014 L7.12000028,35.2000014 Z M12.8800005,35.2000014 C13.3218283,35.2000014 13.6800005,35.5581736 13.6800005,36.0000014 C13.6800005,36.4418292 13.3218283,36.8000015 12.8800005,36.8000015 L12.8800005,36.8000015 L11.6000005,36.8000015 C11.1581726,36.8000015 10.8000004,36.4418292 10.8000004,36.0000014 C10.8000004,35.5581736 11.1581726,35.2000014 11.6000005,35.2000014 L11.6000005,35.2000014 Z M22.4800009,32.0000013 C22.9218287,32.0000013 23.2800009,32.3581735 23.2800009,32.8000013 C23.2800009,33.2418291 22.9218287,33.6000013 22.4800009,33.6000013 L22.4800009,33.6000013 L21.2000008,33.6000013 C20.758173,33.6000013 20.4000008,33.2418291 20.4000008,32.8000013 C20.4000008,32.3581735 20.758173,32.0000013 21.2000008,32.0000013 L21.2000008,32.0000013 Z M26.9600011,32.0000013 C27.4018289,32.0000013 27.7600011,32.3581735 27.7600011,32.8000013 C27.7600011,33.2418291 27.4018289,33.6000013 26.9600011,33.6000013 L26.9600011,33.6000013 L25.680001,33.6000013 C25.2381732,33.6000013 24.880001,33.2418291 24.880001,32.8000013 C24.880001,32.3581735 25.2381732,32.0000013 25.680001,32.0000013 L25.680001,32.0000013 Z M31.4400012,32.0000013 C31.8818291,32.0000013 32.2400013,32.3581735 32.2400013,32.8000013 C32.2400013,33.2418291 31.8818291,33.6000013 31.4400012,33.6000013 L31.4400012,33.6000013 L30.1600012,33.6000013 C29.7181734,33.6000013 29.3600012,33.2418291 29.3600012,32.8000013 C29.3600012,32.3581735 29.7181734,32.0000013 30.1600012,32.0000013 L30.1600012,32.0000013 Z M17.3600007,32.0000013 C17.8018285,32.0000013 18.1600007,32.3581735 18.1600007,32.8000013 C18.1600007,33.2418291 17.8018285,33.6000013 17.3600007,33.6000013 L17.3600007,33.6000013 L16.0800006,33.6000013 C15.6381728,33.6000013 15.2800006,33.2418291 15.2800006,32.8000013 C15.2800006,32.3581735 15.6381728,32.0000013 16.0800006,32.0000013 L16.0800006,32.0000013 Z M12.8800005,32.0000013 C13.3218283,32.0000013 13.6800005,32.3581735 13.6800005,32.8000013 C13.6800005,33.2418291 13.3218283,33.6000013 12.8800005,33.6000013 L12.8800005,33.6000013 L11.6000005,33.6000013 C11.1581726,33.6000013 10.8000004,33.2418291 10.8000004,32.8000013 C10.8000004,32.3581735 11.1581726,32.0000013 11.6000005,32.0000013 L11.6000005,32.0000013 Z M8.40000033,32.0000013 C8.84182815,32.0000013 9.20000037,32.3581735 9.20000037,32.8000013 C9.20000037,33.2418291 8.84182815,33.6000013 8.40000033,33.6000013 L8.40000033,33.6000013 L7.12000028,33.6000013 C6.67817247,33.6000013 6.32000025,33.2418291 6.32000025,32.8000013 C6.32000025,32.3581735 6.67817247,32.0000013 7.12000028,32.0000013 L7.12000028,32.0000013 Z M22.4800009,28.7200011 C22.9218287,28.7200011 23.2800009,29.0781734 23.2800009,29.5200012 C23.2800009,29.961829 22.9218287,30.3200012 22.4800009,30.3200012 L22.4800009,30.3200012 L21.2000008,30.3200012 C20.758173,30.3200012 20.4000008,29.961829 20.4000008,29.5200012 C20.4000008,29.0781734 20.758173,28.7200011 21.2000008,28.7200011 L21.2000008,28.7200011 Z M26.9600011,28.7200011 C27.4018289,28.7200011 27.7600011,29.0781734 27.7600011,29.5200012 C27.7600011,29.961829 27.4018289,30.3200012 26.9600011,30.3200012 L26.9600011,30.3200012 L25.680001,30.3200012 C25.2381732,30.3200012 24.880001,29.961829 24.880001,29.5200012 C24.880001,29.0781734 25.2381732,28.7200011 25.680001,28.7200011 L25.680001,28.7200011 Z M31.4400012,28.7200011 C31.8818291,28.7200011 32.2400013,29.0781734 32.2400013,29.5200012 C32.2400013,29.961829 31.8818291,30.3200012 31.4400012,30.3200012 L31.4400012,30.3200012 L30.1600012,30.3200012 C29.7181734,30.3200012 29.3600012,29.961829 29.3600012,29.5200012 C29.3600012,29.0781734 29.7181734,28.7200011 30.1600012,28.7200011 L30.1600012,28.7200011 Z M17.3600007,28.7200011 C17.8018285,28.7200011 18.1600007,29.0781734 18.1600007,29.5200012 C18.1600007,29.961829 17.8018285,30.3200012 17.3600007,30.3200012 L17.3600007,30.3200012 L16.0800006,30.3200012 C15.6381728,30.3200012 15.2800006,29.961829 15.2800006,29.5200012 C15.2800006,29.0781734 15.6381728,28.7200011 16.0800006,28.7200011 L16.0800006,28.7200011 Z M12.8800005,28.7200011 C13.3218283,28.7200011 13.6800005,29.0781734 13.6800005,29.5200012 C13.6800005,29.961829 13.3218283,30.3200012 12.8800005,30.3200012 L12.8800005,30.3200012 L11.6000005,30.3200012 C11.1581726,30.3200012 10.8000004,29.961829 10.8000004,29.5200012 C10.8000004,29.0781734 11.1581726,28.7200011 11.6000005,28.7200011 L11.6000005,28.7200011 Z M8.40000033,28.7200011 C8.84182815,28.7200011 9.20000037,29.0781734 9.20000037,29.5200012 C9.20000037,29.961829 8.84182815,30.3200012 8.40000033,30.3200012 L8.40000033,30.3200012 L7.12000028,30.3200012 C6.67817247,30.3200012 6.32000025,29.961829 6.32000025,29.5200012 C6.32000025,29.0781734 6.67817247,28.7200011 7.12000028,28.7200011 L7.12000028,28.7200011 Z M35.2988814,6.04616027 C35.61132,5.73372174 36.1178829,5.73372173 36.4303214,6.04616024 C37.7806025,7.39682475 38.5391839,9.22818636 38.5391839,11.1377604 C38.5391839,13.0473345 37.7806025,14.8786961 36.4303214,16.2289606 C36.117905,16.5413992 35.6113599,16.5414171 35.2989214,16.2290006 C34.9864829,15.9165842 34.986465,15.4100391 35.2988814,15.0976006 C36.3492088,14.0473804 36.9392855,12.6229119 36.9392855,11.1376004 C36.9392855,9.65228903 36.3492088,8.22782047 35.2988814,7.17760029 C34.9864429,6.86516174 34.9864429,6.3585988 35.2988814,6.04616027 Z M2.12968008,6.04616024 C2.44211863,5.73372172 2.94868158,5.73372172 3.26112011,6.04616026 C3.57355865,6.35859879 3.57355865,6.86516174 3.26112013,7.17760029 C2.21091513,8.22780421 1.62091601,9.65218705 1.62091601,11.1374004 C1.62091601,12.6226138 2.21091513,14.0469967 3.26112013,15.0972006 C3.57353658,15.4096391 3.57351867,15.9161842 3.26108013,16.2286006 C2.94864159,16.5410171 2.44209653,16.5409992 2.12968008,16.2285606 C0.779399035,14.8782961 0.0208176497,13.0469345 0.0208176497,11.1373604 C0.0208176497,9.22778636 0.779399035,7.39642475 2.12968008,6.04616024 Z M24.880001,8.00000032 L23.920001,8.00000032 L23.920001,15.3600006 L24.880001,15.3600006 L24.880001,8.00000032 Z M14.6400006,8.00000032 L13.6800005,8.00000032 L13.6800005,15.3600006 L14.6400006,15.3600006 L14.6400006,8.00000032 Z M22.3200009,8.00000032 L16.2400006,8.00000032 L16.2400006,15.3600006 L22.3200009,15.3600006 L22.3200009,8.00000032 Z M32.9425841,8.55425242 C33.218689,8.48024943 33.5133005,8.55916803 33.7154413,8.76128035 C34.3456378,9.39141246 34.6996838,10.2460936 34.6996838,11.1372804 C34.6996838,12.0284673 34.3456378,12.8831484 33.7154413,13.5132805 C33.5654094,13.6633308 33.3619115,13.7476297 33.1497213,13.7476297 C32.9375312,13.7476297 32.7340332,13.6633308 32.5840013,13.5132805 C32.433951,13.3632486 32.3496521,13.1597507 32.3496521,12.9475605 C32.3496521,12.7353704 32.433951,12.5318724 32.5840013,12.3818405 C33.2712868,11.6945241 33.2712868,10.5801968 32.5840013,9.89288039 C32.3818604,9.6907681 32.3029001,9.39616775 32.3768641,9.12005246 C32.450828,8.84393716 32.6664793,8.6282554 32.9425841,8.55425242 Z M4.84496019,8.76160035 C5.15818278,8.45419597 5.66058328,8.4565242 5.97094332,8.7668184 C6.28130335,9.0771126 6.28373816,9.5795126 5.97640024,9.89280039 C5.64630435,10.2228687 5.46085608,10.6705539 5.46085608,11.1373604 C5.46085608,11.604167 5.64630435,12.0518522 5.97640024,12.3819205 C6.20520436,12.610729 6.27364176,12.9548388 6.14979832,13.2537828 C6.02595488,13.5527267 5.73422121,13.7476017 5.41064022,13.7476017 C5.19845988,13.7479559 4.9948847,13.6637447 4.84496019,13.5136005 C4.21476378,12.8834684 3.86071772,12.0287873 3.86071772,11.1376004 C3.86071772,10.2464136 4.21476378,9.39173246 4.84496019,8.76160035 Z M19.2800008,1.76152007 L12.4422405,6.32000025 L26.117841,6.32000025 L19.2800008,1.76152007 Z" id="Combined-Shape" fill="#000000" fill-rule="nonzero"></path>
            </g>
        </g>
    </g>
</svg>