<?xml version="1.0" encoding="UTF-8"?>
<svg width="44px" height="44px" viewBox="0 0 44 44" version="1.1" xmlns="http://www.w3.org/2000/svg" xmlns:xlink="http://www.w3.org/1999/xlink">
    <title>functional button/ico_question_black_line</title>
    <g id="functional-button/ico_question_black_line" stroke="none" stroke-width="1" fill="none" fill-rule="evenodd">
        <g id="Group" transform="translate(2.000000, 2.000000)" fill="#323232">
            <g id="ico_info" transform="translate(20.000000, 20.000000) scale(1, -1) translate(-20.000000, -20.000000) " fill-opacity="0" stroke="#323232" stroke-width="0.899999976">
                <path d="M19.7999995,0 C8.86359451,0 0,8.86359451 0,19.7999995 C0,30.7364064 8.86359451,39.599999 19.7999995,39.599999 C30.7364064,39.599999 39.599999,30.7364064 39.599999,19.7999995 C39.599999,8.86359451 30.7364064,0 19.7999995,0 Z" id="Shape"></path>
            </g>
            <path d="M20.6065,25.7159999 L20.6065,25.2749999 C20.6065,24.5189999 20.764,23.8259999 21.0789999,23.1959999 C21.3624999,22.629 21.7719999,22.0935 22.3389999,21.6525 C23.8509999,20.3295 24.7644998,19.479 25.0479998,19.164 C25.8039998,18.1560001 26.2134998,16.8645001 26.2134998,15.2895002 C26.2134998,13.3680002 25.5834998,11.8560002 24.3234999,10.7535003 C23.0634999,9.6195003 21.3939999,9.08400032 19.3465,9.08400032 C17.0155001,9.08400032 15.1885001,9.7455003 13.8340001,11.0685003 C12.4480002,12.3915002 11.7865002,14.2185002 11.7865002,16.5495001 L15.3775001,16.5495001 C15.3775001,15.1950002 15.6295001,14.1555002 16.1650001,13.4310002 C16.7950001,12.5805002 17.7715,12.1710002 19.126,12.1710002 C20.197,12.1710002 21.0474999,12.4545002 21.6459999,13.0530002 C22.2129999,13.6515002 22.5279999,14.4705002 22.5279999,15.5100001 C22.5279999,16.2975001 22.2444999,17.0535001 21.6774999,17.7465001 L21.2994999,18.1875001 C19.252,20.0145 18.0235,21.3375 17.614,22.188 C17.173,23.0384999 16.9840001,24.0779999 16.9840001,25.2749999 L16.9840001,25.7159999 L20.6065,25.7159999 Z M18.7795,32.9159997 C19.4725,32.9159997 20.0395,32.6954997 20.5435,32.2544997 C20.9844999,31.8134997 21.2364999,31.2149997 21.2364999,30.5219997 C21.2364999,29.8289998 20.9844999,29.2619998 20.5435,28.8209998 C20.071,28.3799998 19.4725,28.1594998 18.7795,28.1594998 C18.0865,28.1594998 17.5195,28.3799998 17.0785001,28.8209998 C16.5745001,29.2619998 16.3540001,29.8289998 16.3540001,30.5219997 C16.3540001,31.2149997 16.5745001,31.7819997 17.0785001,32.2229997 C17.5195,32.6639997 18.0865,32.9159997 18.7795,32.9159997 Z" id="?"></path>
        </g>
    </g>
</svg>