<?xml version="1.0" encoding="UTF-8"?>
<svg width="44px" height="44px" viewBox="0 0 44 44" version="1.1" xmlns="http://www.w3.org/2000/svg" xmlns:xlink="http://www.w3.org/1999/xlink">
    <title>functional button/btn_delete_line</title>
    <g id="functional-button/btn_delete_line" stroke="none" stroke-width="1" fill="none" fill-rule="evenodd">
        <path d="M14.2730722,17.6704093 L14.2751905,17.6687567 C14.2726299,17.6706831 14.2708514,17.672021 14.2686474,17.6738481 C14.2699564,17.6728252 14.2713893,17.6717142 14.2730722,17.6704093 Z M14.2799283,25.6919262 L14.2771737,25.689799 C14.27774,25.6902523 14.2786914,25.69098 14.2799283,25.6919262 Z M16.194284,15.7425422 C16.3128407,15.623284 16.4016232,15.534894 16.4842897,15.4542407 C16.566777,15.3714639 16.6518171,15.2886423 16.7442927,15.2009551 C16.8188347,15.1213842 16.8277654,15.1119904 16.8399656,15.0999885 C17.1032529,14.8352506 17.4069107,14.6140027 17.7417232,14.4434318 C18.0715961,14.277111 18.4242567,14.1604991 18.7940668,14.0964053 C19.1303041,14.0416841 19.4701335,14.011949 19.8048006,14.0075544 C19.9677708,14.0036895 20.1098451,14.0017064 20.2409132,14.0017349 C20.3854818,14.0002892 20.500674,14 20.7556869,14 L26.4691085,14 C26.7259839,14 26.8404312,14.0002874 26.9787631,14.0017064 C27.115792,14.0017064 27.2583509,14.0037023 27.4128191,14.0074433 C27.7540071,14.0119111 28.0943957,14.0416407 28.4370353,14.0973693 C28.8007883,14.1603946 29.1531542,14.2771334 29.4827764,14.4438571 C29.8168287,14.6129805 30.121581,14.834608 30.3846122,15.0994845 C30.6474986,15.3631589 30.8677141,15.6661691 31.0393572,16.0015983 C31.2050583,16.331735 31.3210785,16.6845401 31.3844335,17.0531997 C31.4394813,17.3899809 31.469148,17.7304221 31.4729702,18.0614195 C31.4743854,18.1088782 31.4755019,18.1581421 31.4764253,18.2118404 C31.47741,18.2691066 31.477961,18.3137328 31.4790601,18.4159186 C31.4795196,18.4586054 31.4795196,18.4586054 31.4800486,18.5075424 L31.4800486,24.29946 L31.4800486,24.8226216 C31.4792958,24.8747489 31.4792958,24.8747489 31.478658,24.9287377 C31.4766994,25.0945511 31.4754891,25.1690171 31.4728983,25.2535801 C31.4688032,25.5978549 31.4388497,25.9413357 31.3825513,26.2855348 C31.3195456,26.6527066 31.2025193,27.0085254 31.0334245,27.3450747 C30.8626476,27.6789795 30.6409398,27.9842689 30.3758056,28.2504386 C30.1095053,28.5171727 29.8024099,28.7397769 29.4658657,28.9099826 C29.1337985,29.0777599 28.7786358,29.1952437 28.4073584,29.2593682 C28.0673523,29.315203 27.723626,29.3453671 27.3844829,29.3495132 C27.2032567,29.3534607 27.0725538,29.3553362 26.9406528,29.3553362 L20.5870344,29.3553362 L20.2454904,29.3553362 C20.1021049,29.354765 19.9569486,29.3528113 19.8122623,29.349603 C19.4711272,29.3453075 19.1308002,29.3153214 18.7897531,29.2591541 C18.4257471,29.1962767 18.0730496,29.0798786 17.7403894,28.9123572 C17.4080576,28.7427609 17.1045619,28.5217978 16.8557379,28.2717828 C16.8344451,28.2519094 16.8188777,28.2357944 16.777342,28.1920016 C16.6670899,28.084252 16.5965076,28.0150211 16.4894323,27.9079141 C16.4070598,27.826991 16.3417067,27.7619267 16.1960311,27.6162508 L14.2524423,25.6698485 C14.1891547,25.6114621 14.1549716,25.5782053 14.0972182,25.5211305 C14.0269575,25.4525711 13.9876913,25.4135994 13.8999602,25.325868 L12.1293346,23.5519866 C12.1057915,23.5275896 12.0804332,23.501722 12.0510905,23.4721204 C12.0283802,23.4492096 12.0101491,23.4309385 11.9677812,23.38857 C11.906439,23.3272277 11.8605103,23.2803263 11.8293426,23.246705 C11.6811822,23.1002551 11.541051,22.9459079 11.4095607,22.78434 C11.2864029,22.6541921 11.1868236,22.5035072 11.1153679,22.3390183 L11.0958057,22.2872241 C10.9680648,21.8917665 10.9680648,21.4661293 11.0958057,21.0706717 L11.1145436,21.0207846 C11.1854615,20.8558883 11.2845142,20.7046632 11.4072069,20.5738386 C11.5392545,20.4119952 11.6794877,20.2576739 11.8177831,20.121208 C11.8780741,20.0583279 11.9207319,20.0143696 11.9746496,19.9603497 C11.9946509,19.9401808 11.9946509,19.9401808 12.0222612,19.9124883 C12.0640784,19.8704844 12.0965993,19.8373749 12.1345006,19.7980562 L13.9004725,18.0300957 C13.9230463,18.0076348 13.9411853,17.9897411 13.9803599,17.9512087 C14.0259188,17.9063906 14.0472905,17.8852661 14.0713089,17.8612512 C14.1235841,17.8092873 14.1740089,17.7601343 14.2346029,17.7026546 C14.2389537,17.6988937 14.8921807,17.0455229 16.194284,15.7425422 Z M14.9735374,18.5668088 C14.9745778,18.5660214 14.9753509,18.5654363 14.9764521,18.5645347 C14.976422,18.564558 14.9754504,18.565316 14.9735374,18.5668088 Z M15.0363598,24.8448956 L17.0007421,26.8121217 C17.1437444,26.955124 17.207512,27.0186098 17.2902668,27.09994 C17.3930651,27.2027383 17.4566115,27.2650679 17.5216419,27.3261216 C17.5424567,27.3455253 17.5393938,27.3423278 17.6022388,27.4085927 C17.6210358,27.4284112 17.6358907,27.4437886 17.6466019,27.454285 C17.8255775,27.6337456 18.0317444,27.7838474 18.2547677,27.8976705 C18.4844518,28.0133287 18.7299872,28.0943608 18.9789782,28.1373888 C19.259238,28.1835303 19.5425755,28.2084951 19.8319348,28.2121638 C19.9753026,28.2153179 20.1136368,28.2171798 20.2477387,28.2177143 L26.9406528,28.2177143 C27.0626671,28.2177143 27.1860385,28.215944 27.3650998,28.2120692 C27.6525539,28.2085334 27.9393342,28.1833666 28.2183474,28.1375678 C28.4738665,28.0934226 28.7214041,28.0115399 28.9526448,27.8947054 C29.1811603,27.7791346 29.3898041,27.6278951 29.5702748,27.447131 C29.751642,27.2650551 29.9035645,27.0558593 30.0187322,26.8307145 C30.1355568,26.5981758 30.217305,26.3496202 30.2605781,26.0975462 C30.3069428,25.8139898 30.3319394,25.5273509 30.3355654,25.2299933 C30.3380991,25.144354 30.3392364,25.0743762 30.3411155,24.9153006 C30.3417364,24.8627246 30.3417568,24.8609984 30.3424677,24.8100692 L30.3424677,19.0174815 L30.3424677,18.5143677 C30.3419661,18.4710895 30.3419661,18.4710895 30.341504,18.4281543 C30.3404313,18.3284248 30.3399001,18.2853998 30.3389715,18.2313998 C30.3381258,18.1822152 30.3371157,18.1376479 30.3356408,18.0851005 C30.3322794,17.8008518 30.3075664,17.5172574 30.2624838,17.2413238 C30.218885,16.9877024 30.1380571,16.7419134 30.0246339,16.5158943 C29.9088225,16.2895987 29.7584723,16.0827212 29.5781883,15.9018951 C29.4001066,15.7225653 29.1944045,15.5729707 28.9691175,15.4589128 C28.7402769,15.3431647 28.4955036,15.2620713 28.2486633,15.2192715 C27.9673065,15.1735359 27.6829489,15.1487 27.3917238,15.1448527 C27.2395457,15.1412004 27.1058251,15.1393283 26.9730467,15.1392996 C26.83408,15.137903 26.7221722,15.1376219 26.4691085,15.1376219 L20.7556869,15.1376219 C20.504458,15.1376219 20.391808,15.1379047 20.246601,15.1393283 C20.1197537,15.1393283 19.9863786,15.14119 19.8258081,15.1449667 C19.5413611,15.1487284 19.2575837,15.173559 18.9826176,15.2182777 C18.7291561,15.2622277 18.4835895,15.3434275 18.256019,15.4581622 C18.0306524,15.5729795 17.8249486,15.7228571 17.6427809,15.9059925 C17.6419169,15.9068449 17.6292425,15.9201767 17.603173,15.9478351 C17.5530669,16.0009948 17.5422243,16.0123321 17.5240781,16.0292669 C17.4422187,16.1069068 17.364811,16.1822952 17.2846116,16.2627012 C17.20121,16.3441461 17.1160078,16.4289716 17.0001509,16.545512 L15.037491,18.5107316 C15.0096091,18.5365842 14.999815,18.5456655 14.9914069,18.5526932 C14.9531283,18.5893913 14.9141534,18.6274825 14.8745267,18.6668702 C14.848917,18.69248 14.8258086,18.7153212 14.7858969,18.7545842 C14.7397264,18.8000006 14.7233921,18.8161141 14.7041101,18.8352959 L12.9472703,20.5939591 C12.9117483,20.6309612 12.8747422,20.6686371 12.828471,20.7151149 C12.7993688,20.7443035 12.7993688,20.7443035 12.762489,20.7810157 C12.7333777,20.8105221 12.6948839,20.8501894 12.6282864,20.9193546 C12.5039861,21.0422569 12.3865863,21.1719476 12.2766263,21.3078311 L12.2421695,21.3466468 C12.2129987,21.3766328 12.1886351,21.4108819 12.1698926,21.4481758 C12.1269738,21.5986264 12.1268653,21.7580799 12.1695671,21.9085761 C12.1882847,21.9452117 12.2125139,21.9788176 12.2414494,22.0082011 L12.2789254,22.0502295 C12.3882836,22.1858285 12.5051861,22.3151657 12.6432774,22.4521732 C12.6794259,22.4905531 12.7181969,22.5301454 12.7722014,22.5841498 C12.8151552,22.627103 12.8347618,22.6467526 12.8590377,22.6712427 C12.8917168,22.7042103 12.9205265,22.7335986 12.9412101,22.7551496 L14.7047366,24.5218043 C14.7880051,24.6050728 14.8245803,24.6413737 14.8715893,24.686986 C14.9367163,24.7513482 14.9627878,24.7768455 14.9930995,24.8057989 C14.9958164,24.8080871 15.0102365,24.8211193 15.0363598,24.8448956 Z M26.2347871,18.5357119 C26.4254494,18.6146824 26.5497657,18.8007309 26.5497657,19.0071007 C26.5497657,19.144522 26.4946412,19.2729324 26.4015094,19.3667151 L26.4076769,19.3721351 L24.106,21.676 L26.3362717,23.9038071 C26.3626098,23.9217076 26.3873943,23.9421584 26.4102366,23.9649992 L26.409099,23.9661368 C26.5550301,24.1120565 26.59869,24.3315158 26.5197194,24.5221782 C26.4407488,24.7128405 26.2547003,24.8371568 26.0483306,24.8371568 C25.9109093,24.8371568 25.7824988,24.7820323 25.6887162,24.6889005 L25.6847182,24.693646 L23.386,22.397 L21.0892945,24.6970589 L21.0795104,24.688703 C21.0335055,24.734111 20.9784703,24.7711649 20.9164046,24.7968719 C20.7257423,24.8758425 20.506283,24.8321826 20.3603632,24.6862515 C20.264338,24.5905213 20.2103667,24.460506 20.2103667,24.3249143 C20.2103667,24.1893226 20.264338,24.0593073 20.3603632,23.9635771 L20.3603632,23.9647148 C20.3859978,23.9390782 20.4139019,23.9165979 20.4435208,23.8973843 L22.664,21.676 L20.3603632,19.3752635 L20.3683917,19.3685791 C20.3222249,19.3222366 20.2845796,19.2666176 20.2585594,19.2037957 C20.1795888,19.0131334 20.2232487,18.7936741 20.3691798,18.6477543 C20.4649551,18.5513797 20.5952146,18.4971863 20.7310858,18.4971863 C20.866957,18.4971863 20.9972164,18.5513797 21.0929918,18.6477543 L21.0907165,18.6477543 C21.1135359,18.6705719 21.1338545,18.6951876 21.1515946,18.7212103 L23.384,20.954 L25.6183932,18.7189087 C25.6359233,18.6933533 25.6560407,18.669039 25.6787457,18.6463323 C25.8246654,18.5004012 26.0441247,18.4567413 26.2347871,18.5357119 Z" id="Delete" fill="#323232"></path>
    </g>
</svg>