<?xml version="1.0" encoding="UTF-8"?>
<svg width="44px" height="44px" viewBox="0 0 44 44" version="1.1" xmlns="http://www.w3.org/2000/svg" xmlns:xlink="http://www.w3.org/1999/xlink">
    <title>functional button/ico_close</title>
    <g id="functional-button/ico_close" stroke="none" stroke-width="1" fill="none" fill-rule="evenodd">
        <path d="M22.55,19.3218434 L29.7565873,12.1162805 C30.3438362,11.5290316 31.2966506,11.5290316 31.8838995,12.1162805 C32.4711484,12.7035294 32.4711484,13.6563437 31.8838718,14.2436203 L24.6773122,21.4491556 L31.8837195,28.6565873 C32.4709684,29.2438362 32.4709684,30.1966506 31.8837195,30.7838995 C31.2964706,31.3711484 30.3436563,31.3711484 29.7563797,30.7838718 L22.55,23.5764678 L15.3435926,30.7838995 C14.7563437,31.3711484 13.8035294,31.3711484 13.2162805,30.7838995 C12.6290316,30.1966506 12.6290316,29.2438362 13.2162528,28.6566149 L20.4226878,21.4491556 L13.2161005,14.2435926 C12.6288516,13.6563437 12.6288516,12.7035294 13.2161005,12.1162805 C13.8033494,11.5290316 14.7561638,11.5290316 15.3433851,12.1162528 L22.55,19.3218434 Z" id="Path" fill="#4A4A4A"></path>
    </g>
</svg>