<?xml version="1.0" encoding="UTF-8"?>
<svg width="44px" height="44px" viewBox="0 0 44 44" version="1.1" xmlns="http://www.w3.org/2000/svg" xmlns:xlink="http://www.w3.org/1999/xlink">
    <title>omg_tabar/btn_street_store_omg</title>
    <g id="omg_tabar/btn_street_store_omg" stroke="none" stroke-width="1" fill="none" fill-rule="evenodd">
        <path d="M10.1598629,26.4239644 C10.4739803,26.2161195 10.8819046,26.2161195 11.1960221,26.4239644 C11.5101395,26.6318093 11.669636,27.0072598 11.6011556,27.3776376 L11.6011556,27.3776376 L11.6011556,34.9292083 C11.6011556,34.9761513 11.6700054,35.0450011 11.7764097,35.0450011 L11.7764097,35.0450011 L32.1966329,35.0450011 C32.3030371,35.0450011 32.3687574,34.9761513 32.3687574,34.9292083 L32.3687574,34.9292083 L32.3687574,27.3901557 C32.3687574,26.8716372 32.7890997,26.4512949 33.3076182,26.4512949 C33.8151828,26.4597113 34.2241327,26.8700474 34.2308314,27.3776376 L34.2308314,27.3776376 L34.2308314,34.9292083 C34.2136756,36.0290137 33.3089786,36.9071019 32.209151,36.8914274 L32.209151,36.8914274 L11.7764097,36.8914274 C10.6765821,36.9071019 9.77188512,36.0290137 9.75472932,34.9292083 L9.75472932,34.9292083 L9.75472932,27.3776376 C9.6862489,27.0072598 9.84574548,26.6318093 10.1598629,26.4239644 Z M32.0683219,8.96793454 C32.3376937,8.96348757 32.5953597,9.0780058 32.7724675,9.28102042 C33.0666439,9.62839893 39.9359757,17.8528199 36.3620455,22.6816941 C35.1196196,24.3528664 33.5830174,25.2009707 31.7960523,25.2009707 L31.7960523,25.2009707 L31.5076465,25.1934428 C29.4987594,25.0891286 27.7078823,23.9234087 26.7011674,23.1198292 C25.5024661,24.4488422 23.7966008,25.2074715 22.0068633,25.2074715 C20.2171257,25.2074715 18.5112604,24.4488422 17.3125591,23.1198292 C16.2610349,23.9522858 14.3363702,25.2041002 12.2145447,25.2041002 C10.4275796,25.2041002 8.90036595,24.3559959 7.6485515,22.6848237 C4.05271449,17.8559494 10.9251758,9.63152847 11.2193522,9.28102042 C11.3984733,9.08075115 11.6548148,8.96682161 11.9234979,8.96793454 L11.9234979,8.96793454 Z M31.6395755,10.7988454 L12.3553738,10.7988454 C10.5089475,13.1084431 6.9725717,18.6915356 9.12256302,21.5738383 C10.0176104,22.7693211 11.0190619,23.3482853 12.2082856,23.3482853 C14.0860073,23.3482853 15.9042678,21.9118282 16.5645999,21.326605 L16.5645999,21.326605 L16.5645999,15.2459163 C16.6432876,14.7967397 17.033361,14.46906 17.4893779,14.46906 C17.9453947,14.46906 18.3354681,14.7967397 18.4141558,15.2459163 L18.4141558,15.2459163 L18.4141558,21.4705636 C19.0932651,22.6191034 20.470261,23.3482853 21.9974746,23.3482853 C23.5246883,23.3482853 24.9048137,22.6097148 25.583923,21.4705636 L25.583923,21.4705636 L25.583923,15.2459163 C25.5154426,14.8755385 25.6749392,14.500088 25.9890566,14.2922431 C26.303174,14.0843982 26.7110984,14.0843982 27.0252158,14.2922431 C27.3393332,14.500088 27.4988298,14.8755385 27.4303494,15.2459163 L27.4303494,15.2459163 L27.4303494,21.3297345 C28.1000701,21.9180873 29.9183306,23.3482853 31.7741455,23.3482853 C32.9664988,23.3482853 33.9742094,22.7724507 34.8629977,21.5769679 C37.0098594,18.6915356 33.4766132,13.1084431 31.6395755,10.7988454 L31.6395755,10.7988454 Z" id="Combined-Shape" fill="#C41C62"></path>
    </g>
</svg>