<?xml version="1.0" encoding="UTF-8"?>
<svg width="44px" height="44px" viewBox="0 0 44 44" version="1.1" xmlns="http://www.w3.org/2000/svg" xmlns:xlink="http://www.w3.org/1999/xlink">
    <title>omg_tabar/btn_house_store_omg_bk</title>
    <g id="omg_tabar/btn_house_store_omg_bk" stroke="none" stroke-width="1" fill="none" fill-rule="evenodd">
        <path d="M17.5101307,18.8614383 L28.0372485,27.5422205 C28.4445685,27.8774929 28.5042657,28.4789421 28.170799,28.8877417 C27.8353099,29.2882807 27.2402036,29.3448158 26.8352941,29.0146147 L26.8352941,29.0146147 L26.5348055,28.7675463 L26.5348055,34.8941753 C26.532964,35.8627876 25.7472305,36.6471531 24.7786165,36.6471531 L24.7786165,36.6471531 L10.7224268,36.6471531 C10.1396275,36.6533461 9.57885448,36.4246208 9.16672891,36.0124953 C8.75460335,35.6003697 8.52587806,35.0395967 8.53219867,34.4567974 L8.53219867,34.4567974 L8.53219867,28.7809013 L8.26175892,29.0045984 C7.8574207,29.3366757 7.26082881,29.2799995 6.92625396,28.8777254 C6.59525113,28.4736915 6.65028941,27.878683 7.04978817,27.5422205 L7.04978817,27.5422205 L17.5101307,18.8614383 Z M22.1042678,7.35272432 L37.1520699,19.9665686 C37.3456171,20.1293306 37.466129,20.3626632 37.4868188,20.6147028 C37.5075086,20.8667423 37.426662,21.1166043 37.262249,21.3087511 C36.9257191,21.7089494 36.3293229,21.762625 35.9267441,21.4289465 L35.9267441,21.4289465 L35.6529656,21.1985719 L35.6529656,34.4734912 C35.6511332,35.6699949 34.6826082,36.6400123 33.4861088,36.6436868 L33.4861088,36.6436868 L29.9236493,36.6436868 C29.3962803,36.6436868 28.9687633,36.2161697 28.9687633,35.6888007 C28.9687633,35.1614317 29.3962803,34.7339147 29.9236493,34.7339147 L29.9236493,34.7339147 L33.5028026,34.7339147 C33.5712597,34.7348215 33.6371784,34.7080272 33.6855891,34.6596165 C33.7339998,34.6112058 33.7607941,34.545287 33.7598873,34.47683 L33.7598873,34.47683 L33.7598873,19.5993048 L22.0909127,9.83676353 L8.26843644,21.422269 C7.86585764,21.7559475 7.26946138,21.7022719 6.93293149,21.3020736 C6.59655679,20.900969 6.64886512,20.3031596 7.04978817,19.9665686 L7.04978817,19.9665686 L22.1042678,7.35272432 Z M17.5168083,21.3454775 L10.4753358,27.198328 L10.4753358,34.47683 C10.474467,34.5432438 10.4999979,34.607291 10.5463335,34.6548789 C10.5926691,34.7024668 10.6560128,34.7296963 10.7224268,34.7305759 L10.7224268,34.7305759 L24.3479161,34.7305759 C24.4954319,34.7305759 24.6150171,34.6109907 24.6150171,34.4634749 L24.6150171,34.4634749 L24.6150171,27.1949892 L17.5168083,21.3454775 Z" id="Combined-Shape" fill="#646464"></path>
    </g>
</svg>