<?xml version="1.0" encoding="UTF-8"?>
<svg width="44px" height="44px" viewBox="0 0 44 44" version="1.1" xmlns="http://www.w3.org/2000/svg" xmlns:xlink="http://www.w3.org/1999/xlink">
    <title>finger_red</title>
    <defs>
        <linearGradient x1="50%" y1="22.2497889%" x2="50%" y2="100%" id="linearGradient-1">
            <stop stop-color="#FFFFBA" offset="0.0818201014%"></stop>
            <stop stop-color="#FFEA7D" offset="22.2613473%"></stop>
            <stop stop-color="#FFB956" offset="65.7132511%"></stop>
            <stop stop-color="#FFAB34" offset="100%"></stop>
        </linearGradient>
    </defs>
    <g id="finger_red" stroke="none" stroke-width="1" fill="none" fill-rule="evenodd">
        <g id="Group" transform="translate(2.933333, 2.933333)">
            <path d="M12.864481,1.5196041 L9.93039119,3.63250598 L10.541464,22.230273 L4.53884847,19.4639932 L1.93473804,20.3288963 L2.21583155,23.1346608 L13.3171449,34.8733702 C13.3171449,34.8733702 21.3001066,37.4083824 21.8383207,37.4083824 C22.3765349,37.4083824 29.6628735,35.7048993 29.6628735,35.7048993 L33.7711632,30.8393493 L33.7344988,14.2285091 L31.5825823,11.7795172 L26.0077177,10.8878209 L20.5790406,9.57401426 L16.9845221,8.72274278 L14.9552902,2.25242146 L12.864481,1.5196041 Z" id="Path-2" fill="url(#linearGradient-1)"></path>
            <path d="M30.7968834,10.2666667 C30.0092834,10.2666667 29.2803501,10.4910667 28.6394167,10.8548 C27.8591501,9.62426667 26.4922167,8.8 24.9302167,8.8 C24.1426167,8.8 23.4136834,9.0244 22.7727501,9.38813333 C21.9924834,8.1576 20.6255501,7.33333333 19.0635501,7.33333333 C18.5487501,7.33333333 18.0603501,7.43893333 17.6012834,7.60173333 L17.6012834,4.4 C17.6012834,1.97413333 15.6271501,0 13.2012834,0 C10.7710167,0 8.79688339,1.97413333 8.79688339,4.4 L8.79688339,20.1784 L7.50768339,18.8892 C5.79168339,17.1761333 3.00061673,17.1746667 1.28461673,18.8892 C-0.428449941,20.6052 -0.428449941,23.3948 1.28608339,25.1122667 L11.2476834,35.0430667 C13.2760834,37.0641333 15.6623501,38.1333333 18.1468834,38.1333333 L24.9302167,38.1333333 C30.5900834,38.1333333 35.1968834,33.5265333 35.1968834,27.8666667 L35.1968834,14.6666667 C35.1968834,12.2408 33.2227501,10.2666667 30.7968834,10.2666667 Z M32.2635501,27.8666667 C32.2635501,31.9102667 28.9738167,35.2 24.9302167,35.2 L18.1468834,35.2 C16.0084834,35.2 14.3408834,33.9856 13.3186167,32.9677333 L3.35995006,23.0369333 C2.78795006,22.4649333 2.78795006,21.5350667 3.35995006,20.9630667 C3.93195006,20.3925333 4.86181673,20.3925333 5.43381673,20.9630667 L11.7302167,27.2594667 L11.7346167,4.4 C11.7346167,3.59186667 12.3916834,2.9348 13.1998167,2.93333333 C14.0064834,2.9348 14.6635501,3.59186667 14.6635501,4.4 L14.6664834,11.7069333 C14.6664834,11.7157333 14.6635501,16.1333333 14.6635501,16.1333333 L17.6012834,16.1333333 L17.6012834,11.7128 C17.6130167,10.9134667 18.2627501,10.2666667 19.0635501,10.2666667 C19.8731501,10.2666667 20.5302167,10.9252 20.5302167,11.7333333 L20.5302167,13.2 L20.5302167,16.1333333 L23.4635501,16.1333333 L23.4635501,13.2 C23.4635501,12.3918667 24.1206167,11.7333333 24.9302167,11.7333333 C25.7398167,11.7333333 26.3968834,12.3918667 26.3968834,13.2 L26.3968834,14.6666667 L26.3968834,16.1333333 L29.3302167,16.1333333 L29.3302167,14.6666667 C29.3302167,13.8585333 29.9872834,13.2 30.7968834,13.2 C31.6064834,13.2 32.2635501,13.8585333 32.2635501,14.6666667 L32.2635501,27.8666667 Z" id="Shape" fill="#FF004F"></path>
        </g>
    </g>
</svg>