<?xml version="1.0" encoding="UTF-8"?>
<svg width="44px" height="44px" viewBox="0 0 44 44" version="1.1" xmlns="http://www.w3.org/2000/svg" xmlns:xlink="http://www.w3.org/1999/xlink">
    <title>functional_icon/ico_idcard</title>
    <g id="functional_icon/ico_idcard" stroke="none" stroke-width="1" fill="none" fill-rule="evenodd">
        <path d="M28.8789645,15.5365939 L15.1210355,15.5365939 C14.1244898,15.5365939 13.3145032,16.3465805 13.3145032,17.3431262 L13.3145032,26.6568738 C13.3145032,27.6534195 14.1244898,28.4634061 15.1210355,28.4634061 L28.8789645,28.4634061 C29.8755102,28.4634061 30.6854968,27.6534195 30.6854968,26.6568738 L30.6854968,17.3431262 C30.6854968,16.3465805 29.8755102,15.5365939 28.8789645,15.5365939 Z M18.8264037,18.3870139 C19.776917,18.3870139 20.5507403,19.1609636 20.5507403,20.1114769 C20.5507403,21.0618638 19.776917,21.8358135 18.8264037,21.8358135 C17.8758904,21.8358135 17.102067,21.0618638 17.102067,20.1114769 C17.102067,19.1609636 17.8758904,18.3870139 18.8264037,18.3870139 Z M21.9302855,24.7672996 C21.9302855,25.0528577 21.69853,25.2846132 21.4129718,25.2846132 L16.2398355,25.2846132 C15.9542773,25.2846132 15.7225218,25.0528577 15.7225218,24.7672996 L15.7225218,24.4223817 C15.7225218,23.3760088 16.5730077,22.525523 17.6193806,22.525523 L20.0334267,22.525523 C21.0797996,22.525523 21.9302855,23.3760088 21.9302855,24.4223817 L21.9302855,24.7672996 Z M27.6207355,25.2846132 L23.8271442,25.2846132 C23.5415861,25.2846132 23.3098306,25.0528577 23.3098306,24.7672996 C23.3098306,24.4817415 23.5415861,24.249986 23.8271442,24.249986 L27.6207355,24.249986 C27.9062936,24.249986 28.1380491,24.4817415 28.1380491,24.7672996 C28.1380491,25.0528577 27.9062936,25.2846132 27.6207355,25.2846132 Z M27.6207355,22.525523 L23.8271442,22.525523 C23.5415861,22.525523 23.3098306,22.2937674 23.3098306,22.0082093 C23.3098306,21.7226512 23.5415861,21.4908957 23.8271442,21.4908957 L27.6207355,21.4908957 C27.9062936,21.4908957 28.1380491,21.7226512 28.1380491,22.0082093 C28.1380491,22.2937674 27.9062936,22.525523 27.6207355,22.525523 Z M27.6207355,19.766559 L23.8271442,19.766559 C23.5415861,19.766559 23.3098306,19.5348035 23.3098306,19.2492454 C23.3098306,18.9636872 23.5415861,18.7319317 23.8271442,18.7319317 L27.6207355,18.7319317 C27.9062936,18.7319317 28.1380491,18.9636872 28.1380491,19.2492454 C28.1380491,19.5348035 27.9062936,19.766559 27.6207355,19.766559 Z" id="Shape-Copy-4" fill="#AEAEAE"></path>
        <rect id="Rectangle" fill-opacity="0" fill="#FFFFFF" x="0" y="0" width="44" height="44"></rect>
    </g>
</svg>