<?xml version="1.0" encoding="UTF-8"?>
<svg width="44px" height="44px" viewBox="0 0 44 44" version="1.1" xmlns="http://www.w3.org/2000/svg" xmlns:xlink="http://www.w3.org/1999/xlink">
    <title>ico_password_see</title>
    <defs>
        <filter id="filter-1">
            <feColorMatrix in="SourceGraphic" type="matrix" values="0 0 0 0 0.486275 0 0 0 0 0.486275 0 0 0 0 0.486275 0 0 0 1.000000 0"></feColorMatrix>
        </filter>
    </defs>
    <g id="ico_password_see" stroke="none" stroke-width="1" fill="none" fill-rule="evenodd">
        <rect id="Rectangle" fill-opacity="0" fill="#FFFFFF" x="0" y="0" width="44" height="44"></rect>
        <g filter="url(#filter-1)" id="Viewer">
            <g transform="translate(9.318005, 11.136226)">
                <path d="M12.4291559,10.4870593 C14.8385092,10.4870593 16.7986669,12.4472655 16.7986669,14.8566674 C16.7986669,17.2660693 14.8385092,19.2262754 12.4291559,19.2262754 C10.0198026,19.2262754 8.05964496,17.2660693 8.05964496,14.8566674 C8.05964496,12.4472655 10.0198026,10.4870593 12.4291559,10.4870593 Z M12.4291559,12.4291074 C11.0905993,12.4291074 10.0016444,13.5181108 10.0016444,14.8566674 C10.0016444,16.195224 11.0905993,17.2842274 12.4291559,17.2842274 C13.7677125,17.2842274 14.8566674,16.195224 14.8566674,14.8566674 C14.8566674,13.5181108 13.7677125,12.4291074 12.4291559,12.4291074 Z M12.4291074,-8.8817842e-14 C12.9654039,-8.8817842e-14 13.4001314,0.43472745 13.4001314,0.971024013 L13.4001314,0.971024013 L13.4001314,5.37219035 C15.0030493,5.47633267 16.5629993,5.83813622 18.016331,6.43963705 L18.016331,6.43963705 L21.0998663,3.35600464 C21.4791483,2.97681976 22.0939036,2.97681976 22.473137,3.35600464 C22.8522733,3.73523807 22.8522733,4.35004192 22.4730884,4.7292268 L22.4730884,4.7292268 L19.8446721,7.3576917 C21.9856829,8.63852092 23.6828387,10.4354494 24.7537811,12.5566028 C24.9955661,13.0353177 24.8034004,13.61934 24.324637,13.8610765 C23.8466505,14.1024245 23.2623368,13.9114726 23.0202119,13.4319324 C21.2206617,9.86759457 17.2087789,7.28268009 12.4291559,7.28268009 C7.65312575,7.28268009 3.63920379,9.86448729 1.83805135,13.4318839 C1.59641203,13.9106472 1.01219543,14.1027643 0.533626246,13.8610279 C0.0549114079,13.6192915 -0.137254244,13.0353177 0.104433633,12.5565543 C1.17537602,10.4354009 2.87253179,8.63847237 5.01354263,7.35764315 L5.01354263,7.35764315 L2.38512628,4.72917825 C2.00594141,4.34994482 2.00594141,3.73514097 2.38507773,3.35595609 C2.76426261,2.97672266 3.37911501,2.97672266 3.75834844,3.35595609 L3.75834844,3.35595609 L6.84188374,6.4395885 C8.29521538,5.83808767 9.85516546,5.47628412 11.4580833,5.3721418 L11.4580833,5.3721418 L11.4580833,0.971024013 C11.4580833,0.43472745 11.8928108,-8.8817842e-14 12.4291074,-8.8817842e-14 Z" id="Combined-Shape" fill="#4A4A4A"></path>
            </g>
        </g>
    </g>
</svg>