<?xml version="1.0" encoding="UTF-8"?>
<svg width="44px" height="44px" viewBox="0 0 44 44" version="1.1" xmlns="http://www.w3.org/2000/svg" xmlns:xlink="http://www.w3.org/1999/xlink">
    <title>ico_mail_registered</title>
    <g id="ico_mail_registered" stroke="none" stroke-width="1" fill="none" fill-rule="evenodd">
        <path d="M29.171768,18.5075995 C29.2663938,18.4267495 29.4001813,18.4082815 29.5139066,18.461219 C29.6273012,18.5135549 29.7,18.6272803 29.7,18.752285 L29.7,18.752285 L29.7,26.8766566 C29.7,27.5844551 29.1244551,28.16 28.4166867,28.16 L28.4166867,28.16 L15.5833434,28.16 C14.8755449,28.16 14.3,27.5844551 14.3,26.8766566 L14.3,26.8766566 L14.3,18.752285 C14.3,18.6272803 14.3726988,18.5138557 14.4860934,18.4611889 C14.5988863,18.4088831 14.7329746,18.4267194 14.828232,18.5075694 C16.7416219,20.1292917 20.1009875,22.9851495 21.1042133,23.8890573 C21.6337086,24.3665475 22.3668629,24.3665475 22.895125,23.8896889 C23.5117763,23.3340288 25.0085231,22.0491389 26.6266295,20.6702627 L27.1407596,20.2324449 C27.8292853,19.6464979 28.5251671,19.0557432 29.171768,18.5075995 Z M28.4166566,15.84 C28.8101988,15.84 29.1773926,16.020168 29.4236723,16.3343941 C29.530209,16.4703773 29.5101469,16.6658852 29.3785551,16.7771141 C28.6497206,17.3943483 27.7312223,18.1732283 26.7957938,18.9691808 L26.233887,19.4476444 C25.7662414,19.8461437 25.303,20.2416824 24.8657544,20.6161889 L24.3549196,21.0543447 C23.5289311,21.7639233 22.8414729,22.3604583 22.4652785,22.6993766 C22.3192793,22.8312691 22.1626023,22.8980125 22,22.8980125 C21.8370668,22.8980125 21.6801191,22.8306375 21.5337891,22.6981133 C20.8948052,22.1225165 19.3559483,20.8021797 17.766053,19.4474643 L17.2041764,18.9690587 C16.2687906,18.1731926 15.3502991,17.3943483 14.621475,16.7771141 C14.4898832,16.6658852 14.4698211,16.4703773 14.5763578,16.3344242 C14.8226074,16.020168 15.1898313,15.84 15.5833434,15.84 L15.5833434,15.84 Z" id="Combined-Shape-Copy" fill="#AEAEAE"></path>
        <rect id="Rectangle" fill-opacity="0" fill="#FFFFFF" x="0" y="0" width="44" height="44"></rect>
    </g>
</svg>