<?xml version="1.0" encoding="UTF-8"?>
<svg width="44px" height="44px" viewBox="0 0 44 44" version="1.1" xmlns="http://www.w3.org/2000/svg" xmlns:xlink="http://www.w3.org/1999/xlink">
    <title>ico_mobile_sms</title>
    <g id="ico_mobile_sms" stroke="none" stroke-width="1" fill="none" fill-rule="evenodd">
        <rect id="Rectangle" fill-opacity="0" fill="#FFFFFF" x="0" y="0" width="44" height="44"></rect>
        <path d="M25.8687793,11.8026981 C26.9186023,11.8026981 27.7726254,12.6567212 27.7726254,13.7065442 L27.7726254,13.7065442 L27.7726254,16.2873135 L24.5995485,16.2873135 C22.8499985,16.2873135 21.4264716,17.7108404 21.4264716,19.4603904 L21.4264716,19.4603904 L21.4264716,23.2680827 C21.4264716,24.8006788 22.5184754,26.0823058 23.9649331,26.3773173 L23.9649331,26.3773173 L23.9649331,27.075775 C23.9649331,27.8498365 24.426637,28.5402135 25.1362216,28.8334058 C25.8134408,29.1161481 26.6432216,28.9944288 27.2148408,28.4218788 L27.2148408,28.4218788 L27.7726254,27.8640942 L27.7726254,30.2511481 C27.7726254,31.3009712 26.9186023,32.1973019 25.8687793,32.1973019 L25.8687793,32.1973019 L17.0542977,32.1973019 C16.0044746,32.1973019 15.1504515,31.3009712 15.1504515,30.2511481 L15.1504515,30.2511481 L15.1504515,13.7065442 C15.1504515,12.6567212 16.0044746,11.8026981 17.0542977,11.8026981 L17.0542977,11.8026981 Z M30.9457023,17.5565442 C31.9955254,17.5565442 32.8495485,18.4105673 32.8495485,19.4603904 L32.8495485,19.4603904 L32.8495485,23.2680827 C32.8495485,24.3179058 31.9955254,25.1719288 30.9457023,25.1719288 L30.9457023,25.1719288 L28.6700139,25.1719288 L26.3174947,27.5244481 C26.1345139,27.7073442 25.859937,27.7597212 25.6258485,27.6620327 C25.38846,27.5641327 25.2341639,27.3323288 25.2341639,27.075775 L25.2341639,27.075775 L25.2341639,25.1719288 L24.5995485,25.1719288 C23.5497254,25.1719288 22.6957023,24.3179058 22.6957023,23.2680827 L22.6957023,23.2680827 L22.6957023,19.4603904 C22.6957023,18.4105673 23.5497254,17.5565442 24.5995485,17.5565442 L24.5995485,17.5565442 Z M29.4905716,20.2809058 C29.2426908,20.033025 28.8410639,20.033025 28.5931831,20.2809058 L28.5931831,20.2809058 L27.13801,21.7360788 L26.6348023,21.2328712 C26.3869216,20.9849904 25.9852947,20.9849904 25.7374139,21.2328712 C25.4894908,21.4807519 25.4894908,21.8823365 25.7374562,22.1302173 L25.7374562,22.1302173 L26.6893793,23.0821404 C26.8132985,23.2061019 26.9757177,23.2680827 27.1380523,23.2680827 C27.300387,23.2680827 27.4627639,23.2061019 27.5867254,23.0821404 L27.5867254,23.0821404 L29.4905716,21.1782942 C29.7384523,20.9304135 29.7384523,20.5287865 29.4905716,20.2809058 Z M22.081279,13.7065442 L20.8120483,13.7065442 C20.4612752,13.7065442 20.1774329,13.9903865 20.1774329,14.3411596 C20.1774329,14.6919327 20.4612752,14.975775 20.8120483,14.975775 L20.8120483,14.975775 L22.081279,14.975775 C22.4320521,14.975775 22.7158944,14.6919327 22.7158944,14.3411596 C22.7158944,13.9903865 22.4320521,13.7065442 22.081279,13.7065442 L22.081279,13.7065442 Z" id="Combined-Shape" fill="#AEAEAE"></path>
    </g>
</svg>