<?xml version="1.0" encoding="UTF-8"?>
<svg width="44px" height="44px" viewBox="0 0 44 44" version="1.1" xmlns="http://www.w3.org/2000/svg" xmlns:xlink="http://www.w3.org/1999/xlink">
    <title>ico_password_setting_deep</title>
    <g id="ico_password_setting_deep" stroke="none" stroke-width="1" fill="none" fill-rule="evenodd">
        <rect id="Rectangle" fill-opacity="0" fill="#FFFFFF" x="0" y="0" width="44" height="44"></rect>
        <path d="M27.862848,19.9810218 L27.862848,18.4822948 C27.862848,15.2497244 25.2325704,12.6194468 22,12.6194468 C18.7674296,12.6194468 16.137152,15.2497244 16.137152,18.4822948 L16.137152,19.9810218 C15.4395898,20.3877541 14.9645896,21.1357165 14.9645896,22.0000182 L14.9645896,29.0354286 C14.9645896,30.3288061 16.0163368,31.3805532 17.3097143,31.3805532 L26.6902857,31.3805532 C27.9836632,31.3805532 29.0354104,30.3288061 29.0354104,29.0354286 L29.0354104,22.0000182 C29.0354104,21.1356802 28.5604102,20.3877177 27.862848,19.9810218 L27.862848,19.9810218 Z M22,14.9645714 C23.9397752,14.9645714 25.5177234,16.5424833 25.5177234,18.4822948 L25.5177234,19.6548571 L18.4822766,19.6548571 L18.4822766,18.4822948 C18.4822766,16.5425197 20.0602248,14.9645714 22,14.9645714 Z M23.1725623,26.2338263 L23.1725623,27.8628662 L20.8274377,27.8628662 L20.8274377,26.2338263 C20.4700139,25.9119193 20.2411565,25.4503107 20.2411565,24.931424 C20.2411565,23.9600263 21.0286022,23.1725805 22,23.1725805 C22.9713978,23.1725805 23.7588435,23.9600263 23.7588435,24.931424 C23.7588435,25.4503107 23.5299861,25.9119193 23.1725623,26.2338263 L23.1725623,26.2338263 Z" id="Shape-Copy-3" fill="#7C7C7C"></path>
    </g>
</svg>