<?xml version="1.0" encoding="UTF-8"?>
<svg width="44px" height="44px" viewBox="0 0 44 44" version="1.1" xmlns="http://www.w3.org/2000/svg" xmlns:xlink="http://www.w3.org/1999/xlink">
    <title>functional_icon/ico_password_nsee</title>
    <g id="functional_icon/ico_password_nsee" stroke="none" stroke-width="1" fill="none" fill-rule="evenodd">
        <rect id="Rectangle" fill-opacity="0" fill="#FFFFFF" x="0" y="0" width="44" height="44"></rect>
        <path d="M31.3748368,19.5808919 C31.7992473,19.0714678 32.1285846,18.5203588 32.3458854,17.9357177 C32.5356373,17.4251759 32.2755996,16.857498 31.7650578,16.6676804 C31.2543844,16.4780599 30.6867724,16.7379662 30.4970204,17.2485737 C30.1076542,18.2961543 29.0897922,19.2700301 27.6310167,19.9909034 C26.0541558,20.7700961 24.0543309,21.1991747 21.9998685,21.1991747 C19.9454718,21.1991747 17.9456469,20.7700961 16.368786,19.9909034 C14.9100105,19.2700959 13.8921486,18.2962201 13.5027823,17.2486395 C13.3129646,16.7380319 12.7452868,16.4783229 12.2346792,16.6678119 C11.7241374,16.8576295 11.4640997,17.4253731 11.6539174,17.9359149 C11.8712182,18.5204903 12.2005555,19.0715336 12.6249002,19.5809577 L10.314871,21.8910526 C9.92971271,22.2761452 9.92971271,22.9006302 10.314871,23.2857885 C10.5074501,23.4783676 10.759861,23.5746901 11.0122718,23.5746901 C11.2646826,23.5746901 11.5170935,23.4783676 11.7096069,23.2857885 L14.0811772,20.9142181 C14.7228228,21.3728839 15.4582266,21.773033 16.2666119,22.103751 L15.3420479,25.2747648 C15.1895757,25.7976675 15.4899177,26.3450946 16.0128203,26.4976325 C16.1050006,26.5245239 16.1979698,26.5373449 16.2893611,26.5373449 C16.7165331,26.5373449 17.1101072,26.2576482 17.2357538,25.8268601 L18.1438147,22.712522 C19.0453008,22.9359375 20.003857,23.082558 20.9986411,23.1417322 L20.9986411,26.4080822 C20.9986411,26.9527478 21.4402121,27.3943188 21.9848777,27.3943188 C22.5295433,27.3943188 22.9711143,26.9527478 22.9711143,26.4080822 L22.9711143,23.1435732 C23.976747,23.0855824 24.9455601,22.9381729 25.8561853,22.712522 L26.7642462,25.8268601 C26.889827,26.2576482 27.2834669,26.5373449 27.7106389,26.5373449 C27.8020302,26.5373449 27.8949994,26.5245239 27.9871797,26.4976325 C28.5100823,26.3451603 28.8103585,25.7976675 28.6579521,25.2747648 L27.7333881,22.103751 C28.5417734,21.773033 29.2771772,21.3728839 29.9188228,20.9142181 L32.2903931,23.2857885 C32.4829723,23.4783676 32.7353831,23.5746901 32.9877282,23.5746901 C33.240139,23.5746901 33.4925499,23.4783676 33.685129,23.2857885 C34.0702873,22.9006959 34.0702873,22.2762109 33.685129,21.8910526 L31.3748368,19.5808919 Z" id="Path" fill="#7C7C7C"></path>
    </g>
</svg>