<?xml version="1.0" encoding="UTF-8"?>
<svg width="44px" height="44px" viewBox="0 0 44 44" version="1.1" xmlns="http://www.w3.org/2000/svg" xmlns:xlink="http://www.w3.org/1999/xlink">
    <title>convenience_store/ico_store_ok</title>
    <g id="convenience_store/ico_store_ok" stroke="none" stroke-width="1" fill="none" fill-rule="evenodd">
        <path d="M41.9571432,27.1844251 C41.9856785,27.2840819 41.9978169,27.3916501 41.997884,27.4956283 C42,31.0298558 41.9972133,34.5640833 42,38.0982776 C42.0016395,40.193963 40.2912632,41.5864329 38.8450484,41.881348 C38.508593,41.9499244 38.1591945,41.9865229 37.8157645,41.9867223 C27.2713391,41.9921074 16.7269137,41.9807721 6.18252182,41.9999928 C4.11634249,42.003775 2.63243818,40.5235818 2.22167694,39.3151347 C2.11756154,39.0087847 2.07229398,38.6827559 2,38.3657687 L2,32.8145042 C2.08376176,32.5245753 2.25081584,32.3201758 2.57466336,32.3016272 C2.67612976,32.2958433 2.78735385,32.313727 2.88164451,32.3514224 C3.59532959,32.6369967 4.30264367,32.9382609 5.01813945,33.2192479 C6.28227812,33.7157038 7.59047722,34.0613448 8.92519976,34.3124481 C10.1994649,34.5521497 11.4849967,34.6979452 12.7786431,34.7832752 C14.3027853,34.883763 15.8276651,34.8807381 17.3517067,34.8030536 C18.7517822,34.7317182 20.1455873,34.5892801 21.5336249,34.3876395 C24.0109008,34.0278046 26.4489783,33.493753 28.8475893,32.7850859 C31.6044175,31.9706455 34.2541796,30.8969579 36.7792714,29.526959 C38.0540731,28.8352448 39.2757273,28.0593309 40.4711934,27.2411011 C40.7134587,27.0752945 40.9788943,26.9406016 41.241815,26.807338 C41.4875006,26.6827835 41.8724425,26.8888452 41.9571432,27.1844251 Z M12.3469482,11.9536348 C17.805613,11.9451369 22.2971278,16.5306476 22.2850807,22.1168485 C22.2790879,24.8791511 21.1270786,27.1740837 19.2069962,29.095752 C17.2529798,31.0513927 14.7944816,31.8445255 12.0662893,31.849025 C7.35095144,31.856725 2.31404625,28.1449899 2.21335106,21.8337673 C2.21569827,16.4477111 6.81625767,11.9622228 12.3469482,11.9536348 Z M36.9233598,7.75108345 C37.967431,8.76138035 38.3304433,10.7192814 37.1300146,12.0765822 C36.2573565,13.0632779 35.4296642,14.0890984 34.5821213,15.0976668 C34.5401398,15.1476282 34.5001702,15.1992849 34.4501077,15.2615787 C34.7828075,15.5466544 35.1075604,15.8248492 35.4322462,16.1031105 C37.1355808,17.5630598 38.8334833,19.029325 40.5445973,20.4802659 C41.3542161,21.1667945 41.740667,22.0385757 41.7626636,23.0734378 C41.7801,23.892 41.3943869,24.554462 40.8449392,25.1302311 C39.6840777,26.3466229 38.0087083,26.4505678 36.7263955,25.360459 C34.9197838,23.8246203 33.1319497,22.2670751 31.3361016,20.7188374 C31.049977,20.4721551 30.7637519,20.2256058 30.4605598,19.964364 C30.2069608,20.2631018 29.9568156,20.5508701 29.7180041,20.8475802 C29.6868868,20.8862396 29.7021436,20.9738964 29.7162269,21.0341625 L30.3224918,23.5744477 C30.4212459,23.998294 30.5167139,24.4228161 30.6056842,24.848679 C30.8602221,26.0672647 30.5571977,27.1614621 29.5717731,27.9637362 C27.9797296,29.2597736 25.3733573,28.6932787 24.7088294,26.4656261 C24.5856514,26.0526884 24.4826006,25.633784 24.3858999,25.2130597 L24.1010705,23.9495736 L24.1010705,23.9495736 C23.2308937,20.210049 22.3811712,16.4656712 21.4861141,12.7319971 C21.1124052,11.1730225 22.2305141,9.45229671 23.7097575,9.12407404 C25.2996885,8.7712862 27.0176094,9.5855603 27.4508367,11.4074055 C27.5903279,11.9940446 27.7359553,12.5792542 27.8790679,13.165029 C27.8865119,13.1955111 27.8966049,13.2253283 27.9155167,13.2898825 C28.3674882,12.7565623 28.7950152,12.2526604 29.2219051,11.7482598 C30.2992061,10.4754247 31.3883101,9.21219621 32.4500525,7.9266962 C33.6123894,6.51946727 35.5821992,6.45335071 36.9233598,7.75108345 Z M12.370722,17.1219504 C8.96281208,17.1451094 7.41435957,19.7858493 7.41616868,21.8370582 C7.41878573,24.8410568 9.79711006,26.7158884 12.2778062,26.7124029 C15.1654074,26.7082761 17.0626548,24.393831 17.0853892,21.8783436 C17.0762351,18.9469103 14.5708933,17.1071481 12.370722,17.1219504 Z M38.1805205,2 C38.3553204,2.03104719 38.5311932,2.05697525 38.7047189,2.09387288 C40.3409234,2.44197373 41.6796027,3.8148646 41.9479555,5.44976187 C42.0009689,5.77256623 42.0003653,6.11458396 41.9590545,6.439549 C41.8963505,6.93191625 41.4692929,7.15971754 41.0026682,6.9761934 C40.7075907,6.8601487 40.423411,6.71671334 40.1355763,6.58291789 C39.1450214,6.12239562 38.0904883,5.85626734 37.0377324,5.587513 C35.8472625,5.28358958 34.637512,5.07559999 33.417635,4.93259676 C31.8402783,4.74770973 30.2565171,4.67693942 28.6679609,4.70775392 C27.2650687,4.73497839 25.863652,4.80830826 24.475346,5.00340031 C23.0067992,5.20979433 21.5404654,5.44487542 20.085197,5.72835557 C17.7842299,6.17657862 15.5276921,6.79898507 13.317696,7.58051669 C10.4036384,8.61105742 7.63571125,9.93033039 5.08134639,11.6738596 C4.58561625,12.0122208 4.07808302,12.3354905 3.55958498,12.6381176 C3.35812755,12.7557246 3.11633169,12.8227387 2.88405878,12.8674147 C2.41089536,12.9584621 2.1865359,12.8283564 2,12.4044658 L2,5.62328043 C2.01582688,5.5314685 2.02970894,5.43925768 2.04771537,5.34787788 C2.36157048,3.7576899 3.31701789,2.72169763 4.84639096,2.19881505 C5.14780588,2.09576762 5.47420179,2.06442126 5.78906285,2 L38.1805205,2 Z" id="Combined-Shape" fill="#FE000C"></path>
    </g>
</svg>