<?xml version="1.0" encoding="UTF-8"?>
<svg width="44px" height="44px" viewBox="0 0 44 44" version="1.1" xmlns="http://www.w3.org/2000/svg" xmlns:xlink="http://www.w3.org/1999/xlink">
    <title>functional button/btn_close_line</title>
    <g id="functional-button/btn_close_line" stroke="none" stroke-width="1" fill="none" fill-rule="evenodd">
        <path d="M22,4.73695157e-15 C9.9,4.73695157e-15 4.73695157e-15,9.9 4.73695157e-15,22 C4.73695157e-15,34.1 9.9,44 22,44 C34.1,44 44,34.1 44,22 C44,9.9 34.1,4.73695157e-15 22,4.73695157e-15 Z" id="Path" fill="#FFFFFF"></path>
        <path d="M22,0 C9.86158,0 0,9.86158 0,22 C0,34.13842 9.86158,44 22,44 C34.13842,44 44,34.13842 44,22 C44,9.86158 34.13842,0 22,0 Z M22,2 C33.05754,2 42,10.94246 42,22 C42,33.05754 33.05754,42 22,42 C10.94246,42 2,33.05754 2,22 C2,10.94246 10.94246,2 22,2 Z" id="btn_close_line" fill="#7BD0CD" fill-rule="nonzero"></path>
        <path d="M13.40625,12.46875 C13.3639549,12.476469 13.3222016,12.4869073 13.28125,12.5 C12.9081406,12.56769 12.6054058,12.8405735 12.4994841,13.2046795 C12.3935623,13.5687854 12.5026747,13.9614789 12.78125,14.21875 L20.5625,22 L12.78125,29.78125 C12.5244382,30.0380292 12.4241318,30.4123144 12.5181181,30.7631056 C12.6121044,31.1138968 12.8861032,31.3878956 13.2368944,31.4818819 C13.5876856,31.5758682 13.9619708,31.4755618 14.21875,31.21875 L22,23.4375 L29.78125,31.21875 C30.0380292,31.4755618 30.4123144,31.5758682 30.7631056,31.4818819 C31.1138968,31.3878956 31.3878956,31.1138968 31.4818819,30.7631056 C31.5758682,30.4123144 31.4755618,30.0380292 31.21875,29.78125 L23.4375,22 L31.21875,14.21875 C31.5414129,13.9182689 31.6292312,13.4419349 31.4349346,13.0461457 C31.2406381,12.6503565 30.8100727,12.4285018 30.375,12.5 C30.1510584,12.5242116 29.9418473,12.6233116 29.78125,12.78125 L22,20.5625 L14.21875,12.78125 C14.0098355,12.5584928 13.7105909,12.4433987 13.40625,12.46875 L13.40625,12.46875 Z" id="Path" fill="#7BD0CD" fill-rule="nonzero"></path>
    </g>
</svg>