<?xml version="1.0" encoding="UTF-8"?>
<svg width="44px" height="44px" viewBox="0 0 44 44" version="1.1" xmlns="http://www.w3.org/2000/svg" xmlns:xlink="http://www.w3.org/1999/xlink">
    <title>ico_money_circle</title>
    <g id="ico_money_circle" stroke="none" stroke-width="1" fill="none" fill-rule="evenodd">
        <path d="M22,2 C10.971375,2 2,10.971375 2,22 C2,33.028625 10.971375,42 22,42 C33.028625,42 42,33.028625 42,22 C42,10.971375 33.02875,2 22,2 Z M21.333375,20.66675 L22.66675,20.66675 C25.239625,20.66675 27.333375,22.7605 27.333375,25.333375 C27.333375,27.678125 25.589125,29.605875 23.333375,29.932625 L23.333375,31.333375 C23.333375,32.070375 22.737,32.66675 22,32.66675 C21.263,32.66675 20.666625,32.070375 20.666625,31.333375 L20.666625,30 L18,30 C17.263,30 16.666625,29.403625 16.666625,28.666625 C16.666625,27.929625 17.263,27.33325 18,27.33325 L22.666625,27.33325 C23.7695,27.33325 24.666625,26.436125 24.666625,25.33325 C24.666625,24.230375 23.7695,23.33325 22.666625,23.33325 L21.333375,23.33325 C18.7605,23.33325 16.66675,21.2395 16.66675,18.666625 C16.66675,16.321875 18.411,14.394125 20.66675,14.067375 L20.66675,12.666625 C20.66675,11.929625 21.263125,11.33325 22.000125,11.33325 C22.737125,11.33325 23.3335,11.929625 23.3335,12.666625 L23.3335,14 L26.000125,14 C26.737125,14 27.3335,14.596375 27.3335,15.333375 C27.3335,16.070375 26.737125,16.66675 26.000125,16.66675 L21.333375,16.66675 C20.2305,16.66675 19.333375,17.563875 19.333375,18.66675 C19.333375,19.769625 20.2305,20.66675 21.333375,20.66675 Z" id="Shape" fill="#4A4A4A"></path>
    </g>
</svg>