<?xml version="1.0" encoding="UTF-8"?>
<svg width="44px" height="44px" viewBox="0 0 44 44" version="1.1" xmlns="http://www.w3.org/2000/svg" xmlns:xlink="http://www.w3.org/1999/xlink">
    <title>convenience_store/ico_store_711</title>
    <g id="convenience_store/ico_store_711" stroke="none" stroke-width="1" fill="none" fill-rule="evenodd">
        <rect id="Rectangle" fill="#FFFFFF" x="3" y="3" width="37" height="39"></rect>
        <path d="M39.2442,2.0676 C40.2985618,2.0676 41.1623651,2.88347779 41.2387143,3.91833766 L41.2442,4.0676 L41.2442,40.788 C41.2442,41.8423618 40.4283222,42.7061651 39.3934623,42.7825143 L39.2442,42.788 L4,42.788 C2.9456382,42.788 2.08183488,41.9721222 2.00548574,40.9372623 L2,40.788 L2,4.0676 C2,3.0132382 2.81587779,2.14943488 3.85073766,2.07308574 L4,2.0676 L39.2442,2.0676 Z M36.056,5.3968 L7.2738,5.3968 C6.46478889,5.3968 5.80063457,6.04562284 5.72933659,6.8735345 L5.723,7.0214 L8.7016,37.165 C8.7016,38.0086706 9.20261592,38.7028159 9.84265239,38.7815608 L9.9642,38.789 L17.0878,38.789 L17.0878,40.3184 L26.5012,40.3184 L26.5012,38.7908 L33.3986,38.789 C34.0544118,38.789 34.5943592,38.1444824 34.6556131,37.3213222 L34.6614,37.165 L37.6076,7.0214 C37.6076,6.1242 36.9126,5.3968 36.056,5.3968 Z M28.5176,31.0256 C28.8208,31.0256 29.0798,31.1322 29.2934,31.3444 C29.508,31.5572 29.615,31.815 29.615,32.117 C29.615,32.4202 29.508,32.6792 29.2934,32.8938 C29.0798,33.1084 28.8208,33.216 28.5176,33.216 C28.214,33.216 27.9552,33.1084 27.7426,32.8938 C27.5306,32.6804 27.4244,32.4212 27.4244,32.117 C27.4244,31.8166 27.5318,31.5588 27.7462,31.3444 C27.9586,31.1322 28.2158,31.0256 28.5176,31.0256 Z M28.5172,31.176 C28.2572,31.176 28.0344,31.2682 27.8498,31.4528 C27.6662,31.6366 27.5752,31.8586 27.5752,32.1184 C27.5752,32.381 27.6656,32.6042 27.8494,32.7886 C28.0322,32.9736 28.2552,33.0658 28.5172,33.0658 C28.7798,33.0658 29.002,32.9736 29.1864,32.7886 C29.3696,32.6042 29.461,32.381 29.461,32.1184 C29.461,31.8586 29.3696,31.6366 29.1864,31.4528 C29.0008,31.2682 28.7782,31.176 28.5172,31.176 Z M28.4978,31.5122 C28.6474,31.5122 28.7576,31.527 28.8262,31.5554 C28.951,31.6072 29.0138,31.7092 29.0138,31.8604 C29.0138,31.9676 28.9748,32.0474 28.897,32.0978 C28.856,32.1248 28.7978,32.1442 28.724,32.1556 C28.8164,32.1706 28.8844,32.2102 28.927,32.274 C28.9708,32.3374 28.993,32.3994 28.993,32.4602 L28.993,32.5482 C28.993,32.576 28.993,32.6056 28.9954,32.6374 C28.997,32.6688 29.0008,32.6904 29.006,32.7 L29.0138,32.7154 L28.8158,32.7154 L28.8134,32.7036 C28.8126,32.6994 28.8118,32.6944 28.8102,32.6898 L28.8068,32.6512 L28.8068,32.5562 C28.8068,32.4174 28.768,32.3258 28.6922,32.281 C28.6466,32.255 28.5676,32.2424 28.4552,32.2424 L28.2868,32.2424 L28.2868,32.7154 L28.0762,32.7154 L28.0762,31.5122 L28.4978,31.5122 Z M28.4696,31.6624 L28.2868,31.6624 L28.2868,32.0922 L28.4802,32.0922 C28.5712,32.0922 28.6388,32.0836 28.684,32.0664 C28.768,32.0336 28.8094,31.9718 28.8094,31.8802 C28.8094,31.7944 28.7826,31.736 28.729,31.7066 C28.6748,31.6774 28.589,31.6624 28.4696,31.6624 Z M13.3992,24.5658 L13.3992,25.7742 L12.063,25.7742 L12.063,26.792 L13.3992,26.792 L13.3992,27.8096 L12.063,27.8096 L12.063,28.8272 L13.3992,28.8272 L13.3992,29.9932 L10.3464,29.9932 L10.3464,24.5658 L13.3992,24.5658 Z M20.5018,24.5658 L20.5018,25.7742 L19.1658,25.7742 L19.1658,26.792 L20.5018,26.792 L20.5018,27.8096 L19.1658,27.8096 L19.1658,28.8272 L20.5018,28.8272 L20.5018,29.9932 L17.4488,29.9932 L17.4488,24.5658 L20.5018,24.5658 Z M28.3252,24.5658 L28.3252,25.7742 L26.9888,25.7742 L26.9888,26.792 L28.3252,26.792 L28.3252,27.8096 L26.9888,27.8096 L26.9888,28.8272 L28.3252,28.8272 L28.3252,29.9932 L25.2724,29.9932 L25.2724,24.5658 L28.3252,24.5658 Z M15.6888,24.5658 L15.6888,28.8272 L17.0246,28.8272 L17.0246,29.9932 L13.9718,29.9932 L13.9718,24.5658 L15.6888,24.5658 Z M22.313,24.5658 L22.9606,28.2334 L23.629,24.5658 L24.906,24.5658 L23.8724,29.9932 L21.6648,29.9932 L20.8134,24.5658 L22.313,24.5658 Z M30.6994,24.5658 L30.6994,29.9932 L29.0458,29.9932 L29.0458,24.5658 L30.6994,24.5658 Z M30.7098,24.8838 C31.9086,24.0252 33.286,24.4174 33.286,25.3926 L33.286,25.3926 L33.286,29.9932 L31.6326,29.9932 L31.6326,26.0816 C31.6326,25.7424 30.7848,25.5836 30.6994,26.1774 L30.6994,26.1774 Z" id="Combined-Shape" fill="#006546"></path>
        <path d="M10.9606,9.8096 L30.2334,9.8096 C28.3356,10.5212 22.5586,14.4312 21.1158,17.0602 L10.9824,17.0602 L10.9606,9.8096" id="Fill-4" fill="#FF6600"></path>
        <path d="M26.3204,30.586 C26.0458,33.2116 26.0356,36.4094 26.0356,39.767 L17.682,39.767 C17.682,36.4094 17.8192,33.2116 18.0938,30.586 L26.3204,30.586 Z M32.8626,9.428 L32.8626,17.4422 C30.1064,18.3324 27.2648,21.7246 27.0958,23.8022 L27.0958,23.8022 L19.2868,23.7818 C20.3524,17.9508 25.283,12.82 32.8626,9.428 L32.8626,9.428 Z" id="Combined-Shape" fill="#FE000C"></path>
    </g>
</svg>