<?xml version="1.0" encoding="UTF-8"?>
<svg width="44px" height="44px" viewBox="0 0 44 44" version="1.1" xmlns="http://www.w3.org/2000/svg" xmlns:xlink="http://www.w3.org/1999/xlink">
    <title>convenience_store/ico_store_fam</title>
    <g id="convenience_store/ico_store_fam" stroke="none" stroke-width="1" fill="none" fill-rule="evenodd">
        <g id="Group" transform="translate(2.000000, 2.000000)">
            <rect id="rect2454" fill="#FFFFFF" x="-4.26325641e-14" y="11.4838609" width="39.5366795" height="18.4606702"></rect>
            <path d="M20.2577452,19.6942848 L20.9553629,21.5456548 L21.5993177,19.6942848 L22.6189129,19.6942848 L21.0358573,23.9873169 L19.9894307,23.9873169 L20.4723968,22.7799016 L19.1844872,19.6942848 L20.2577452,19.6942848 Z M9.04219886,19.6406219 C10.1959512,19.6406219 10.4642657,20.2845767 10.4642657,20.8212057 L10.4642657,20.8212057 L10.4642657,22.4042613 C10.4642657,22.806733 10.5715915,22.9945532 10.6520859,23.1287104 L10.6520859,23.1287104 L9.63249077,23.1287104 C9.60565932,23.0750475 9.57882787,22.9945532 9.55199642,22.8872274 C9.36417627,23.0213846 9.09586176,23.1287104 8.77388435,23.1287104 C8.26408679,23.1287104 7.62013198,22.806733 7.62013198,22.028621 C7.62013198,21.2236774 8.21042389,20.8212057 8.98853596,20.8212057 C9.17635611,20.8212057 9.36417627,20.8480371 9.52516497,20.9017 L9.52516497,20.9017 L9.52516497,20.8748686 C9.52516497,20.5260597 9.23001901,20.4187339 8.90804161,20.4187339 C8.55923275,20.4187339 8.26408679,20.4992283 7.96894083,20.6870484 L7.96894083,20.6870484 L7.96894083,19.828442 C8.21042389,19.7479477 8.5860642,19.6406219 9.04219886,19.6406219 Z M29.2194497,19.6406219 C30.3732021,19.6406219 30.6415166,20.2845767 30.6415166,20.8212057 L30.6415166,20.8212057 L30.6415166,22.4042613 C30.6415166,22.806733 30.7488424,22.9945532 30.8293368,23.1287104 L30.8293368,23.1287104 L29.8097416,23.1287104 C29.7829102,23.0750475 29.7560787,22.9945532 29.7292473,22.8872274 C29.5414271,23.0213846 29.2731126,23.1287104 28.9511352,23.1287104 C28.4413377,23.1287104 27.7973828,22.8335645 27.7973828,22.028621 C27.7973828,21.2236774 28.3876748,20.8212057 29.1657868,20.8212057 C29.353607,20.8212057 29.5414271,20.8480371 29.7024158,20.9017 L29.7024158,20.9017 L29.7024158,20.8748686 C29.7024158,20.5260597 29.4072699,20.4187339 29.0852925,20.4187339 C28.7364836,20.4187339 28.4413377,20.4992283 28.1461917,20.6870484 L28.1461917,20.6870484 L28.1461917,19.828442 C28.3876748,19.7479477 28.7633151,19.6406219 29.2194497,19.6406219 Z M34.9077173,18.4063751 L34.9077173,19.6942848 L35.7126608,19.6942848 L35.7126608,20.5797226 L34.9077173,20.5797226 L34.9077173,21.733475 C34.9077173,21.9749581 35.0150431,22.2164411 35.310189,22.2164411 C35.4980092,22.2164411 35.6321664,22.1896097 35.7394922,22.0822839 L35.7394922,22.0822839 L35.7394922,23.0213846 C35.5785035,23.101879 35.3638519,23.1287104 35.1223689,23.1287104 C34.2905939,23.1287104 33.9954479,22.56525 33.9954479,21.8676323 L33.9954479,21.8676323 L33.9954479,20.5797226 L33.4856504,20.5797226 L33.4856504,19.6942848 L33.9954479,19.6942848 L33.9954479,18.8088469 L34.9077173,18.4063751 Z M7.56646907,18.218555 L7.56646907,19.1576557 L5.47361593,19.1576557 L5.47361593,20.0162622 L7.53963762,20.0162622 L7.53963762,20.9553629 L5.47361593,20.9553629 L5.47361593,23.101879 L4.48085225,23.101879 L4.48085225,18.218555 L7.56646907,18.218555 Z M14.5963091,19.6674533 C15.3207583,19.6674533 15.7232301,20.0967565 15.6695672,20.6870484 L15.6695672,20.6870484 L15.6695672,23.0482161 L14.7304664,23.0482161 L14.7304664,21.0358573 C14.7304664,20.7138799 14.5963091,20.4992283 14.3011632,20.4992283 C14.0865116,20.4992283 13.9255229,20.6065541 13.8181971,20.7407113 L13.8181971,20.7407113 L13.8181971,23.0750475 L12.8790963,23.0750475 L12.8790963,21.0626887 C12.8790963,20.7138799 12.7181076,20.5260597 12.4497931,20.5260597 C12.2351415,20.5260597 12.0741528,20.660217 11.966827,20.7943742 L11.966827,20.7943742 L11.966827,23.101879 L11.0277262,23.101879 L11.0277262,19.6942848 L11.8863326,19.6942848 L11.8863326,19.9894307 C12.1546471,19.7479477 12.4497931,19.6674533 12.744939,19.6674533 C13.1205794,19.6674533 13.4425568,19.828442 13.6303769,20.0699251 C13.8986914,19.7747791 14.1938374,19.6674533 14.5963091,19.6674533 Z M18.8625098,18.218555 L18.8625098,23.101879 L17.923409,23.101879 L17.923409,18.218555 L18.8625098,18.218555 Z M17.2794542,19.6942848 L17.2794542,23.101879 L16.3403534,23.101879 L16.3403534,19.6942848 L17.2794542,19.6942848 Z M32.868527,19.6406219 C33.0295157,19.6406219 33.2173359,19.6942848 33.3246617,19.7747791 L33.3246617,19.7747791 L33.3246617,20.7943742 C33.2173359,20.7407113 33.0295157,20.6333855 32.7880327,20.6333855 C32.4660552,20.6333855 32.2514036,20.7943742 32.1172464,20.9553629 L32.1172464,20.9553629 L32.1172464,23.101879 L31.1781456,23.101879 L31.1781456,19.6942848 L32.0635835,19.6942848 L32.0635835,20.0430936 C32.2782351,19.7479477 32.5733811,19.6406219 32.868527,19.6406219 Z M23.9068225,18.1917235 L25.1410692,19.7211162 L26.375316,18.1917235 L27.3949111,18.1917235 L27.3949111,23.0750475 L26.375316,23.0750475 L26.375316,19.6942848 L25.1410692,21.3310032 L23.9068225,19.6942848 L23.9068225,23.0750475 L22.8872274,23.0750475 L22.8872274,18.1917235 L23.9068225,18.1917235 Z M9.14952466,21.4651605 C8.82754725,21.4651605 8.5860642,21.6529806 8.5860642,21.9212952 C8.5860642,22.1627782 8.7470529,22.3505984 9.06903031,22.3505984 C9.28368191,22.3505984 9.44467062,22.2432726 9.55199642,22.1627782 L9.55199642,22.1627782 L9.55199642,21.5724863 C9.44467062,21.4919919 9.31051336,21.4651605 9.14952466,21.4651605 Z M29.2999441,21.4651605 C28.9779667,21.4651605 28.7364836,21.6529806 28.7364836,21.9212952 C28.7364836,22.1627782 28.9243038,22.3505984 29.2194497,22.3505984 C29.4609328,22.3505984 29.6219215,22.2432726 29.7024158,22.1627782 L29.7024158,22.1627782 L29.7024158,21.5724863 C29.59509,21.4919919 29.4609328,21.4651605 29.2999441,21.4651605 Z M16.8233195,18.1380606 C17.1452969,18.1380606 17.4136115,18.4063751 17.4404429,18.755184 C17.4404429,19.1039928 17.1452969,19.3723073 16.8233195,19.3723073 C16.4745107,19.3723073 16.2061962,19.1039928 16.2061962,18.755184 C16.2061962,18.4063751 16.5013421,18.1380606 16.8233195,18.1380606 Z" id="Combined-Shape" fill="#0994DD" fill-rule="nonzero"></path>
            <path d="M-7.10542736e-15,39.5495582 L39.5495582,39.5495582 L39.5495582,31.8365731 C39.5495582,30.7320036 38.6541277,29.8365731 37.5495582,29.8365731 L2,29.8365731 C0.8954305,29.8365731 -7.24069811e-15,30.7320036 -7.10542736e-15,31.8365731 L-7.10542736e-15,39.5495582 L-7.10542736e-15,39.5495582 Z" id="path8303" fill="#0994DD" fill-rule="nonzero" transform="translate(19.774779, 34.693066) scale(-1, 1) rotate(-180.000000) translate(-19.774779, -34.693066) "></path>
            <path d="M2,11.4838609 L37.5495582,11.4838609 C38.6541277,11.4838609 39.5495582,10.5884304 39.5495582,9.48386087 L39.5495582,-3.55271368e-15 L39.5495582,-3.55271368e-15 L-7.10542736e-15,-3.55271368e-15 L-7.10542736e-15,9.48386087 C-6.97015661e-15,10.5884304 0.8954305,11.4838609 2,11.4838609 Z" id="path8301" fill="#19AE48" fill-rule="nonzero" transform="translate(19.774779, 5.741930) scale(-1, 1) rotate(-180.000000) translate(-19.774779, -5.741930) "></path>
        </g>
    </g>
</svg>