<?xml version="1.0" encoding="UTF-8"?>
<svg width="44px" height="44px" viewBox="0 0 44 44" version="1.1" xmlns="http://www.w3.org/2000/svg" xmlns:xlink="http://www.w3.org/1999/xlink">
    <title>functional button/ico_check_ok</title>
    <g id="functional-button/ico_check_ok" stroke="none" stroke-width="1" fill="none" fill-rule="evenodd">
        <path d="M21.9991519,0.267951551 C9.99712462,0.267951551 0.267951551,9.99712462 0.267951551,21.9991519 C0.267951551,34.0011792 9.99712462,43.7320484 21.9991519,43.7320484 C34.0011792,43.7320484 43.7320484,34.0011792 43.7320484,21.9991519 C43.7320484,9.99712462 34.0011792,0.267951551 21.9991519,0.267951551 Z M33.4244849,15.273878 L21.7701703,32.4593699 C21.4207614,32.9733063 20.8745979,33.3142345 20.3318268,33.3142345 C19.7890556,33.3142345 19.1869188,33.0174065 18.8052829,32.6374667 L11.9663662,25.7968539 C11.5016184,25.3304099 11.5016184,24.5722265 11.9663662,24.1074786 L13.6557415,22.4147111 C14.1204893,21.9533556 14.8803689,21.9533556 15.3434206,22.4147111 L19.7924479,26.8637385 L29.46904,12.5922492 C29.8371067,12.0494781 30.5834171,11.9086968 31.1295805,12.2750673 L33.107303,13.6167298 C33.6500741,13.9847965 33.7925516,14.7311068 33.4244849,15.273878 Z" id="ico_check_ok" fill="#B4E285"></path>
    </g>
</svg>