<?xml version="1.0" encoding="UTF-8"?>
<svg width="44px" height="44px" viewBox="0 0 44 44" version="1.1" xmlns="http://www.w3.org/2000/svg" xmlns:xlink="http://www.w3.org/1999/xlink">
    <title>img_money_id</title>
    <g id="img_money_id" stroke="none" stroke-width="1" fill="none" fill-rule="evenodd">
        <path d="M35.7839462,7.7 C38.4947158,7.7 40.7,9.90528522 40.7,12.6160548 L40.7,12.6160548 L40.7,30.5503521 C40.7,33.2611217 38.4947158,35.466407 35.7839462,35.466407 L35.7839462,35.466407 L8.21605483,35.466407 C5.50528522,35.466407 3.3,33.2611217 3.3,30.5503521 L3.3,30.5503521 L3.3,12.6160548 C3.3,9.90528522 5.50528522,7.7 8.21605483,7.7 L8.21605483,7.7 Z M28.4281257,27.5000005 L22.0000005,27.5000005 C21.3951724,27.5000005 20.9042974,27.9908755 20.9042974,28.5957037 C20.9042974,29.2005318 21.3951724,29.6914068 22.0000005,29.6914068 L22.0000005,29.6914068 L28.4281257,29.6914068 C29.0329538,29.6914068 29.5238289,29.2005318 29.5238289,28.5957037 C29.5238289,27.9908755 29.0329538,27.5000005 28.4281257,27.5000005 L28.4281257,27.5000005 Z M11.977969,13.5078712 C11.3724104,13.5078712 10.8822658,13.9980158 10.8822658,14.6035744 L10.8822658,14.6035744 L10.8822658,15.1506955 C8.15323451,15.9030783 7.52795324,19.4502347 9.41475408,20.9301644 C9.79971112,21.231848 10.2650197,21.5094261 10.8822658,21.7957699 L10.8822658,21.7957699 L10.8822658,25.8316099 C10.4980393,25.7600239 10.1824768,25.6088169 9.70548065,25.2961762 C9.19926579,24.9652739 8.51992983,25.1069848 8.18902748,25.6139302 C7.85739466,26.120145 7.9991056,26.799481 8.50605093,27.1303833 C9.40671892,27.7198716 10.0692541,27.955813 10.8822658,28.0405474 L10.8822658,28.0405474 L10.8822658,28.5745201 C10.8822658,29.1793482 11.3724104,29.6702232 11.977969,29.6702232 C12.5827971,29.6702232 13.0736721,29.1793482 13.0736721,28.5745201 L13.0736721,28.5745201 L13.0736721,27.9360904 C16.6442035,26.9704107 17.3147738,21.828641 13.5360589,20.4933441 C13.3833909,20.4392894 13.2285315,20.3837738 13.0736721,20.3260667 L13.0736721,20.3260667 L13.0736721,17.3691291 C13.3220315,17.4808909 13.4666643,17.5999573 13.4666643,17.5999573 C13.66243,17.781844 13.9239378,17.8943362 14.212473,17.8943362 C15.2139456,17.8943362 15.6836371,16.6620354 14.9502464,15.991465 C14.9633949,15.9775861 14.2336566,15.3223557 13.0736721,15.0761877 L13.0736721,15.0761877 L13.0736721,14.6035744 C13.0736721,13.9980158 12.5827971,13.5078712 11.977969,13.5078712 Z M13.0736721,22.6737934 C14.2782152,23.2873871 14.0400823,24.8659301 13.0736721,25.5489184 L13.0736721,25.5489184 Z M34.8562509,22.8250004 L22.0000005,22.8250004 C21.3951724,22.8250004 20.9042974,23.3158754 20.9042974,23.9207035 C20.9042974,24.5255317 21.3951724,25.0164067 22.0000005,25.0164067 L22.0000005,25.0164067 L34.8562509,25.0164067 C35.461079,25.0164067 35.951954,24.5255317 35.951954,23.9207035 C35.951954,23.3158754 35.461079,22.8250004 34.8562509,22.8250004 L34.8562509,22.8250004 Z M34.8562509,18.1500003 L22.0000005,18.1500003 C21.3951724,18.1500003 20.9042974,18.6408753 20.9042974,19.2457034 C20.9042974,19.8505316 21.3951724,20.3414066 22.0000005,20.3414066 L22.0000005,20.3414066 L34.8562509,20.3414066 C35.461079,20.3414066 35.951954,19.8505316 35.951954,19.2457034 C35.951954,18.6408753 35.461079,18.1500003 34.8562509,18.1500003 L34.8562509,18.1500003 Z M10.8822658,17.6109143 L10.8822658,19.2909925 C10.8420901,19.2625042 10.8033752,19.2347464 10.7668518,19.2055276 C10.4293752,18.9410979 10.4133049,18.1295471 10.8822658,17.6109143 L10.8822658,17.6109143 Z M34.8562509,13.4750001 L28.4281257,13.4750001 C27.8232976,13.4750001 27.3324225,13.9658751 27.3324225,14.5707033 C27.3324225,15.1755314 27.8232976,15.6664064 28.4281257,15.6664064 L28.4281257,15.6664064 L34.8562509,15.6664064 C35.461079,15.6664064 35.951954,15.1755314 35.951954,14.5707033 C35.951954,13.9658751 35.461079,13.4750001 34.8562509,13.4750001 L34.8562509,13.4750001 Z" id="Combined-Shape" fill="#4A4A4A"></path>
    </g>
</svg>