<?xml version="1.0" encoding="UTF-8"?>
<svg width="44px" height="44px" viewBox="0 0 44 44" version="1.1" xmlns="http://www.w3.org/2000/svg" xmlns:xlink="http://www.w3.org/1999/xlink">
    <title>functional button/ico_add</title>
    <g id="functional-button/ico_add" stroke="none" stroke-width="1" fill="none" fill-rule="evenodd">
        <circle id="Oval" fill="#FFFFFF" cx="22" cy="22" r="20.9"></circle>
        <path d="M20.5612391,20.5612391 L20.56186,11.825 C20.56186,11.0658434 21.1777034,10.45 21.93686,10.45 C22.6960166,10.45 23.31186,11.0658434 23.31186,11.8250391 L23.3112391,20.5612391 L32.0485,20.56186 C32.8076566,20.56186 33.4235,21.1777034 33.4235,21.93686 C33.4235,22.6960166 32.8076566,23.31186 32.0484609,23.31186 L23.3112391,23.3112391 L23.31186,32.0485 C23.31186,32.8076566 22.6960166,33.4235 21.93686,33.4235 C21.1777034,33.4235 20.56186,32.8076566 20.56186,32.0485391 L20.5612391,23.3112391 L11.825,23.31186 C11.0658434,23.31186 10.45,22.6960166 10.45,21.93686 C10.45,21.1777034 11.0658434,20.56186 11.8249609,20.56186 L20.5612391,20.5612391 Z" id="Path" fill="#4A4A4A"></path>
    </g>
</svg>