<?xml version="1.0" encoding="UTF-8"?>
<svg width="44px" height="44px" viewBox="0 0 44 44" version="1.1" xmlns="http://www.w3.org/2000/svg" xmlns:xlink="http://www.w3.org/1999/xlink">
    <title>menber_men/ico_not_found_bg</title>
    <g id="menber_men/ico_not_found_bg" stroke="none" stroke-width="1" fill="none" fill-rule="evenodd">
        <path d="M33.1056353,3.71372542 L33.1261284,3.73094427 C33.1329601,3.73646228 33.1396725,3.74211975 33.1462613,3.74791199 L38.841457,9.44242826 C38.9593341,9.56030541 39.020742,9.71206415 39.0256805,9.86644469 L39.0260044,9.89456954 L39.0260044,37.5951435 C39.0260044,37.8185777 38.9870235,38.0331142 38.915508,38.2323064 L42.1725386,38.2318322 C42.5231788,38.2318322 42.8,38.5086534 42.8,38.8592936 C42.8,39.2099338 42.5231788,39.486755 42.1725386,39.486755 L13.8352759,39.486755 C12.7925828,39.486755 11.9436645,38.6378366 11.9436645,37.5951435 L11.9436645,37.5951435 L11.943522,35.5290643 C10.8280681,35.2290124 9.79952747,34.6547684 8.94559528,33.8484261 L2.13496689,39.412936 C1.97810155,39.5421192 1.78432671,39.5882561 1.59977925,39.560574 C1.43368653,39.5421192 1.26759382,39.4590728 1.15686534,39.3114349 C0.916953642,39.0161589 0.963090508,38.5824724 1.25836645,38.3333333 L8.03151434,32.8001579 C7.14984265,31.5644574 6.69240981,30.0832067 6.73019868,28.5338631 C6.77633554,26.6422517 7.55143488,24.8890508 8.92631347,23.5879912 C9.79189232,22.7633519 10.8279889,22.1833684 11.9523702,21.8809342 L11.9528918,9.57161148 C11.9528918,9.23019868 12.2389404,8.94415011 12.5803532,8.94415011 C12.921766,8.94415011 13.2078146,9.2209713 13.2078146,9.57161148 L13.2078146,9.57161148 L13.2072347,21.6629191 C13.4602918,21.6421416 13.7160477,21.6347316 13.9736865,21.6410155 C15.8560706,21.6871523 17.6184989,22.4622517 18.9195585,23.8371302 C20.148337,25.1269119 20.8338967,26.7953007 20.8674108,28.5702299 L20.8665342,28.8845033 C20.8203974,30.7761148 20.045298,32.5293157 18.6704194,33.8303753 C17.2955408,35.1314349 15.5146578,35.8234879 13.6230464,35.777351 C13.4844877,35.7670874 13.3459291,35.7568238 13.2073705,35.7449729 L13.2078146,37.5951435 C13.2078146,37.9365563 13.4846358,38.2226049 13.8352759,38.2226049 L13.8352759,38.2226049 L37.1436203,38.2226049 C37.4850331,38.2226049 37.7710817,37.9457837 37.7710817,37.5951435 L37.7710817,37.5951435 L37.7701143,10.5211727 L32.732936,10.5220309 C32.3822958,10.5220309 32.1054746,10.2452097 32.1054746,9.89456954 L32.1051143,4.84717268 L13.8352759,4.84719647 C13.4846358,4.84719647 13.2078146,5.13324503 13.2078146,5.47465784 L13.2078146,6.52657837 C13.2078146,6.87721854 12.921766,7.16326711 12.5803532,7.16326711 C12.229713,7.16326711 11.9528918,6.87721854 11.9528918,6.53580574 L11.9528918,5.48388521 C11.9528918,4.44119205 12.8018102,3.59227373 13.8445033,3.59227373 L32.6663374,3.59190821 C32.8210784,3.5746384 32.9800075,3.61758722 33.1056353,3.71372542 Z M13.936777,22.9328477 C12.3958057,22.8959382 10.9286534,23.4588079 9.81214128,24.5199558 C8.69562914,25.5811038 8.0589404,27.020574 8.02203091,28.5615453 C7.93898455,31.744989 10.4672848,34.4024724 13.6507285,34.4762914 C15.1916998,34.5132009 16.6588521,33.9503311 17.7753642,32.8891832 C18.8261992,31.8904558 19.4520003,30.5566055 19.5527595,29.1184199 L19.5654746,28.8475938 C19.6023841,27.3066225 19.0395143,25.8394702 17.9783664,24.7229581 C17.0556291,23.7540839 15.8560706,23.1450773 14.5457837,22.9789845 C14.3427815,22.9513024 14.1397792,22.9328477 13.936777,22.9328477 Z M13.7799117,23.9478286 C16.4004857,23.9386313 18.5412362,26.0516998 18.5504936,28.6815011 C18.5596909,31.3020751 16.4373951,33.4428256 13.8168212,33.452083 C11.1962472,33.4612804 9.05549669,31.3389845 9.04623934,28.7184106 C9.03704194,26.0978366 11.1593377,23.9570861 13.7799117,23.9478286 Z M12.3958057,26.5130684 C12.1928035,26.3008389 11.8513907,26.3008389 11.6483885,26.5130684 C11.4361589,26.7160706 11.4361589,27.0574834 11.6483885,27.2604857 L11.6483885,27.2604857 L13.069404,28.6907285 L11.6391611,30.1117439 C11.4269316,30.3147461 11.4269316,30.6561589 11.6391611,30.8591611 C11.7406623,30.9606623 11.8698455,31.0160265 12.0082561,31.0160265 C12.1374393,31.0160265 12.2758499,30.9606623 12.377351,30.8683885 L12.377351,30.8683885 L13.8075938,29.4473731 L15.2286093,30.8776159 C15.3301104,30.979117 15.4592936,31.0344812 15.5977042,31.0344812 C15.7268874,31.0344812 15.865298,30.979117 15.9667991,30.8868433 C16.1790287,30.6838411 16.1790287,30.3424283 15.9667991,30.139426 L15.9667991,30.139426 L14.5457837,28.6907285 L15.9944812,27.269713 C16.2067108,27.0667108 16.2067108,26.725298 15.9944812,26.5222958 C15.791479,26.3100662 15.4500662,26.3100662 15.247064,26.5222958 L15.247064,26.5222958 L13.8168212,27.9433113 Z M25.8031788,21.4933775 C27.2887859,21.5026049 28.6636645,22.0285651 29.4756733,22.8959382 C29.715585,23.1543046 29.6971302,23.5510817 29.4387638,23.781766 C29.1803974,24.0216777 28.7836203,24.003223 28.552936,23.7448565 C27.9808389,23.1358499 26.9289183,22.7483002 25.8031788,22.7483002 C24.6589845,22.7483002 23.5978366,23.1358499 23.0349669,23.7540839 C22.8042826,24.0124503 22.4075055,24.0309051 22.1491391,23.8002208 C21.8907726,23.5695364 21.8723179,23.1727594 22.1030022,22.9143929 C22.915011,22.0193377 24.299117,21.4933775 25.8031788,21.4933775 Z M20.1375717,15.7724062 C20.8296247,15.7724062 21.3924945,16.3352759 21.3924945,17.0273289 C21.3924945,17.7193819 20.8296247,18.2822517 20.1375717,18.2822517 C19.4455188,18.2822517 18.8734216,17.7193819 18.8734216,17.0273289 C18.8734216,16.3352759 19.4362914,15.7724062 20.1375717,15.7724062 Z M31.4687859,15.7724062 C32.1608389,15.7724062 32.7237086,16.3352759 32.7237086,17.0273289 C32.7237086,17.7193819 32.1608389,18.2822517 31.4687859,18.2822517 C30.7767329,18.2822517 30.2138631,17.7193819 30.2138631,17.0273289 C30.2138631,16.3352759 30.7767329,15.7724062 31.4687859,15.7724062 Z M33.3603974,5.74225166 L33.3603974,9.25788079 L36.8760265,9.25788079 L33.3603974,5.74225166 Z" id="Combined-Shape" fill="#4A4A4A"></path>
    </g>
</svg>