<?xml version="1.0" encoding="UTF-8"?>
<svg width="44px" height="44px" viewBox="0 0 44 44" version="1.1" xmlns="http://www.w3.org/2000/svg" xmlns:xlink="http://www.w3.org/1999/xlink">
    <title>functional button/ico_question_bk</title>
    <g id="functional-button/ico_question_bk" stroke="none" stroke-width="1" fill="none" fill-rule="evenodd">
        <g id="ico_info" transform="translate(22.000000, 22.000000) scale(1, -1) translate(-22.000000, -22.000000) " fill="#AEAEAE">
            <path d="M22,0 C9.8484386,0 0,9.8484386 0,22 C0,34.1515636 9.8484386,44 22,44 C34.1515636,44 44,34.1515636 44,22 C44,9.8484386 34.1515636,0 22,0 Z" id="Shape"></path>
        </g>
        <path d="M23.5,27.38 L23.5,26.89 C23.5,26.05 23.675,25.28 24.025,24.58 C24.34,23.95 24.795,23.355 25.425,22.865 C27.105,21.395 28.12,20.45 28.435,20.1 C29.275,18.98 29.73,17.545 29.73,15.795 C29.73,13.66 29.03,11.98 27.63,10.755 C26.23,9.495 24.375,8.9 22.1,8.9 C19.51,8.9 17.48,9.635 15.975,11.105 C14.435,12.575 13.7,14.605 13.7,17.195 L17.69,17.195 C17.69,15.69 17.97,14.535 18.565,13.73 C19.265,12.785 20.35,12.33 21.855,12.33 C23.045,12.33 23.99,12.645 24.655,13.31 C25.285,13.975 25.635,14.885 25.635,16.04 C25.635,16.915 25.32,17.755 24.69,18.525 L24.27,19.015 C21.995,21.045 20.63,22.515 20.175,23.46 C19.685,24.405 19.475,25.56 19.475,26.89 L19.475,27.38 L23.5,27.38 Z M21.47,35.38 C22.24,35.38 22.87,35.135 23.43,34.645 C23.92,34.155 24.2,33.49 24.2,32.72 C24.2,31.95 23.92,31.32 23.43,30.83 C22.905,30.34 22.24,30.095 21.47,30.095 C20.7,30.095 20.07,30.34 19.58,30.83 C19.02,31.32 18.775,31.95 18.775,32.72 C18.775,33.49 19.02,34.12 19.58,34.61 C20.07,35.1 20.7,35.38 21.47,35.38 Z" id="?" fill="#FFFFFF"></path>
    </g>
</svg>