<?xml version="1.0" encoding="UTF-8"?>
<svg width="44px" height="44px" viewBox="0 0 44 44" version="1.1" xmlns="http://www.w3.org/2000/svg" xmlns:xlink="http://www.w3.org/1999/xlink">
    <title>functional_icon/ico_man_gray</title>
    <g id="functional_icon/ico_man_gray" stroke="none" stroke-width="1" fill="none" fill-rule="evenodd">
        <rect id="Rectangle" fill-opacity="0" fill="#FFFFFF" x="0" y="0" width="44" height="44"></rect>
        <path d="M24.3957171,23.8922897 C24.2888075,23.8568339 23.6130579,23.547959 24.0353173,22.2463207 L24.0292658,22.2463207 C25.1299644,21.0967334 25.9711213,19.2468934 25.9711213,17.4256908 C25.9711213,14.6253616 24.1348307,13.1573537 22.0006724,13.1573537 C19.8651693,13.1573537 18.0389645,14.6246798 18.0389645,17.4256908 C18.0389645,19.2543937 18.8754147,21.111734 19.9828371,22.2585939 C20.41451,23.4068175 19.642609,23.8329693 19.481236,23.8922897 C17.2462195,24.7125468 14.6239078,26.2064648 14.6239078,27.6812912 L14.6239078,28.2342658 C14.6239078,30.2436571 18.4659307,30.7004919 22.0215164,30.7004919 C25.5824813,30.7004919 29.3760922,30.2436571 29.3760922,28.2342658 L29.3760922,27.6812912 C29.3760922,26.162145 26.7410051,24.6798183 24.3957171,23.8922897 Z" id="ico_man" fill="#AEAEAE"></path>
    </g>
</svg>