<?xml version="1.0" encoding="UTF-8"?>
<svg width="44px" height="44px" viewBox="0 0 44 44" version="1.1" xmlns="http://www.w3.org/2000/svg" xmlns:xlink="http://www.w3.org/1999/xlink">
    <title>ico_pic_sample</title>
    <g id="ico_pic_sample" stroke="none" stroke-width="1" fill="none" fill-rule="evenodd">
        <g id="Search-results-for-Picture---Flaticon">
            <path d="M22,0 C9.86939628,0 0,9.86939628 0,22 C0,34.1306037 9.86939628,44 22,44 C34.1306037,44 44,34.1306037 44,22 C44,9.86939628 34.1306938,0 22,0 Z" id="Path" fill="#FFFFFF"></path>
            <path d="M22,4.4 C31.704555,4.4 39.6,12.295517 39.6,22 C39.6,31.704483 31.704483,39.6 22,39.6 C12.295517,39.6 4.4,31.704483 4.4,22 C4.4,12.295517 12.295517,4.4 22,4.4 Z M22,8.80001802 C14.7211153,8.80001802 8.80001802,14.7211153 8.80001802,22 C8.80001802,25.6394784 10.2803104,28.9394739 12.6704543,31.3296178 L12.6704543,31.3296178 L26.400018,17.599982 L34.6291809,25.8292169 C34.9976326,24.6162737 35.199982,23.3317731 35.199982,22 C35.199982,14.7211153 29.2788847,8.80001802 22,8.80001802 Z M18.6627346,15.7372654 C19.9124218,16.9869526 19.9124218,19.0130474 18.6627346,20.2627346 C17.4130474,21.5124218 15.3869526,21.5124218 14.1372654,20.2627346 C12.8875782,19.0130474 12.8875782,16.9869526 14.1372654,15.7372654 C15.3869526,14.4875782 17.4130474,14.4875782 18.6627346,15.7372654 Z" id="Combined-Shape" fill="#AEAEAE"></path>
        </g>
    </g>
</svg>