<?xml version="1.0" encoding="UTF-8"?>
<svg width="44px" height="44px" viewBox="0 0 44 44" version="1.1" xmlns="http://www.w3.org/2000/svg" xmlns:xlink="http://www.w3.org/1999/xlink">
    <title>ico_buy_ok</title>
    <g id="ico_buy_ok" stroke="none" stroke-width="1" fill="none" fill-rule="evenodd">
        <path d="M12.946328,35.7333603 C14.8068268,35.7333603 16.3196877,37.2461422 16.3196877,39.106641 C16.3196877,40.9671398 14.8067477,42.4800007 12.946328,42.4800007 C11.0859083,42.4800007 9.57296825,40.9672188 9.57296825,39.10672 C9.57296825,37.2462213 11.0859083,35.7333603 12.946328,35.7333603 Z M33.1863284,35.7333603 C35.0468271,35.7333603 36.5596881,37.2461422 36.5596881,39.106641 C36.5596881,40.9671398 35.0467481,42.4800007 33.1863284,42.4800007 C31.3259086,42.4800007 29.8129686,40.9672188 29.8129686,39.10672 C29.8129686,37.2462213 31.3259086,35.7333603 33.1863284,35.7333603 Z M12.946328,37.4200797 C12.016553,37.4200797 11.2596877,38.176945 11.2596877,39.10672 C11.2596877,40.0364951 12.016553,40.7933604 12.946328,40.7933604 C13.8761821,40.7933604 14.6330474,40.0364951 14.6329683,39.10672 C14.6329683,38.176945 13.876103,37.4200797 12.946328,37.4200797 Z M33.1863284,37.4200797 C32.2565533,37.4200797 31.499688,38.176945 31.499688,39.10672 C31.499688,40.0364951 32.2565533,40.7933604 33.1863284,40.7933604 C34.1161824,40.7933604 34.8730478,40.0364951 34.8729687,39.10672 C34.8729687,38.176945 34.1161034,37.4200797 33.1863284,37.4200797 Z M23.9096879,2 C28.1469636,2 31.7217746,4.85890005 32.8268312,8.74664043 L32.8268312,8.74664043 L37.2169347,8.74664043 C38.7149319,8.74664043 39.9330479,9.96475639 39.9330479,11.4627536 L39.9330479,11.4627536 L39.9330479,11.7016014 C39.9330479,12.0977836 39.8441025,12.4972074 39.6753041,12.8570999 L39.6753041,12.8570999 L33.7900496,25.3629692 C33.2357424,26.5398145 32.0374712,27.3000005 30.7370511,27.3000005 L30.7370511,27.3000005 L14.1955155,27.3000005 L11.485332,30.6873543 C11.3395408,30.8684865 11.2596877,31.0974515 11.2596877,31.3305277 C11.2596877,31.8979593 11.7217289,32.3600006 12.2891605,32.3600006 L12.2891605,32.3600006 L35.7163284,32.3600006 C36.1824809,32.3600006 36.5596881,32.7371287 36.5596881,33.2032812 C36.5596881,33.6694337 36.1824809,34.0466409 35.7163284,34.0466409 L35.7163284,34.0466409 L12.2890814,34.0466409 C10.7910051,34.0466409 9.57296825,32.828604 9.57296825,31.3305277 C9.57296825,30.7162121 9.78382794,30.1141511 10.1675973,29.6340046 L10.1675973,29.6340046 L12.8573827,26.2721879 L7.60794884,8.27479543 C7.39961915,7.55912166 6.73415007,7.06000009 5.98882787,7.06000009 L5.98882787,7.06000009 L3.66968752,7.06000009 C3.20353501,7.06000009 2.82632781,6.6827929 2.82632781,6.21664039 C2.82632781,5.75048788 3.20353501,5.37328069 3.66968752,5.37328069 L3.66968752,5.37328069 L5.98890693,5.37328069 C7.47868165,5.37328069 8.81041042,6.37223539 9.22714887,7.80279229 L9.22714887,7.80279229 L9.5024445,8.74664043 L14.9926237,8.74664043 C16.0976012,4.85890005 19.6724122,2 23.9096879,2 Z M14.6757412,10.4333598 L9.99437138,10.4333598 L14.4221877,25.6133601 L30.7369721,25.6133601 C31.3876565,25.6133601 31.9863968,25.2329114 32.2639062,24.6448445 L32.2639062,24.6448445 L38.148291,12.1397658 C38.2125688,12.0038574 38.2464075,11.8522946 38.2464075,11.7016014 L38.2464075,11.7016014 L38.2464075,11.4628327 C38.2464075,10.8954011 37.7843663,10.4333598 37.2169347,10.4333598 L37.2169347,10.4333598 L33.1436346,10.4333598 C33.1688556,10.7115808 33.1863284,10.9920945 33.1863284,11.2767195 C33.1863284,16.3919053 29.0248736,20.55336 23.9096879,20.55336 C18.7945022,20.55336 14.6330474,16.3919053 14.6330474,11.2767195 C14.6330474,10.9920155 14.6505202,10.7115017 14.6757412,10.4333598 L14.6757412,10.4333598 Z M23.9096879,3.68664034 C19.7243562,3.68664034 16.3196877,7.09130884 16.3196877,11.2766405 C16.3196877,15.4619721 19.7243562,18.8666406 23.9096879,18.8666406 C28.0950195,18.8666406 31.499688,15.4619721 31.499688,11.2766405 C31.499688,7.09130884 28.0950986,3.68664034 23.9096879,3.68664034 Z M27.530197,8.15043011 C27.8595714,7.82097667 28.3932433,7.82097667 28.7226967,8.15043011 C29.0521502,8.47980449 29.0521502,9.01347638 28.7226967,9.34292982 L28.7226967,9.34292982 L22.8193369,15.2462896 C22.6545707,15.4109768 22.4388091,15.4933599 22.2230475,15.4933599 C22.007286,15.4933599 21.7914453,15.4109768 21.6267582,15.2462896 L21.6267582,15.2462896 L19.0969162,12.7162896 C18.7674628,12.3869152 18.7674628,11.8532433 19.0969162,11.5237899 C19.4262906,11.1943364 19.9599625,11.1943364 20.2894159,11.5237899 L20.2894159,11.5237899 L22.2231266,13.4575005 Z" id="Combined-Shape" fill="#4A4A4A"></path>
    </g>
</svg>