<?xml version="1.0" encoding="UTF-8"?>
<svg width="44px" height="44px" viewBox="0 0 44 44" version="1.1" xmlns="http://www.w3.org/2000/svg" xmlns:xlink="http://www.w3.org/1999/xlink">
    <title>img_details</title>
    <g id="img_details" stroke="none" stroke-width="1" fill="none" fill-rule="evenodd">
        <path d="M21.9999643,3.5 C23.0886455,3.5 24.0700491,4.12355046 24.5477336,5.06921872 L24.5477336,5.06921872 L25.1725679,5.06921872 C26.3437044,5.06921872 27.4082766,5.53142496 28.1958105,6.28186815 L28.1958105,6.28186815 L33.6437812,6.28186815 C35.5614378,6.28186815 37.1215265,7.84202819 37.1215265,9.7596848 L37.1215265,9.7596848 L37.1215265,36.5422539 C37.1215265,38.4599105 35.5613665,40.0200706 33.6437099,40.0200706 L33.6437099,40.0200706 L10.3562901,40.0200706 C8.43863351,40.0200706 6.87847347,38.4599105 6.87847347,36.5422539 L6.87847347,36.5422539 L6.87847347,9.7596848 C6.87847347,7.84202819 8.43863351,6.28186815 10.3562901,6.28186815 L10.3562901,6.28186815 L15.8026916,6.28186815 C16.5902255,5.53142496 17.6547264,5.06921872 18.8258628,5.06921872 L18.8258628,5.06921872 L19.4521951,5.06921872 C19.9299509,4.12355046 20.9112832,3.5 21.9999643,3.5 Z M14.8033846,7.70843062 L10.3562901,7.70843062 C9.22524006,7.70843062 8.30503594,8.62863474 8.30503594,9.7596848 L8.30503594,9.7596848 L8.30503594,36.5423253 C8.30503594,37.6733753 9.22524006,38.5935795 10.3562901,38.5935795 L10.3562901,38.5935795 L33.6437812,38.5935795 C34.7748313,38.5935795 35.6950354,37.6733753 35.6950354,36.5423253 L35.6950354,36.5423253 L35.6950354,9.7596848 C35.6950354,8.62863474 34.7748313,7.70843062 33.6437812,7.70843062 L33.6437812,7.70843062 L29.1951888,7.70843062 C29.4288597,8.24424748 29.5593189,8.83505833 29.5593189,9.45596965 L29.5593189,9.45596965 L29.5593189,9.91960245 C29.5593189,10.3135477 29.2399829,10.6328837 28.8460376,10.6328837 L28.8460376,10.6328837 L15.1525358,10.6328837 C14.7585906,10.6328837 14.4392546,10.3135477 14.4392546,9.91960245 L14.4392546,9.91960245 L14.4392546,9.45596965 C14.4392546,8.834987 14.5697137,8.24424748 14.8033846,7.70843062 L14.8033846,7.70843062 Z M29.2712246,33.1725707 C29.4588175,33.1725707 29.6428441,33.2488918 29.7755144,33.3815621 C29.9081847,33.5142324 29.9845058,33.698259 29.9845058,33.885852 C29.9845058,34.0734449 29.9081847,34.2574715 29.7755144,34.3901418 C29.6428441,34.5228121 29.4588175,34.5991332 29.2712246,34.5991332 C29.0836316,34.5991332 28.8996051,34.5228121 28.7669347,34.3901418 C28.6342644,34.2574715 28.5579433,34.0734449 28.5579433,33.885852 C28.5579433,33.698259 28.6342644,33.5142324 28.7669347,33.3815621 C28.8996051,33.2488918 29.0836316,33.1725707 29.2712246,33.1725707 Z M26.2709497,33.1724994 C26.6648949,33.1724994 26.984231,33.4918354 26.984231,33.8857806 C26.984231,34.2797259 26.6648949,34.5990619 26.2709497,34.5990619 L26.2709497,34.5990619 L22.0000357,34.5990619 C21.6060904,34.5990619 21.2867544,34.2797259 21.2867544,33.8857806 C21.2867544,33.4918354 21.6060904,33.1724994 22.0000357,33.1724994 L22.0000357,33.1724994 Z M15.7231608,29.7487495 C16.117106,29.7487495 16.436442,30.0680855 16.436442,30.4620307 L16.436442,30.4620307 L16.436442,33.8857806 C16.436442,34.2797259 16.117106,34.5990619 15.7231608,34.5990619 L15.7231608,34.5990619 L12.2994109,34.5990619 C11.9054656,34.5990619 11.5861296,34.2797259 11.5861296,33.8857806 L11.5861296,33.8857806 L11.5861296,30.4620307 C11.5861296,30.0680855 11.9054656,29.7487495 12.2994109,29.7487495 L12.2994109,29.7487495 Z M15.0098796,31.1753119 L13.0126921,31.1753119 L13.0126921,33.1724994 L15.0098796,33.1724994 L15.0098796,31.1753119 Z M32.2714281,29.7487495 C32.6653733,29.7487495 32.9847093,30.0680855 32.9847093,30.4620307 C32.9847093,30.8559759 32.6653733,31.1753119 32.2714281,31.1753119 L32.2714281,31.1753119 L22.0000357,31.1753119 C21.6060904,31.1753119 21.2867544,30.8559759 21.2867544,30.4620307 C21.2867544,30.0680855 21.6060904,29.7487495 22.0000357,29.7487495 L22.0000357,29.7487495 Z M29.2712246,25.4691334 C29.4588175,25.4691334 29.6428441,25.5454545 29.7755144,25.6781248 C29.9081847,25.8107951 29.9845058,25.9948217 29.9845058,26.1824146 C29.9845058,26.3700076 29.9081847,26.5540341 29.7755144,26.6867045 C29.6428441,26.8193748 29.4588175,26.8956959 29.2712246,26.8956959 C29.0836316,26.8956959 28.8996051,26.8193748 28.7669347,26.6867045 C28.6342644,26.5540341 28.5579433,26.3700076 28.5579433,26.1824146 C28.5579433,25.9948217 28.6342644,25.8107951 28.7669347,25.6781248 C28.8996051,25.5454545 29.0836316,25.4691334 29.2712246,25.4691334 Z M26.2709497,25.4690621 C26.6648949,25.4690621 26.984231,25.7883981 26.984231,26.1823433 C26.984231,26.5762885 26.6648949,26.8956245 26.2709497,26.8956245 L26.2709497,26.8956245 L22.0000357,26.8956245 C21.6060904,26.8956245 21.2867544,26.5762885 21.2867544,26.1823433 C21.2867544,25.7883981 21.6060904,25.4690621 22.0000357,25.4690621 L22.0000357,25.4690621 Z M15.7231608,22.0453121 C16.117106,22.0453121 16.436442,22.3646481 16.436442,22.7585934 L16.436442,22.7585934 L16.436442,26.1823433 C16.436442,26.5762885 16.117106,26.8956245 15.7231608,26.8956245 L15.7231608,26.8956245 L12.2994109,26.8956245 C11.9054656,26.8956245 11.5861296,26.5762885 11.5861296,26.1823433 L11.5861296,26.1823433 L11.5861296,22.7585934 C11.5861296,22.3646481 11.9054656,22.0453121 12.2994109,22.0453121 L12.2994109,22.0453121 Z M15.0098796,23.4718746 L13.0126921,23.4718746 L13.0126921,25.4690621 L15.0098796,25.4690621 L15.0098796,23.4718746 Z M32.2714281,22.0453121 C32.6653733,22.0453121 32.9847093,22.3646481 32.9847093,22.7585934 C32.9847093,23.1525386 32.6653733,23.4718746 32.2714281,23.4718746 L32.2714281,23.4718746 L22.0000357,23.4718746 C21.6060904,23.4718746 21.2867544,23.1525386 21.2867544,22.7585934 C21.2867544,22.3646481 21.6060904,22.0453121 22.0000357,22.0453121 L22.0000357,22.0453121 Z M29.2712246,17.765696 C29.4588175,17.765696 29.6428441,17.8420171 29.7755144,17.9746874 C29.9081847,18.1073578 29.9845058,18.2913843 29.9845058,18.4789773 C29.9845058,18.6665702 29.9081847,18.8505968 29.7755144,18.9832671 C29.6428441,19.1159374 29.4588175,19.1922585 29.2712246,19.1922585 C29.0836316,19.1922585 28.8996051,19.1159374 28.7669347,18.9832671 C28.6342644,18.8505968 28.5579433,18.6665702 28.5579433,18.4789773 C28.5579433,18.2913843 28.6342644,18.1073578 28.7669347,17.9746874 C28.8996051,17.8420171 29.0836316,17.765696 29.2712246,17.765696 Z M26.2709497,17.7656247 C26.6648949,17.7656247 26.984231,18.0849607 26.984231,18.4789059 C26.984231,18.8728512 26.6648949,19.1921872 26.2709497,19.1921872 L26.2709497,19.1921872 L22.0000357,19.1921872 C21.6060904,19.1921872 21.2867544,18.8728512 21.2867544,18.4789059 C21.2867544,18.0849607 21.6060904,17.7656247 22.0000357,17.7656247 L22.0000357,17.7656247 Z M16.4554866,14.1703306 C16.734023,13.8918657 17.1856726,13.8918657 17.464209,14.170402 C17.7427453,14.4490096 17.7427453,14.9006593 17.464209,15.1791956 L17.464209,15.1791956 L13.9097146,18.73369 C13.7704821,18.8729938 13.5878821,18.9426101 13.4053534,18.9426101 C13.2228247,18.9426101 13.0402961,18.8729938 12.9009923,18.73369 L12.9009923,18.73369 L11.4569544,17.2896521 C11.1784181,17.0110445 11.1784181,16.5593948 11.4569544,16.2808585 C11.735562,16.0023935 12.1872117,16.0023935 12.465748,16.2808585 L12.465748,16.2808585 L13.4053534,17.2205352 Z M32.2714281,14.3418748 C32.6653733,14.3418748 32.9847093,14.6612108 32.9847093,15.055156 C32.9847093,15.4491012 32.6653733,15.7684373 32.2714281,15.7684373 L32.2714281,15.7684373 L22.0000357,15.7684373 C21.6060904,15.7684373 21.2867544,15.4491012 21.2867544,15.055156 C21.2867544,14.6612108 21.6060904,14.3418748 22.0000357,14.3418748 L22.0000357,14.3418748 Z M22.0000357,4.92656247 C21.3606504,4.92656247 20.7953037,5.35659973 20.6251861,5.97237542 C20.5398063,6.28158283 20.2584882,6.49578119 19.9376543,6.49578119 L19.9376543,6.49578119 L18.8259342,6.49578119 C17.2778286,6.49578119 16.003409,7.69052726 15.8762309,9.20632121 L15.8762309,9.20632121 L28.1222712,9.20632121 C27.9950931,7.69052726 26.7207449,6.49578119 25.1725679,6.49578119 L25.1725679,6.49578119 L24.0623457,6.49578119 C23.7415831,6.49578119 23.4601937,6.28158283 23.3748139,5.97237542 C23.2047677,5.35659973 22.639421,4.92656247 22.0000357,4.92656247 Z M21.9993224,6.56718064 C22.1869153,6.56718064 22.3709419,6.64350173 22.5036122,6.77617204 C22.6362825,6.90884235 22.7126036,7.09286891 22.7126036,7.28046188 C22.7126036,7.46805484 22.6362825,7.6520814 22.5036122,7.78475171 C22.3709419,7.91742202 22.1869153,7.99374311 21.9993224,7.99374311 C21.8117294,7.99374311 21.6277029,7.91742202 21.4950325,7.78475171 C21.3623622,7.6520814 21.2860411,7.46805484 21.2860411,7.28046188 C21.2860411,7.09286891 21.3623622,6.90884235 21.4950325,6.77617204 C21.6277029,6.64350173 21.8117294,6.56718064 21.9993224,6.56718064 Z" id="Combined-Shape" fill="#4A4A4A"></path>
    </g>
</svg>