<?xml version="1.0" encoding="UTF-8"?>
<svg width="44px" height="44px" viewBox="0 0 44 44" version="1.1" xmlns="http://www.w3.org/2000/svg" xmlns:xlink="http://www.w3.org/1999/xlink">
    <title>convenience_store/ico_store_hilife</title>
    <g id="convenience_store/ico_store_hilife" stroke="none" stroke-width="1" fill="none" fill-rule="evenodd">
        <path d="M32.0572778,4.0324865 C34.4422324,4.18280721 36.6503621,4.89424872 38.5921626,6.39860326 C39.7174242,7.2896053 40.6790661,8.38843656 41.4300949,9.64139957 C42.0282437,10.6110255 42.5085092,11.6334358 42.7399098,12.7705947 C43.3304181,15.7058647 42.9352906,18.4598318 41.3504145,20.9843017 C41.3176692,21.0382336 41.2838323,21.0921654 41.2543614,21.1483922 C39.5679747,24.3613539 37.5093823,27.2943289 35.1713627,30.010429 C31.4842338,34.2939954 27.28846,37.9280845 22.5250998,40.81516 C22.4727072,40.8472897 22.4159486,40.8759768 22.3668305,40.9115489 C22.2053428,41.0323836 21.9879588,41.0291321 21.8298064,40.9035165 C21.0744798,40.4100974 20.301689,39.937333 19.5594606,39.4278491 C16.5253701,37.3426805 13.6973636,34.9435755 11.1177035,32.2663871 C8.50642822,29.5842682 6.16176957,26.6295468 4.12001742,23.4479548 C3.38433805,22.3004685 2.69122766,21.1185576 2.06469953,19.8999271 C1.62413156,19.0220079 1.32151452,18.0749637 1.16856784,17.0954706 C0.850566774,15.273007 0.98400771,13.3951782 1.55605475,11.6426157 C1.96428039,10.3884132 2.63883507,9.30862854 3.47056753,8.32408529 C5.16896085,6.30909933 7.28867797,5.03424205 9.76641116,4.41574693 C11.2133954,4.06124417 12.7039685,3.94511192 14.1848534,4.07150104 C17.0522566,4.29296589 19.554003,5.41979745 21.7162891,7.39003143 C21.7861459,7.44396329 21.8494536,7.50248509 21.9509643,7.58625159 C22.2118358,7.3762616 22.4639751,7.19381128 22.6921012,6.98382128 C24.2737027,5.53110362 26.144555,4.73245315 28.1802257,4.3009983 C29.4560143,4.03498016 30.7593191,3.94471758 32.0572778,4.0324865 Z M28.3024751,4.46049889 C26.6584505,4.77746958 25.0964032,5.45505223 23.7181229,6.44909266 C23.1594382,6.85911343 22.6403093,7.32569154 22.1681753,7.84214104 C21.9891672,8.03721371 21.8887481,8.03491874 21.7086485,7.85017344 L21.6529814,7.79050415 C20.571481,6.6366585 19.2652344,5.74257 17.8239558,5.16964543 C16.256544,4.53164304 14.6192754,4.32739048 13.2625254,4.29411338 C11.9101416,4.29411338 10.9365125,4.39509217 9.91485685,4.62803189 C7.40437829,5.20177505 5.28793571,6.4881072 3.61792171,8.55128758 C2.19895556,10.3092366 1.36285705,12.3379924 1.20567926,14.6421449 C1.08612469,16.3263307 1.41733905,18.0120768 2.16184414,19.5086343 C2.92315427,21.0670083 3.77505572,22.5746003 4.71270866,24.0228454 C6.69887422,27.0667522 8.97996645,29.8859061 11.5193801,32.4350675 C14.5953183,35.5644015 18.0194339,38.2918265 21.7173806,40.5581231 C21.9650917,40.7370995 22.2915284,40.7393722 22.5414725,40.5638605 C24.8829146,39.1362088 27.1097041,37.510186 29.1996983,35.7019611 C32.8813697,32.5176866 36.1111549,28.8962198 38.7897264,24.7411719 C39.1761218,24.142184 39.5537851,23.5351638 39.943455,22.9384709 C40.5991683,21.9429068 41.1561974,20.8793788 41.6058284,19.7645238 C42.2039772,18.2636117 42.5881896,16.7110627 42.6351246,15.0758947 C42.6787851,13.5061334 42.4004495,12.0109588 41.6953325,10.6167629 C40.8477999,8.94088936 39.6402805,7.49582329 38.1686558,6.39630829 C36.3720264,5.03424205 34.3265321,4.44558157 32.1544224,4.24018152 C30.8669707,4.12300695 29.5702351,4.19717551 28.3024751,4.46049889 Z M32.3945551,5.19259516 C35.5086401,5.50930138 38.0191186,7.00103358 39.9259908,9.58632022 C40.7087844,10.6276836 41.2610099,11.8393392 41.5425207,13.1332004 C41.7472964,14.121502 41.7842489,15.1400818 41.651672,16.1419095 C41.3984411,18.1626329 40.6693108,19.9894311 39.6018116,21.6796784 C39.1390104,22.4140696 38.6980393,23.1633782 38.230872,23.8931795 C36.6798456,26.2924297 34.9263363,28.5398794 32.9916124,30.6082694 C29.8650717,33.985145 26.3532093,36.9424856 22.536015,39.4129318 C22.2829312,39.6044522 21.9405622,39.599796 21.6922759,39.4014569 C20.5920313,38.639526 19.4732311,37.9097247 18.4035489,37.0995994 C13.8672233,33.6777952 9.9017587,29.6409384 6.58137792,24.9121473 C5.3007074,23.0998149 4.15625228,21.1853735 3.15839498,19.1861907 C2.46971832,17.8138459 2.16327397,16.2650957 2.27426992,14.717879 C2.4489119,12.1383298 3.47493358,9.97990803 5.2781121,8.22425398 C6.80622948,6.73252178 8.61159102,5.84436738 10.6363466,5.40488012 C11.5683848,5.1945084 12.5216112,5.10624573 13.4742789,5.14210576 C15.7850106,5.2476745 17.9200089,5.91206907 19.7941358,7.38085154 C20.4757579,7.92522601 21.1069119,8.53611027 21.6791777,9.20535477 L21.9498728,9.52435596 C22.0328277,9.437147 22.0983185,9.37977269 22.1507111,9.312071 C23.8578365,7.13184701 26.0703322,5.86157967 28.6932365,5.34406335 C29.9140372,5.11028863 31.1601624,5.05929374 32.3945551,5.19259516 Z M31.1142111,15.0357327 C30.5291604,15.0357327 29.9452013,15.0357327 29.3601506,15.0460601 C29.1944027,15.0483993 29.0289315,15.0610437 28.864604,15.0839271 C28.2623099,15.1398262 27.8089122,15.684784 27.8363993,16.3197699 L27.8363993,20.2728602 C27.5853514,20.3876088 27.3594083,20.3474468 27.113818,20.2946624 L27.113818,19.9010746 L27.113818,19.9010746 C27.113818,19.6532176 27.1378313,19.4053605 27.1280077,19.158651 C27.1117894,18.63568 26.7695002,18.1865784 26.2875431,18.0559166 C25.9451904,17.9456679 25.5734124,18.0120357 25.2848666,18.2349089 C24.9963209,18.4577821 24.8249686,18.8109292 24.8227335,19.1873381 C24.8096353,20.4438357 24.8096353,21.7014806 24.8052693,22.9579781 C24.8052693,23.2425548 24.8052693,23.5317213 24.8150929,23.811708 C24.8478383,24.48184 25.3171886,24.9672267 25.9164289,24.9660792 C26.2166496,24.979095 26.5092931,24.8649811 26.7288211,24.6492936 C26.948349,24.4336061 27.0764182,24.1343675 27.0843472,23.8185929 C27.0952623,23.6453224 27.0843472,23.474347 27.0919878,23.2964866 C27.0919878,23.0876441 27.1018114,22.8776541 27.1083605,22.6596317 L27.8211181,22.6596317 C27.8265757,22.7525781 27.8353078,22.8329021 27.8363993,22.9132262 C27.8429483,24.1972634 27.8451314,25.482448 27.854955,26.7664852 C27.854955,27.3402284 27.8669616,27.9220039 27.8953409,28.4991895 C27.9064674,28.6725254 27.957809,28.8403582 28.0448781,28.9880187 C28.3177562,29.4470132 28.9246371,29.6466758 29.4638443,29.4711104 C30.0030514,29.295545 30.2737465,28.8881874 30.274838,28.3029694 L30.274838,22.9625681 L30.274838,22.9625681 C30.274838,22.8558519 30.2835701,22.7479882 30.2879362,22.6481568 C30.6404947,22.5609479 30.6699655,22.5781602 30.760561,22.8948664 C30.7891869,23.0004636 30.8234418,23.104284 30.8631632,23.2058352 C31.2997682,24.3039796 32.6095831,25.1932815 33.7589457,25.192134 C34.0383728,25.192134 34.3167085,25.2162312 34.5961357,25.2231161 C34.8755629,25.230001 35.1538985,25.2357385 35.4333257,25.2311485 C35.679339,25.2287334 35.9198028,25.1540078 36.1275276,25.0154211 C36.4931843,24.769859 36.6361724,24.4003684 36.6307148,23.9597337 C36.6252573,23.519099 36.3807585,23.262062 36.0369321,23.0979715 C35.8548839,23.0123349 35.6588337,22.9644128 35.459522,22.9568307 C34.9017592,22.9384709 34.3418133,22.9396184 33.7840504,22.9568307 C33.5286365,22.9591256 33.3627266,22.8363446 33.1880847,22.5907825 L35.6974717,22.5907825 C35.8543116,22.5967285 36.01134,22.5940473 36.1679136,22.5827501 C36.5281127,22.5437356 36.8555664,22.4312819 37.0356659,22.0617913 C37.6163505,20.8752905 37.4428001,19.5969908 36.5761392,18.6881816 C35.5239212,17.5831523 34.053654,17.2584137 32.5899359,17.9182183 C31.6425031,18.3450832 30.973406,19.0530822 30.6994363,20.1259819 C30.6841552,20.1856512 30.6601419,20.2407306 30.6394032,20.3038423 C30.5760954,20.3038423 30.5237028,20.3130222 30.4724018,20.3118747 C30.4211007,20.3107272 30.3556099,20.3003999 30.3021258,20.2946624 C30.282019,20.1657212 30.271246,19.7548671 30.2687697,19.2764243 L30.2686548,18.8547771 C30.2717691,18.1411072 30.2912107,17.4144718 30.3239561,17.2997232 L31.1764273,17.2997232 L31.1764273,17.2997232 C31.448581,17.3013283 31.716306,17.2273031 31.9524926,17.0851432 C32.1625405,16.9679754 32.3264546,16.7765541 32.4152939,16.5446772 C32.645603,15.9388044 32.2668482,15.2273629 31.6326795,15.0896645 C31.4619517,15.0538949 31.2882962,15.0357327 31.1142111,15.0357327 Z M12.2998115,16.4632057 C11.6841985,16.5354973 11.2901625,16.9899019 11.2803389,17.6336417 C11.2701514,18.3030087 11.259964,18.9719932 11.2497765,19.6405952 C11.2497765,19.7117394 11.2355869,19.7817361 11.2257633,19.8700925 C10.8699302,19.8769774 10.5282868,19.9022221 10.1637217,19.8781249 L10.1637217,19.5694511 L10.1637217,19.5694511 C10.149532,18.9371861 10.1462575,18.3072161 10.1156951,17.6726562 C10.0829498,17.0013767 9.79915654,16.6709007 9.18354353,16.5332023 C8.49370768,16.3794392 7.87372863,16.8040091 7.78749915,17.4913534 C7.771133,17.6279786 7.76347533,17.7656015 7.76457739,17.903301 C7.76457739,19.7186243 7.7685796,21.5343301 7.77658402,23.3504185 C7.77658402,23.5615559 7.77658402,23.7726934 7.79404822,23.9826834 C7.83225116,24.4761025 8.05928574,24.8398557 8.51881247,24.9867339 C8.72702751,25.0523543 8.94578272,25.0726576 9.16171328,25.0464032 C9.72820823,24.9752591 10.2237549,24.4336455 10.1757283,23.8220353 C10.1375254,23.3400911 10.1669962,22.8512619 10.1691792,22.3647277 C10.1691792,22.2866987 10.1822774,22.2086696 10.189918,22.1122807 L11.2344954,22.1122807 C11.2410444,22.1937523 11.248685,22.2648964 11.2508681,22.3360406 C11.2617832,22.8394046 11.2719706,23.3435335 11.2814304,23.8484275 C11.27323,24.1263131 11.3612754,24.3978782 11.5292037,24.6126534 C11.8835437,24.9975758 12.419474,25.1286648 12.8990518,24.9477194 C13.3319865,24.7981017 13.6279419,24.3855137 13.6532079,23.9158221 L13.6532869,17.7885523 C13.6532869,17.6967534 13.6532869,17.6049545 13.6456463,17.5131556 C13.6205415,17.063341 13.3836833,16.770732 13.0125691,16.5779543 C12.7906212,16.4677609 12.5429558,16.4278887 12.2998115,16.4632057 Z M20.6335088,16.853351 C20.4436043,17.0344891 20.3390312,17.2942226 20.3475326,17.563645 C20.3573562,18.5447458 20.3475326,19.5258466 20.3584477,20.5069474 C20.3693628,21.6349264 20.384644,22.7629055 20.4119318,23.889737 C20.4261215,24.4852824 20.7710394,24.8869026 21.3375343,24.9591943 C22.0665739,25.0458623 22.8029374,25.0389263 23.5303828,24.9385395 C23.8829413,24.8937875 24.3632067,24.5656065 24.4210569,24.0205505 C24.4963713,23.3159939 24.0848711,22.7720854 23.4114079,22.7273334 C23.2040206,22.719301 22.9955417,22.7307759 22.7313957,22.7307759 L22.7313957,22.299321 L22.7313957,22.299321 C22.7153868,20.7219098 22.6990141,19.1444987 22.6822776,17.5670875 C22.6947649,17.0809402 22.394647,16.6467632 21.9509643,16.5091051 C21.4401365,16.3209174 21.0100806,16.4827129 20.6335088,16.853351 Z M15.2883725,18.1546005 C14.7802132,18.2568865 14.4163415,18.7295964 14.4271692,19.2733996 L14.4271692,20.8408659 L14.4271692,20.8408659 C14.4271692,21.8116393 14.4271692,22.7835602 14.4195286,23.7543336 C14.4195286,24.2787349 14.629099,24.6608478 15.0831682,24.8639529 C15.2769079,24.9451232 15.4836751,24.9864158 15.6922321,24.9855987 C16.2750997,24.9855987 16.8525098,24.5265919 16.8143069,23.7853158 C16.7905665,23.250874 16.8012087,22.7170777 16.8080136,22.1800542 L16.8121238,21.6418114 L16.8121238,19.4983069 L16.8121238,19.4983069 C16.8117843,19.3334585 16.7993771,19.168882 16.7750124,19.0060353 C16.7221858,18.6441981 16.4876136,18.3405538 16.1615824,18.2119748 C15.8846188,18.0915773 15.5774406,18.0713941 15.2883725,18.1546005 Z M18.6414986,21.9137656 L18.0149705,21.9137656 L18.0149705,21.9137656 C17.5063257,21.9137656 17.2421797,22.1834249 17.2509118,22.717006 C17.2509118,22.9086362 17.2716506,23.1002664 17.2771081,23.2907492 C17.2869317,23.679747 17.4266453,23.8862946 17.7912105,23.9574387 C18.0142707,23.9900128 18.2397238,24.0007687 18.4646736,23.9895683 C18.6993488,23.9895683 18.934024,23.9620287 19.1676076,23.9677661 C19.6587882,23.979241 19.9316663,23.7233515 19.9611372,23.2046877 C19.9720523,22.9946977 19.9611372,22.7847077 19.9611372,22.5735702 C19.9611372,22.1753925 19.7592074,21.9481902 19.374995,21.9309779 C19.1294047,21.926388 18.8849059,21.9355678 18.6414986,21.9355678 L18.6414986,21.9137656 Z M34.9148573,20.1856512 L34.8919355,20.2545004 L33.1356921,20.2545004 C33.3105156,19.9782886 33.5961019,19.8015326 33.9106659,19.7748511 C34.2908411,19.7164389 34.6722307,19.8724599 34.9148573,20.1856512 Z M25.9415337,14.7878756 C25.7945735,14.8068513 25.648791,14.834821 25.5049287,14.8716421 C24.8906767,15.0456108 24.4757215,15.6473466 24.5094694,16.3151799 C24.5506282,16.7401746 24.7614661,17.1268225 25.0895217,17.3789166 C25.4175774,17.6310106 25.8320078,17.7248496 26.229693,17.6370841 C26.6071395,17.5438865 26.9404598,17.3119056 27.1694852,16.983017 C27.5074075,16.5474243 27.5191186,15.9256825 27.1978645,15.4763674 C26.9059809,15.051208 26.4402246,14.7959652 25.9415337,14.7878756 Z M16.5305136,12.4160215 C16.1790466,12.4814282 15.8919789,12.6845332 15.6201923,12.9668149 C15.549244,12.9094406 15.4913938,12.8681311 15.4400927,12.8210841 C15.1533512,12.561349 14.7892337,12.415215 14.4107965,12.407989 C13.6740256,12.3815969 13.1730214,12.7625623 12.9536274,13.3420429 C12.8308672,13.6898283 12.8450086,14.0747061 12.9929219,14.4115001 C13.4819194,15.7196345 14.3278416,16.7168001 15.421537,17.4982383 C15.6551207,17.6657713 15.6573037,17.6634763 15.8941619,17.478731 C16.8765231,16.7122102 17.5685419,15.7012747 18.0957424,14.5549359 C18.1419102,14.4470386 18.1784508,14.3348687 18.2048937,14.2198699 C18.3140449,13.7826776 18.2965807,13.3546653 18.0215196,12.9897646 C17.6416733,12.4860181 17.1297539,12.3127477 16.5305136,12.4160215 Z" id="Combined-Shape" fill="#FE000C"></path>
    </g>
</svg>