<?xml version="1.0" encoding="UTF-8"?>
<svg width="44px" height="44px" viewBox="0 0 44 44" version="1.1" xmlns="http://www.w3.org/2000/svg" xmlns:xlink="http://www.w3.org/1999/xlink">
    <title>ico_pic_import</title>
    <g id="ico_pic_import" stroke="none" stroke-width="1" fill="none" fill-rule="evenodd">
        <path d="M36.7777448,3 L7.22225521,3 C4.88941146,3 3,4.88941146 3,7.22225521 L3,36.7778437 C3,39.1105885 4.88941146,41 7.22225521,41 L36.7778437,41 C39.1105885,41 41,39.1105885 41,36.7777448 L41,7.22225521 C41,4.88941146 39.1105885,3 36.7777448,3 Z M7.22225521,34.6666667 L13.848043,26.1478347 C14.1871139,25.7118883 14.8153897,25.6333552 15.2513362,25.9724262 C15.3081818,26.0166396 15.360085,26.0668643 15.4061427,26.1222263 L19.8889219,31.5105885 L19.8889219,31.5105885 L26.4740521,23.0344802 C26.8128849,22.5983486 27.4411176,22.5194723 27.8772492,22.8583051 C27.947582,22.9129469 28.0102997,22.9767399 28.0637382,23.0479912 L36.7777448,34.6666667 L36.7777448,34.6666667 L7.22225521,34.6666667 Z M16.0977419,19.6954839 C18.0847199,19.6954839 19.6954839,18.0847199 19.6954839,16.0977419 C19.6954839,14.1107639 18.0847199,12.5 16.0977419,12.5 C14.1107639,12.5 12.5,14.1107639 12.5,16.0977419 C12.5,18.0847199 14.1107639,19.6954839 16.0977419,19.6954839 Z" id="Shape" fill="#323232"></path>
    </g>
</svg>