<?xml version="1.0" encoding="UTF-8"?>
<svg width="44px" height="44px" viewBox="0 0 44 44" version="1.1" xmlns="http://www.w3.org/2000/svg" xmlns:xlink="http://www.w3.org/1999/xlink">
    <title>ico_ask_dialogue_line</title>
    <g id="ico_ask_dialogue_line" stroke="none" stroke-width="1" fill="none" fill-rule="evenodd">
        <path d="M35.6171875,20.7578125 C37.6131552,20.7578125 39.2432931,22.3235643 39.3463863,24.2938532 L39.3515625,24.4921875 L39.3515625,26.921875 C39.3515625,27.9140625 38.9609375,28.4921875 38.578125,28.78125 C38.4755859,30.0043945 37.8580627,31.0833435 36.9444237,31.7992287 L36.7578125,31.9375 L36.765625,32.9296875 C37.671875,33.046875 39.265625,33.2890625 40.1640625,33.6875 C41.3203125,34.1953125 42.0234375,35.296875 41.9921875,36.5546875 C41.9893466,36.6683239 41.9875387,36.9296875 41.9867639,37.312858 L41.9867639,38.3696058 C41.9875387,38.9209065 41.9893466,39.5745739 41.9921875,40.3046875 C41.9921875,41.1928454 41.3120455,41.9197325 40.4433238,41.9937867 L40.296875,42 L28.390625,42 C27.5024671,42 26.77558,41.319858 26.7015258,40.4511363 L26.6953125,40.3046875 L26.6953125,39.6640625 C26.6953125,39.34375 26.9609375,39.078125 27.28125,39.078125 C27.5695313,39.078125 27.8135156,39.2932813 27.8594297,39.5698203 L27.8671875,39.6640625 L27.8671875,40.3046875 C27.8671875,40.5616319 28.0523727,40.7753665 28.2965428,40.8196909 L28.390625,40.828125 L40.296875,40.828125 C40.5538194,40.828125 40.767554,40.6429398 40.8118784,40.3987697 L40.8203125,40.3046875 L40.8199361,39.4755705 L40.8199361,39.4755705 L40.8190447,38.7412249 L40.8186947,38.5179142 L40.8186947,38.5179142 L40.8179947,38.1040278 L40.8179947,38.1040278 L40.8171429,37.5663564 L40.8170166,36.9516602 L40.8179287,36.7121877 C40.8184724,36.6312306 40.8192472,36.5681818 40.8203125,36.5234375 C40.8359375,35.7421875 40.4140625,35.078125 39.6875,34.7578125 C39.1640625,34.5234375 38.1484375,34.296875 36.8828125,34.125 C35.4765625,35.5859375 33.1484375,35.5859375 31.7421875,34.1484375 C30.4765625,34.3359375 29.46875,34.5703125 28.9453125,34.8046875 C28.3182292,35.0890625 27.9089236,35.7069097 27.8761921,36.4168588 L27.875,36.5703125 L27.875,36.9296875 C27.875,37.25 27.609375,37.515625 27.2890625,37.515625 C27.0007812,37.515625 26.7567969,37.3004688 26.7108828,37.0239297 L26.703125,36.9296875 L26.703125,36.59375 C26.671875,35.3515625 27.3671875,34.234375 28.46875,33.734375 C29.2773437,33.3757813 30.6491406,33.1310938 31.570375,32.9946172 L31.859375,32.953125 L31.8515625,31.921875 C30.84375,31.2109375 30.15625,30.078125 30.0546875,28.78125 C29.6992187,28.5128348 29.3370137,27.995177 29.2870838,27.1281945 L29.28125,26.921875 L29.28125,24.4921875 C29.28125,22.4962198 30.8470018,20.8660819 32.8172907,20.7629887 L33.015625,20.7578125 L35.6171875,20.7578125 Z M15.5390625,26.390625 C17.2416295,26.390625 18.6608837,27.6401068 18.928207,29.2704523 L18.953125,29.453125 L23.3828125,29.453125 C23.734375,29.453125 24.03125,29.671875 24.1328125,30 C24.2300347,30.2986111 24.1482446,30.6095679 23.9313379,30.817644 L23.84375,30.890625 L19.0390625,34.34375 C19.0078125,34.3645833 18.9869792,34.3923611 18.9765625,34.4247685 L18.96875,34.4765625 L18.96875,37.5078125 C18.96875,39.3429687 17.5305816,40.842309 15.7198521,40.940226 L15.53125,40.9453125 L5.4453125,40.9453125 C3.61015625,40.9453125 2.11081597,39.5071441 2.01289902,37.6964146 L2.0078125,37.5078125 L2.0078125,29.828125 C2.0078125,27.9929687 3.4459809,26.4936285 5.25671036,26.3957115 L5.4453125,26.390625 L15.5390625,26.390625 Z M15.53125,27.5546875 L5.4453125,27.5546875 C4.24739583,27.5546875 3.26472982,28.4874403 3.1849207,29.6653397 L3.1796875,29.8203125 L3.1796875,37.5 C3.1796875,38.6979167 4.11244032,39.6805827 5.29033972,39.7603918 L5.4453125,39.765625 L15.5390625,39.765625 C16.7369792,39.765625 17.7196452,38.8328722 17.7994543,37.6549728 L17.8046875,37.5 L17.8046875,34.46875 C17.8046875,34.0868056 17.9651813,33.7233796 18.2477602,33.4717507 L18.359375,33.3828125 L22.203125,30.6171875 L18.59375,30.6171875 C18.15625,30.6171875 17.796875,30.2578125 17.796875,29.8203125 C17.796875,28.5703125 16.78125,27.5546875 15.53125,27.5546875 Z M10.8515625,31.4375 C11.146875,31.4375 11.3852344,31.6526562 11.4299531,31.9291953 L11.4375,32.0234375 L11.4375,37.890625 C11.4375,38.2109375 11.171875,38.4765625 10.8515625,38.4765625 C10.5632813,38.4765625 10.3192969,38.2614062 10.2733828,37.9848672 L10.265625,37.890625 L10.265625,32.0234375 C10.265625,31.703125 10.53125,31.4375 10.8515625,31.4375 Z M33.015625,32.5 L33.015625,32.984375 C33.015625,33.1953125 32.953125,33.3984375 32.8515625,33.5703125 C33.71875,34.21875 34.90625,34.2109375 35.75,33.5546875 C35.66875,33.4234375 35.6125,33.2671875 35.59325,33.1019375 L35.5859375,32.9765625 L35.5859375,32.5078125 C34.75,32.765625 33.8515625,32.765625 33.015625,32.5 Z M36.265625,24.9453125 C36.25,24.9453125 36.2265625,24.953125 36.203125,24.9609375 C35.546875,25.2578125 35.0546875,25.4140625 34.3125,25.4140625 C33.5703125,25.4140625 33.078125,25.2578125 32.421875,24.9609375 C32.40625,24.953125 32.3828125,24.9453125 32.359375,24.9453125 C32.284375,24.9453125 32.224375,24.9953125 32.203375,25.0593125 L32.1953125,25.109375 L32.1953125,25.890625 C32.1953125,26.5009191 31.7247243,27.3811094 30.9854611,27.4825495 L30.84375,27.4921875 L30.53125,27.4921875 C30.6328125,27.78125 30.78125,27.859375 30.78125,27.859375 C31.03125,27.9296875 31.203125,28.1640625 31.203125,28.421875 C31.203125,30.140625 32.6015625,31.53125 34.3125,31.53125 C36.0234375,31.53125 37.4140625,30.140625 37.421875,28.421875 C37.421875,28.140625 37.5546875,27.9140625 37.828125,27.859375 C37.8683036,27.8392857 37.9716199,27.7732781 38.054437,27.5924745 L38.09375,27.4921875 L37.78125,27.4921875 C37.0018382,27.4921875 36.4923227,26.6548173 36.4350766,26.0091832 L36.4296875,25.890625 L36.4296875,25.109375 C36.4296875,25.015625 36.3515625,24.9453125 36.265625,24.9453125 Z M10.8515625,29.328125 C11.1796875,29.328125 11.4375,29.59375 11.4375,29.9140625 C11.4375,30.234375 11.171875,30.5 10.8515625,30.5 C10.53125,30.5 10.265625,30.234375 10.265625,29.9140625 C10.265625,29.59375 10.53125,29.328125 10.8515625,29.328125 Z M35.609375,21.921875 L33.0078125,21.921875 C31.648137,21.921875 30.5340468,22.98367 30.4503589,24.322443 L30.4453125,24.484375 L30.4375,26.328125 L30.8046875,26.328125 C30.8697917,26.2825521 30.9674479,26.1230469 30.9981916,25.9807219 L31.0078125,25.8984375 L31.0078125,25.1171875 C31.0078125,24.3828125 31.609375,23.78125 32.34375,23.78125 C32.9921875,23.78125 33.2421875,24.25 34.3046875,24.25 C35.3671875,24.25 35.625,23.78125 36.265625,23.78125 C36.9568015,23.78125 37.5303309,24.314122 37.5954133,24.989066 L37.6015625,25.1171875 L37.6015625,25.8984375 C37.6015625,26.0286458 37.6883681,26.2022569 37.7625145,26.2881583 L37.8046875,26.328125 L38.171875,26.328125 L38.171875,24.484375 C38.171875,23.0703125 37.0234375,21.921875 35.609375,21.921875 Z M10.953125,2 C12.9490927,2 14.5792306,3.56575182 14.6823238,5.53604067 L14.6875,5.734375 L14.6875,8.1640625 C14.6875,9.15625 14.296875,9.734375 13.9140625,10.0234375 C13.8115234,11.246582 13.1940002,12.325531 12.2803612,13.0414162 L12.09375,13.1796875 L12.1015625,14.171875 C13.0078125,14.2890625 14.6015625,14.53125 15.5,14.9296875 C16.65625,15.4375 17.359375,16.5390625 17.328125,17.796875 C17.3270948,17.8267514 17.3263363,17.9139578 17.3257957,18.0428547 L17.3250871,19.6518534 L17.3259914,20.3712662 L17.3261393,20.4683775 L17.3268835,20.9137838 L17.3270264,20.9927979 L17.327997,21.4874331 L17.328125,21.546875 C17.328125,22 17.1484375,22.4296875 16.828125,22.75 C16.5478516,23.0302734 16.1838379,23.2028809 15.7936554,23.2416534 L15.625,23.25 L3.71875,23.25 C2.83059211,23.25 2.10370499,22.569858 2.02965082,21.6944935 L2.0234375,21.546875 L2.0234375,20.984375 C2.0234375,20.6640625 2.2890625,20.3984375 2.609375,20.3984375 C2.89765625,20.3984375 3.14164063,20.6135937 3.18755469,20.8901328 L3.1953125,20.984375 L3.1953125,21.546875 C3.1953125,21.8038194 3.38049769,22.017554 3.62466778,22.0618784 L3.71875,22.0703125 L15.6171875,22.0703125 C15.7578125,22.0703125 15.8828125,22.015625 15.984375,21.9140625 C16.065625,21.8390625 16.116875,21.7390625 16.134125,21.6300625 L16.140625,21.546875 L16.1399249,21.2028445 L16.1399249,21.2028445 L16.1390888,20.7408327 L16.138939,20.6509791 L16.1382047,20.164135 L16.1379367,19.9573068 L16.1379367,19.9573068 L16.1376846,18.2225091 L16.1379764,18.1079387 L16.1379764,18.1079387 L16.1387839,17.920854 C16.1392671,17.842681 16.1398738,17.7889123 16.140625,17.765625 C16.15625,16.984375 15.734375,16.3203125 15.0078125,16 C14.484375,15.765625 13.46875,15.5390625 12.203125,15.3671875 C10.796875,16.828125 8.46875,16.828125 7.0625,15.390625 C5.796875,15.578125 4.7890625,15.8125 4.265625,16.046875 C3.63854167,16.33125 3.22923611,16.9490972 3.19650463,17.6590463 L3.1953125,17.8125 L3.1953125,18.2421875 C3.1953125,18.5625 2.9296875,18.828125 2.609375,18.828125 C2.32109375,18.828125 2.07710938,18.6129687 2.03119531,18.3364297 L2.0234375,18.2421875 L2.0234375,17.8359375 C1.9921875,16.59375 2.6875,15.4765625 3.7890625,14.9765625 C4.59765625,14.6179687 5.96945313,14.3732812 6.8906875,14.2368047 L7.1796875,14.1953125 L7.171875,13.1640625 C6.1640625,12.453125 5.4765625,11.3203125 5.375,10.0234375 C5.01953125,9.75502232 4.65732621,9.23736448 4.60739625,8.37038197 L4.6015625,8.1640625 L4.6015625,5.734375 C4.6015625,3.73840726 6.17463092,2.10826938 8.13831122,2.00517616 L8.3359375,2 L10.953125,2 Z M38.546875,3.0546875 C40.3820313,3.0546875 41.8813715,4.4928559 41.9792885,6.30358536 L41.984375,6.4921875 L41.984375,14.171875 C41.984375,16.0070313 40.5462066,17.5063715 38.7354771,17.6042885 L38.546875,17.609375 L28.453125,17.609375 C26.6179687,17.609375 25.1186285,16.1712066 25.0207115,14.3604771 L25.015625,14.171875 L25.015625,11.140625 C25.015625,11.1041667 25.0052083,11.0711806 24.984375,11.0439815 L24.9453125,11.0078125 L20.140625,7.5546875 C19.859375,7.3515625 19.7421875,6.9921875 19.8515625,6.6640625 C19.9487847,6.37239583 20.2003279,6.16714892 20.4964528,6.12513932 L20.609375,6.1171875 L25.046875,6.1171875 C25.2201451,4.45982143 26.592046,3.15114796 28.2729446,3.05978527 L28.4609375,3.0546875 L38.546875,3.0546875 Z M38.546875,4.2265625 L28.4609375,4.2265625 C27.2109375,4.2265625 26.1953125,5.2421875 26.1953125,6.4921875 C26.1953125,6.89603365 25.8890995,7.23331176 25.4978842,7.28281108 L25.3984375,7.2890625 L21.7890625,7.2890625 L25.640625,10.0546875 C25.9461806,10.2769097 26.1467978,10.6225887 26.1876072,10.9984461 L26.1953125,11.140625 L26.1953125,14.1796875 C26.1953125,15.3701172 27.1280653,16.3524712 28.3059647,16.4322674 L28.4609375,16.4375 L38.546875,16.4375 C39.7447917,16.4375 40.7274577,15.5047472 40.8072668,14.3268478 L40.8125,14.171875 L40.8125,6.4921875 C40.8125,5.2421875 39.796875,4.2265625 38.546875,4.2265625 Z M8.3515625,13.75 L8.3515625,14.234375 C8.3515625,14.4453125 8.2890625,14.6484375 8.1875,14.8203125 C9.046875,15.46875 10.234375,15.4609375 11.0859375,14.8046875 C11.0046875,14.6734375 10.9484375,14.5171875 10.9291875,14.3519375 L10.921875,14.2265625 L10.921875,13.7578125 C10.0859375,14.015625 9.1875,14.015625 8.3515625,13.75 Z M33.609375,13.453125 C33.9329793,13.453125 34.1953125,13.7154582 34.1953125,14.0390625 C34.1953125,14.3626668 33.9329793,14.625 33.609375,14.625 C33.2857707,14.625 33.0234375,14.3626668 33.0234375,14.0390625 C33.0234375,13.7154582 33.2857707,13.453125 33.609375,13.453125 Z M11.59375,6.203125 C11.578125,6.203125 11.5546875,6.2109375 11.53125,6.21875 C10.875,6.515625 10.3828125,6.671875 9.640625,6.671875 C8.8984375,6.671875 8.40625,6.515625 7.75,6.21875 C7.734375,6.2109375 7.7109375,6.203125 7.6875,6.203125 C7.6125,6.203125 7.5525,6.253125 7.5315,6.317125 L7.5234375,6.3671875 L7.5234375,7.1484375 C7.5234375,7.75873162 7.05284926,8.63892193 6.31358609,8.74036199 L6.171875,8.75 L5.859375,8.75 C5.9609375,9.0390625 6.109375,9.1171875 6.109375,9.1171875 C6.359375,9.1875 6.53125,9.421875 6.53125,9.6796875 C6.53125,11.390625 7.9296875,12.78125 9.640625,12.78125 C11.3515625,12.78125 12.75,11.390625 12.75,9.6796875 C12.75,9.3984375 12.8828125,9.171875 13.15625,9.1171875 C13.1964286,9.09709821 13.2997449,9.03109056 13.382562,8.85028699 L13.421875,8.75 L13.109375,8.75 C12.3299632,8.75 11.8204477,7.91262976 11.7632016,7.26699573 L11.7578125,7.1484375 L11.7578125,6.3671875 C11.7578125,6.2734375 11.6796875,6.203125 11.59375,6.203125 Z M33.5840409,5.46520431 L33.75,5.46875 C35.078125,5.5390625 36.140625,6.6328125 36.1640625,7.96875 C36.1863839,9.11458333 35.4292269,10.1328656 34.3582539,10.4634522 L34.1953125,10.5078125 L34.1953125,12.046875 C34.1953125,12.3671875 33.9296875,12.6328125 33.609375,12.6328125 C33.3210937,12.6328125 33.0771094,12.4176562 33.0311953,12.1411172 L33.0234375,12.046875 L33.0234375,10.34375 C33.0234375,9.8671875 33.3671875,9.4609375 33.8359375,9.3828125 C34.5078125,9.2734375 35.0078125,8.671875 34.9921875,7.9921875 C34.9765625,7.2734375 34.40625,6.6796875 33.6875,6.640625 C32.9609375,6.6015625 32.34375,7.1171875 32.2421875,7.828125 C32.234375,7.890625 32.2265625,7.9609375 32.2265625,8.0234375 C32.2265625,8.34375 31.9609375,8.609375 31.640625,8.609375 C31.3125,8.609375 31.0546875,8.34375 31.0625,8.0234375 C31.0625,7.8984375 31.0703125,7.78125 31.0859375,7.6640625 C31.250651,6.45377604 32.2293837,5.55859375 33.420374,5.47196 L33.5840409,5.46520431 Z M10.9375,3.171875 L8.3359375,3.171875 C6.98377404,3.171875 5.86274963,4.23367003 5.77851723,5.57244298 L5.7734375,5.734375 L5.765625,5.734375 L5.765625,7.578125 L6.1328125,7.578125 C6.19791667,7.53255208 6.29557292,7.37304688 6.32631655,7.23072193 L6.3359375,7.1484375 L6.3359375,6.3671875 C6.3359375,5.6328125 6.9375,5.03125 7.671875,5.03125 C7.859375,5.03125 8.046875,5.0703125 8.21875,5.1484375 C8.7578125,5.390625 9.09375,5.5 9.6328125,5.5 C10.171875,5.5 10.5078125,5.390625 11.046875,5.1484375 C11.21875,5.0703125 11.40625,5.03125 11.59375,5.03125 C12.2849265,5.03125 12.8584559,5.56412197 12.9235383,6.239066 L12.9296875,6.3671875 L12.9296875,7.1484375 C12.9296875,7.27864583 13.0164931,7.45225694 13.0906395,7.53815828 L13.1328125,7.578125 L13.5,7.578125 L13.5,5.734375 C13.5,4.3203125 12.3515625,3.171875 10.9375,3.171875 Z" id="Combined-Shape" fill="#323232"></path>
    </g>
</svg>