<?xml version="1.0" encoding="UTF-8"?>
<svg width="44px" height="44px" viewBox="0 0 44 44" version="1.1" xmlns="http://www.w3.org/2000/svg" xmlns:xlink="http://www.w3.org/1999/xlink">
    <title>ico_add_star</title>
    <g id="ico_add_star" stroke="none" stroke-width="1" fill="none" fill-rule="evenodd">
        <path d="M25.177617,2.37562936 C26.339055,2.00411801 27.4757188,1.69434707 28.4882149,2.02315217 C30.5002444,2.6765708 31.4268135,5.49555446 33.1014219,6.71401953 C34.7929906,7.94587432 37.7565833,7.96372729 38.9875454,9.65529602 C40.2077958,11.3307971 39.3178253,14.1471028 39.9694587,16.1600249 C40.6005611,18.1015352 42.9973221,19.8475555 43,22.0006234 C43,24.1510134 40.6014537,25.898819 39.9703513,27.8403293 C39.3178253,29.8523588 40.2077958,32.6695571 38.9902234,34.3441655 C37.7574759,36.0366269 34.7956685,36.0544799 33.1032072,37.285442 C31.4285988,38.5039071 30.5020297,41.3246761 28.4900002,41.977202 C26.5493826,42.6065192 24.151729,40.8908489 21.9995537,40.8908489 C19.8473784,40.8908489 17.4506174,42.6065192 15.5091071,41.977202 C14.4593526,41.6358222 13.7050732,40.7051932 12.9858687,39.7199339 L12.6279838,39.2252268 C12.0919242,38.4837626 11.5511817,37.7616894 10.8959002,37.2845494 C9.20433147,36.0535872 6.24163142,36.0366269 5.01066927,34.3441655 C3.79041891,32.6686645 4.68038936,29.8514661 4.02875603,27.8394366 C3.80924215,27.1641287 3.37600562,26.5123638 2.90428052,25.8589366 L2.54600812,25.3681608 C1.76598008,24.3024312 1,23.2156731 1,21.9997308 C1,20.8768567 1.65242642,19.8642998 2.36599108,18.8769927 L2.72513082,18.3850494 C3.26327037,17.6491093 3.78036691,16.919397 4.02697073,16.1600249 C4.67949672,14.1471028 3.79041891,11.3307971 5.00888398,9.65529602 C6.23984612,7.96372729 9.20165352,7.94587432 10.8932222,6.71401953 C11.5488531,6.23722885 12.0898082,5.51523153 12.6259972,4.77383733 L12.9839566,4.27917894 C13.7032879,3.29402701 14.4575673,2.36360051 15.5073218,2.02315217 C17.4479395,1.3929424 19.8464857,3.10861263 21.9977684,3.10861263 C22.8402732,3.10861263 23.7200921,2.84591076 24.5952936,2.56385954 Z M21.998661,7.26478359 C13.8737753,7.26478359 7.26371384,13.874845 7.26371384,21.9997308 C7.26371384,30.1255092 13.8737753,36.7337853 21.998661,36.7337853 C30.1235468,36.7337853 36.7336082,30.1255092 36.7336082,21.9997308 C36.7336082,13.874845 30.1235468,7.26478359 21.998661,7.26478359 Z M21.998661,9.67136369 C28.7979639,9.67136369 34.3279208,15.2013205 34.3279208,21.9997308 C34.3279208,28.798141 28.7979639,34.3289905 21.998661,34.3289905 C15.2002508,34.3289905 9.66940129,28.798141 9.66940129,21.9997308 C9.66940129,15.2013205 15.2002508,9.67136369 21.998661,9.67136369 Z M21.9995537,13.615977 C21.6951606,13.615977 21.4211175,13.8016478 21.3086438,14.0846174 L21.3086438,14.0846174 L19.3903424,18.9013482 L14.2165523,19.236984 C13.9121591,19.2566222 13.6506132,19.4601461 13.5568851,19.7493642 C13.4622644,20.0385822 13.5542071,20.3563651 13.7889737,20.5509624 L13.7889737,20.5509624 L17.7782194,23.862688 L16.4981616,28.8874059 C16.4222865,29.1828725 16.5347602,29.4944068 16.7811311,29.6738291 C17.0275021,29.8514661 17.357782,29.8630706 17.6157574,29.6997159 L17.6157574,29.6997159 L21.998661,26.9298279 L26.38335,29.6997159 C26.6413254,29.8630706 26.9716053,29.8514661 27.2179762,29.6738291 C27.4625619,29.4944068 27.5759282,29.1828725 27.5009458,28.8874059 L27.5009458,28.8874059 L26.2199953,23.862688 L30.2101337,20.5509624 C30.4431149,20.3563651 30.5350577,20.0385822 30.4413296,19.7493642 C30.3476015,19.4601461 30.0869482,19.2557296 29.7825551,19.236984 L29.7825551,19.236984 L24.6078723,18.9013482 L22.6904635,14.0846174 C22.5779898,13.8016478 22.3039468,13.615977 21.9995537,13.615977 Z" id="Combined-Shape" fill="#323232"></path>
    </g>
</svg>