<?xml version="1.0" encoding="UTF-8"?>
<svg width="44px" height="44px" viewBox="0 0 44 44" version="1.1" xmlns="http://www.w3.org/2000/svg" xmlns:xlink="http://www.w3.org/1999/xlink">
    <title>ico_emoji_honesty</title>
    <g id="ico_emoji_honesty" stroke="none" stroke-width="1" fill="none" fill-rule="evenodd">
        <g id="Emoji-free-icon" transform="translate(1.000000, 1.000000)" fill="#323232">
            <path d="M35.8492584,6.1507416 C31.8829193,2.18440245 26.6092071,0 21,0 C15.3907929,0 10.1170807,2.18440245 6.1507416,6.1507416 C2.18440245,10.1170807 -2.33146835e-15,15.3907929 -2.33146835e-15,21 C-2.33146835e-15,26.6092071 2.18440245,31.8829193 6.1507416,35.8492584 C10.1170807,39.8155976 15.3907929,42 21,42 C26.6092071,42 31.8829193,39.8155976 35.8492584,35.8492584 C39.8155976,31.8829193 42,26.6092071 42,21 C42,15.3907929 39.8155976,10.1170807 35.8492584,6.1507416 Z M12.5671234,17.150299 C12.5671234,15.9765473 13.5223389,15.0216522 14.6960907,15.0216522 C15.8698426,15.0216522 16.8247375,15.9765473 16.8247375,17.150299 C16.8247375,18.3240509 15.8698426,19.2789459 14.6960907,19.2789459 C13.5223389,19.2789459 12.5671234,18.3240509 12.5671234,17.150299 Z M28.3177643,26.8899078 C26.8101196,29.4963227 24.0050354,31.1151581 20.9971161,31.1151581 C17.9834289,31.1151581 15.1754608,29.4915161 13.6694184,26.8780518 C13.3300781,26.289093 13.5322724,25.5367127 14.1212311,25.1976929 C14.7098693,24.8580322 15.4622498,25.0605469 15.8015899,25.6491852 C16.8695984,27.5028992 18.8604584,28.6542206 20.9971161,28.6542206 C23.1296082,28.6542206 25.1182251,27.5061035 26.1875152,25.6578369 C26.5278168,25.069519 27.2805176,24.8686065 27.8688354,25.2089081 C28.4571533,25.5488892 28.6580658,26.3019104 28.3177643,26.8899078 Z M27.2923736,19.2789459 C26.1183014,19.2789459 25.1634064,18.3240509 25.1634064,17.150299 C25.1634064,15.9765473 26.1183014,15.0216522 27.2923736,15.0216522 C28.4658051,15.0216522 29.4207002,15.9765473 29.4207002,17.150299 C29.4210205,18.3240509 28.4658051,19.2789459 27.2923736,19.2789459 Z" id="Shape"></path>
        </g>
    </g>
</svg>