<?xml version="1.0" encoding="UTF-8"?>
<svg width="44px" height="44px" viewBox="0 0 44 44" version="1.1" xmlns="http://www.w3.org/2000/svg" xmlns:xlink="http://www.w3.org/1999/xlink">
    <title>ico_order</title>
    <g id="ico_order" stroke="none" stroke-width="1" fill="none" fill-rule="evenodd">
        <path d="M40.43,14.4709813 L40.43,38.7262102 C40.43,40.2006859 39.1208874,41.4 37.5124382,41.4 L37.5124382,41.4 L6.48756184,41.4 C4.87911255,41.4 3.57,40.2006859 3.57,38.7262102 L3.57,38.7262102 L3.57,14.4709813 L40.43,14.4709813 Z M27.6309365,23.0632109 C27.14717,22.6189812 26.3615041,22.6189812 25.8769109,23.0632109 L25.8769109,23.0632109 L20.3378172,28.1409336 L18.2083187,26.1880508 C17.7237255,25.7438211 16.9380595,25.7438211 16.4534664,26.1880508 C15.9696998,26.6322805 15.9696998,27.3525055 16.4534664,27.7959773 L16.4534664,27.7959773 L19.4611351,30.5524445 C19.702605,30.7745594 20.0202111,30.8860336 20.3377346,30.8860336 C20.655258,30.8860336 20.9728641,30.7745594 21.2151607,30.5524445 L21.2151607,30.5524445 L27.6308539,24.6711375 C28.1155297,24.2269078 28.1155297,23.5074406 27.6309365,23.0632109 Z M32.1329743,2.6 C32.979731,2.6 33.7695303,3.01770625 34.1937767,3.69011328 L34.1937767,3.69011328 L39.5608405,12.1967102 L23.2826592,12.1967102 L23.2826592,2.6 Z M20.8017437,2.6 L20.8017437,12.1967102 L4.45817285,12.1967102 L9.80547934,3.69238672 C10.2297257,3.01846406 11.0194423,2.6 11.8679351,2.6 L11.8679351,2.6 L20.8017437,2.6 Z" id="Combined-Shape" fill="#323232"></path>
    </g>
</svg>