<?xml version="1.0" encoding="UTF-8"?>
<svg width="44px" height="44px" viewBox="0 0 44 44" version="1.1" xmlns="http://www.w3.org/2000/svg" xmlns:xlink="http://www.w3.org/1999/xlink">
    <title>ico_ask_communication</title>
    <g id="ico_ask_communication" stroke="none" stroke-width="1" fill="none" fill-rule="evenodd">
        <path d="M15.359375,15.59375 C15.7907813,15.59375 16.140625,15.9435156 16.140625,16.375 C16.140625,16.8064844 15.7907813,17.15625 15.359375,17.15625 L15.359375,17.15625 L7.46875,17.15625 C5.31484375,17.15625 3.5625,18.9085937 3.5625,21.0625 L3.5625,21.0625 L3.5625,33.09375 C3.5625,35.2476562 5.31484375,37 7.46875,37 L7.46875,37 L12.5452344,37 C12.8647656,37 13.1410156,37.1922656 13.2617188,37.469375 L13.2617188,37.469375 L15.1264063,39.3339844 L15.1275,37.7807031 C15.1278125,37.3494531 15.4774219,37 15.90875,37 L15.90875,37 L24.34375,37 C26.4976562,37 28.25,35.2476562 28.25,33.09375 L28.25,33.09375 L28.25,27.703125 C28.25,27.2716406 28.5998438,26.921875 29.03125,26.921875 C29.4626562,26.921875 29.8125,27.2716406 29.8125,27.703125 L29.8125,27.703125 L29.8125,33.09375 C29.8125,36.1092187 27.3592188,38.5625 24.34375,38.5625 L24.34375,38.5625 L16.689375,38.5625 L16.6875,41.2192969 C16.6872656,41.5351562 16.496875,41.8198437 16.2049219,41.940625 C16.1084375,41.9805469 16.0069531,42 15.9064062,42 C15.7030469,42 15.5032813,41.920625 15.3538281,41.7711719 L15.3538281,41.7711719 L12.1451562,38.5625 L7.46875,38.5625 C4.45328125,38.5625 2,36.1092187 2,33.09375 L2,33.09375 L2,21.0625 C2,18.0470312 4.45328125,15.59375 7.46875,15.59375 L7.46875,15.59375 Z M23.484375,30.59375 C23.6898437,30.59375 23.8914062,30.6773437 24.0366406,30.8226562 C24.1819531,30.9679687 24.265625,31.1695312 24.265625,31.375 C24.265625,31.58125 24.1820313,31.7820312 24.0366406,31.9273437 C23.8914062,32.0726562 23.6898437,32.15625 23.484375,32.15625 C23.2789062,32.15625 23.0773438,32.0726562 22.9320313,31.9273437 C22.7867187,31.7820312 22.703125,31.5804687 22.703125,31.375 C22.703125,31.1695312 22.7866406,30.9679687 22.9320313,30.8226562 C23.0773438,30.6773437 23.2789062,30.59375 23.484375,30.59375 Z M20.4114844,30.59375 C20.8428906,30.59375 21.1927344,30.9435156 21.1927344,31.375 C21.1927344,31.8064844 20.8429687,32.15625 20.4114844,32.15625 L20.4114844,32.15625 L7,32.15625 C6.56859375,32.15625 6.21875,31.8064844 6.21875,31.375 C6.21875,30.9435156 6.56859375,30.59375 7,30.59375 L7,30.59375 Z M23.484375,26.21875 C23.9157812,26.21875 24.265625,26.5685156 24.265625,27 C24.265625,27.4314844 23.9158594,27.78125 23.484375,27.78125 L23.484375,27.78125 L7,27.78125 C6.56859375,27.78125 6.21875,27.4314844 6.21875,27 C6.21875,26.5685156 6.56859375,26.21875 7,26.21875 L7,26.21875 Z M30.6449219,2 C36.9060937,2 42,7.09390625 42,13.3551562 C42,15.1689062 41.5849219,16.9024219 40.7660938,18.5075781 C40.0451563,19.9208594 39.0178906,21.1859375 37.78125,22.1874219 L37.78125,22.1874219 L37.78125,26.7074219 C37.78125,27.0233594 37.5909375,27.3082031 37.2990625,27.4291406 C37.2024219,27.4692187 37.1008594,27.4886719 37.0001563,27.4886719 C36.796875,27.4886719 36.5971875,27.4092969 36.4477344,27.26 L36.4477344,27.26 L33.526875,24.3407812 C32.589375,24.5860937 31.6221094,24.7102344 30.6448438,24.7102344 L30.6448438,24.7102344 L28.6675781,24.7102344 C22.4064062,24.7102344 17.3125,19.6164062 17.3125,13.3551562 C17.3125,7.09390625 22.4064062,2 28.6676562,2 L28.6676562,2 Z M30.6449219,3.5625 L28.6676563,3.5625 C23.2679688,3.5625 18.875,7.95546875 18.875,13.3551562 C18.875,18.7548437 23.2678906,23.1478125 28.6676563,23.1478125 L28.6676563,23.1478125 L30.6449219,23.1478125 C31.62625,23.1478125 32.5953125,23.0029687 33.5252344,22.7171875 C33.6007031,22.6939844 33.6780469,22.6826562 33.7546094,22.6826562 C33.9586719,22.6826562 34.1582031,22.7627344 34.3069531,22.9113281 L34.3069531,22.9113281 L36.21875,24.8221094 L36.21875,21.8064844 C36.21875,21.5610937 36.3340625,21.33 36.5299219,21.1824219 C39.0132812,19.3121094 40.4375,16.4591406 40.4375,13.3551562 C40.4375,7.95546875 36.0446094,3.5625 30.6449219,3.5625 L30.6449219,3.5625 Z M18.40625,21.84375 C18.8376562,21.84375 19.1875,22.1935156 19.1875,22.625 C19.1875,23.0564844 18.8377344,23.40625 18.40625,23.40625 L18.40625,23.40625 L7,23.40625 C6.56859375,23.40625 6.21875,23.0564844 6.21875,22.625 C6.21875,22.1935156 6.56859375,21.84375 7,21.84375 L7,21.84375 Z M29.875,18.1195312 C30.0804687,18.1195312 30.2820312,18.203125 30.4273437,18.3484375 C30.5725781,18.49375 30.65625,18.6953125 30.65625,18.9007812 C30.65625,19.1070312 30.5726563,19.3078125 30.4273437,19.4539062 C30.2820312,19.5992187 30.0804687,19.6820312 29.875,19.6820312 C29.6695312,19.6820312 29.4679688,19.5992187 29.3226563,19.4539062 C29.1774219,19.3085937 29.09375,19.1070312 29.09375,18.9007812 C29.09375,18.6953125 29.1773437,18.49375 29.3226563,18.3484375 C29.4679688,18.203125 29.6695312,18.1195312 29.875,18.1195312 Z M29.8945168,7.47375925 L30.1076563,7.48179688 C31.7432813,7.59453125 33.0617188,8.91296875 33.1744531,10.5485156 C33.2865625,12.1751563 32.2303906,13.615625 30.6561719,13.9959375 L30.6561719,13.9959375 L30.6561719,15.8104688 C30.65625,16.2419531 30.3064844,16.5917188 29.875,16.5917188 C29.4435938,16.5917188 29.09375,16.2419531 29.09375,15.8104688 L29.09375,15.8104688 L29.09375,13.9335156 C29.09375,13.23375 29.5726563,12.6378125 30.2584375,12.484375 C31.1048438,12.295 31.6757031,11.5260938 31.6157031,10.6560156 C31.5563281,9.79453125 30.861875,9.10007813 30.0003125,9.04070313 C29.5089063,9.00679688 29.041875,9.171875 28.6845313,9.50539063 C28.326875,9.83921875 28.1298438,10.2924219 28.1298438,10.7814063 C28.1298438,11.2128906 27.78,11.5626563 27.3485938,11.5626563 C26.9171875,11.5626563 26.5673438,11.2128906 26.5673438,10.7814063 C26.5673438,9.86804688 26.9503906,8.98664063 27.6183594,8.363125 C28.295625,7.73085938 29.1804688,7.418125 30.1076563,7.48179688 Z" id="Combined-Shape" fill="#323232"></path>
    </g>
</svg>