<?xml version="1.0" encoding="UTF-8"?>
<svg width="44px" height="44px" viewBox="0 0 44 44" version="1.1" xmlns="http://www.w3.org/2000/svg" xmlns:xlink="http://www.w3.org/1999/xlink">
    <title>img_goods</title>
    <g id="img_goods" stroke="none" stroke-width="1" fill="none" fill-rule="evenodd">
        <path d="M37.9110835,11.93247 L34.2313635,7.31599 C33.8838185,6.879895 33.3565335,6.62585 32.7987785,6.62585 L13.7802735,6.62585 C13.2226285,6.62585 12.6953435,6.879895 12.3477435,7.315935 L8.66807846,11.93247 C8.28368346,12.414765 7.96913846,13.31396 7.96913846,13.99277 L7.96913846,17.37428 C8.26140846,16.91448 8.68859346,16.569355 9.20086346,16.392805 C9.22951846,16.006375 9.34666846,15.631605 9.54703346,15.29033 C9.89413846,14.69908 10.4509585,14.27866 11.1146435,14.106015 C11.3525735,14.043865 11.5704285,14.015705 11.7882285,14.015705 C12.6657535,14.015705 13.4609435,14.462085 13.9265735,15.163335 C14.0652285,15.13919 14.2051485,15.12665 14.3456185,15.12665 C14.7764885,15.12665 15.1836535,15.24512 15.5383485,15.44928 L17.5765935,14.919135 C17.8320135,14.852475 18.0944735,14.81898 18.3574835,14.81898 C19.7671885,14.81898 20.9994085,15.772515 21.3545435,17.138 L25.3490285,32.490425 C25.5574235,33.29139 25.4411535,34.12552 25.0224935,34.839365 C24.6033935,35.55321 23.9311835,36.060805 23.1301635,36.269255 L21.3474485,36.73296 L36.3200435,36.73296 C37.5847685,36.73296 38.6100235,35.707705 38.6100235,34.443035 L38.6100235,13.93073 C38.6100235,13.31396 38.2954785,12.414765 37.9110835,11.93247 Z M9.87054346,11.89342 L11.0891235,10.364585 L19.4032535,10.364585 L20.2236885,9.015655 L12.1643735,9.015655 L13.0640085,7.886945 C13.2387985,7.66766 13.4998835,7.541875 13.7802735,7.541875 L32.7988335,7.541875 C33.0792785,7.541875 33.3403635,7.66766 33.5150985,7.886945 L34.4147335,9.015655 L26.2118685,9.015655 L26.6698535,10.364585 L35.4899835,10.364585 L36.7085085,11.89342 L9.87054346,11.89342 Z M10.2422335,17.53411 L9.72825846,17.667815 C9.18084346,17.810265 8.85249346,18.369505 8.99488846,18.91692 L9.00011346,18.93694 C9.14256346,19.48441 9.70180346,19.812705 10.2492735,19.67031 L14.6081335,18.53632 C15.1556035,18.393925 15.4838985,17.834685 15.3415035,17.28716 L15.3362785,17.26714 C15.1938285,16.719725 14.6345885,16.391375 14.0871735,16.53377 L13.5731985,16.667475 C13.2985835,16.73892 13.0179735,16.574195 12.9465285,16.29958 L12.9421285,16.28286 C12.7761935,15.64508 12.1247185,15.262555 11.4869385,15.42849 L11.4602635,15.43542 C10.8224835,15.601355 10.4400135,16.25283 10.6058935,16.89061 L10.6102935,16.90733 C10.6816285,17.18211 10.5169035,17.462665 10.2422335,17.53411 Z M11.6472085,16.099655 C11.9236935,16.027715 12.2061735,16.193595 12.2780585,16.470025 C12.3499985,16.74651 12.1841735,17.02899 11.9076335,17.100875 C11.6311485,17.17276 11.3487235,17.006935 11.2767835,16.730505 C11.2048985,16.45402 11.3707235,16.17154 11.6472085,16.099655 Z M18.0710985,31.88933 C18.1190585,32.07369 18.0085085,32.261955 17.8242035,32.309915 L11.4827585,33.959585 C11.2984535,34.007545 11.1101335,33.89694 11.0621735,33.712635 L10.9753285,33.37895 C10.9273685,33.194535 11.0379185,33.00627 11.2222785,32.958365 L17.5636685,31.308695 C17.7480285,31.260735 17.9362935,31.37134 17.9842535,31.55559 L18.0710985,31.88933 Z M18.8445085,25.27393 L18.9313535,25.60767 C18.9793135,25.79203 18.8687635,25.980295 18.6844035,26.0282 L10.0067235,28.285785 C9.82236346,28.333745 9.63409846,28.22314 9.58613846,28.03889 L9.49929346,27.705095 C9.45133346,27.520735 9.56188346,27.33247 9.74624346,27.284565 L18.4239235,25.02709 C18.6082835,24.979075 18.7965485,25.08957 18.8445085,25.27393 Z M17.9029635,23.024485 L9.22528346,25.28196 C9.04092346,25.329865 8.85265846,25.219315 8.80469846,25.03501 L8.71785346,24.70127 C8.66989346,24.51691 8.78044346,24.3287 8.96480346,24.28074 L17.6424835,22.023265 C17.8268435,21.975305 18.0151085,22.085855 18.0630685,22.27016 L18.1499135,22.603955 C18.1978735,22.788205 18.0873235,22.976525 17.9029635,23.024485 Z M17.7102435,29.132455 L10.7013185,30.955815 C10.5169585,31.00372 10.3286935,30.89317 10.2807335,30.708865 L10.1938885,30.375125 C10.1459285,30.190765 10.2564785,30.0025 10.4408385,29.95454 L17.4497085,28.13129 C17.6340685,28.083275 17.8223335,28.19388 17.8702935,28.378185 L17.9571385,28.711925 C18.0051535,28.89623 17.8946035,29.08455 17.7102435,29.132455 Z M24.0189635,32.83643 L20.0249735,17.483565 C19.7852285,16.56193 18.8436835,16.00918 17.9220485,16.248925 L15.8868285,16.77841 C15.9349535,16.877795 15.9748835,16.982735 16.0037585,17.093505 C16.2469135,18.028285 15.6964185,18.96598 14.7816585,19.203965 L10.4868735,20.321235 C9.61017346,20.54932 8.66620846,20.09788 8.37190346,19.241145 C8.31646346,19.079775 8.28648846,18.91758 8.27790846,18.757805 L6.24059846,19.28784 C5.31896346,19.527585 4.76621346,20.46913 5.00595846,21.39071 L8.99994846,36.743575 C9.23974846,37.665265 10.1812385,38.218015 11.1028735,37.978215 L22.7844335,34.9393 C23.7060135,34.699555 24.2587635,33.758065 24.0189635,32.83643 Z M10.6687035,36.30946 L7.19567346,22.9592 L18.8771785,19.920285 L22.3502635,33.270545 L10.6687035,36.30946 Z" id="Shape" fill="#4A4A4A"></path>
    </g>
</svg>