<?xml version="1.0" encoding="UTF-8"?>
<svg width="179px" height="52px" viewBox="0 0 179 52" version="1.1" xmlns="http://www.w3.org/2000/svg" xmlns:xlink="http://www.w3.org/1999/xlink">
    <title>o_logo</title>
    <defs>
        <polygon id="path-1" points="0.320657938 0.4812 20.16 0.4812 20.16 28.7252 0.320657938 28.7252"></polygon>
    </defs>
    <g id="o_logo" stroke="none" stroke-width="1" fill="none" fill-rule="evenodd">
        <g id="Group-18">
            <path d="M17.3412,31.7604 C15.6162,31.7604 14.0002,31.4184 12.5382,30.7444 C11.0752,30.0714 9.7852,29.1164 8.7072,27.9084 C7.6262,26.6984 6.7642,25.2284 6.1422,23.5374 C5.5202,21.8444 5.2052,19.9554 5.2052,17.9214 C5.2052,15.8874 5.5202,13.9984 6.1422,12.3054 C6.7642,10.6154 7.6262,9.1444 8.7072,7.9344 C9.7842,6.7274 11.0732,5.7744 12.5382,5.0984 C14.0022,4.4244 15.6182,4.0834 17.3412,4.0834 C19.0362,4.0834 20.6602,4.4254 22.1692,5.1004 C23.6802,5.7774 25.0232,6.7324 26.1602,7.9424 C27.2982,9.1524 28.2132,10.6224 28.8782,12.3144 C29.5432,14.0064 29.8802,15.8924 29.8802,17.9214 C29.8802,19.9504 29.5432,21.8374 28.8782,23.5294 C28.2132,25.2204 27.2982,26.6924 26.1602,27.9014 C25.0212,29.1114 23.6782,30.0674 22.1692,30.7424 C20.6622,31.4184 19.0372,31.7604 17.3412,31.7604 M34.0302,12.4294 C33.3282,10.4924 32.2312,8.6774 30.7712,7.0334 C29.3092,5.3884 27.4352,4.0074 25.2002,2.9284 C22.9592,1.8464 20.2842,1.2974 17.2512,1.2974 C14.2462,1.2974 11.6232,1.8394 9.4552,2.9074 C7.2952,3.9724 5.4882,5.3404 4.0862,6.9714 C2.6842,8.6014 1.6402,10.4184 0.9842,12.3714 C0.3312,14.3144 0.0002,16.1814 0.0002,17.9214 C0.0002,19.6334 0.3312,21.4784 0.9852,23.4054 C1.6402,25.3434 2.6832,27.1574 4.0842,28.8024 C5.4872,30.4504 7.2932,31.8334 9.4532,32.9124 C11.6222,33.9964 14.2452,34.5464 17.2512,34.5464 C19.2822,34.5464 21.1532,34.2914 22.8122,33.7884 C24.4692,33.2874 25.9812,32.6004 27.3042,31.7484 C28.6282,30.8964 29.7952,29.8994 30.7732,28.7844 C31.7452,27.6754 32.5562,26.4864 33.1822,25.2504 C33.8052,24.0184 34.2822,22.7624 34.6022,21.5164 C34.9222,20.2644 35.0852,19.0544 35.0852,17.9214 C35.0852,16.2114 34.7302,14.3644 34.0302,12.4294" id="Fill-1" fill="#FFFFFF"></path>
            <polygon id="Fill-3" fill="#FFFFFF" points="66.431 27.4016 54.945 3.9626 51.655 3.8476 50.678 31.8226 53.2 31.9096 53.941 10.6916 64.676 32.7766 65.862 32.8186 78.381 11.6686 77.645 32.7646 81.99 32.9156 82.967 4.9416 79.64 4.8246"></polygon>
            <path d="M96.2484,26.5807 L89.7304,12.1527 L85.3034,12.1527 L94.1874,31.7477 L92.1944,36.6377 C91.9844,37.1737 91.7104,37.6087 91.3784,37.9297 C90.7764,38.5107 89.9644,38.4757 89.2404,38.0157 C88.8784,37.7847 88.6044,37.4547 88.4034,37.0067 L88.0614,36.2477 L85.8134,40.4877 L86.0524,40.7007 C86.5814,41.1737 87.1764,41.5277 87.8204,41.7517 C88.4564,41.9737 89.0634,42.0847 89.6244,42.0847 C90.4264,42.0847 91.1434,41.8797 91.7524,41.4737 C92.3344,41.0837 92.8534,40.5717 93.2944,39.9537 C93.7234,39.3507 94.1024,38.6727 94.4234,37.9387 C94.7354,37.2237 95.0324,36.5157 95.3194,35.8137 L104.9434,12.1527 L102.1624,12.1527 L96.2484,26.5807 Z" id="Fill-5" fill="#FFFFFF"></path>
            <path d="M113.3754,9.4977 C114.3234,8.4947 115.4854,7.7207 116.8274,7.1987 C118.1744,6.6737 119.7524,6.4397 121.5274,6.5017 C122.7024,6.5427 123.8144,6.7087 124.8314,6.9947 C125.8484,7.2807 126.7614,7.6417 127.5444,8.0677 C128.3144,8.4867 128.9484,8.9607 129.4294,9.4757 C129.8904,9.9697 130.1854,10.4637 130.3044,10.9427 L130.3784,11.2397 L134.0854,11.3697 L133.8744,10.7997 C133.6494,10.1897 133.2554,9.4977 132.7054,8.7397 C132.1494,7.9757 131.3774,7.2457 130.4094,6.5677 C129.4454,5.8937 128.2354,5.3067 126.8124,4.8207 C125.3864,4.3337 123.6764,4.0527 121.7314,3.9847 C119.4914,3.9077 117.4024,4.1537 115.4964,4.7207 C113.5834,5.2897 111.8924,6.1587 110.4724,7.3037 C109.0464,8.4527 107.9004,9.9047 107.0684,11.6207 C106.2374,13.3307 105.7774,15.3117 105.7004,17.5067 C105.6364,19.3817 105.8724,21.2317 106.4054,23.0047 C106.9424,24.7897 107.8164,26.4217 109.0034,27.8567 C110.1914,29.2967 111.7494,30.4837 113.6324,31.3857 C115.5114,32.2857 117.8014,32.7887 120.4364,32.8797 C120.7384,32.8917 121.0354,32.8957 121.3284,32.8957 C122.9444,32.8957 124.4294,32.7327 125.7394,32.4097 C126.9894,32.1007 128.0794,31.7517 128.9924,31.3677 L128.9444,32.7117 L133.0584,32.8547 L133.5084,19.9357 L125.0504,19.6407 L124.9674,22.0447 L129.3124,22.1967 L129.0894,28.5877 C127.9954,29.2177 126.8744,29.6847 125.7514,29.9767 C124.5644,30.2837 123.2004,30.4147 121.6884,30.3617 C119.7044,30.2917 117.9614,29.9277 116.5084,29.2777 C115.0624,28.6307 113.8584,27.7537 112.9324,26.6707 C112.0024,25.5867 111.3104,24.2917 110.8754,22.8227 C110.4374,21.3407 110.2464,19.6977 110.3084,17.9397 C110.3684,16.2057 110.6604,14.5967 111.1754,13.1597 C111.6834,11.7377 112.4244,10.5057 113.3754,9.4977" id="Fill-7" fill="#FFFFFF"></path>
            <path d="M152.2435,22.3044 C152.2435,24.0364 152.0555,25.4624 151.6835,26.5394 C151.3175,27.6004 150.8415,28.4304 150.2655,29.0054 C149.6955,29.5744 149.0615,29.9654 148.3825,30.1634 C146.9625,30.5814 145.6815,30.5794 144.2635,30.1634 C143.5815,29.9644 142.9395,29.5744 142.3555,29.0024 C141.7685,28.4274 141.2795,27.5974 140.9005,26.5354 C140.5175,25.4594 140.3235,24.0354 140.3235,22.3044 C140.3235,20.5484 140.5175,19.1114 140.9005,18.0344 C141.2795,16.9724 141.7685,16.1434 142.3555,15.5684 C142.9385,14.9974 143.5805,14.6064 144.2635,14.4064 C144.9735,14.1984 145.6665,14.0934 146.3225,14.0934 C146.9775,14.0934 147.6715,14.1984 148.3825,14.4064 C149.0635,14.6064 149.6975,14.9964 150.2655,15.5654 C150.8415,16.1394 151.3175,16.9694 151.6835,18.0314 C152.0555,19.1094 152.2435,20.5464 152.2435,22.3044 M153.9385,14.9224 C153.0405,13.9564 151.9385,13.1734 150.6645,12.5964 C149.3875,12.0184 147.9385,11.7254 146.3605,11.7254 C144.7585,11.7254 143.2855,12.0184 141.9825,12.5954 C140.6815,13.1724 139.5675,13.9544 138.6675,14.9224 C137.7685,15.8874 137.0625,17.0214 136.5665,18.2934 C136.0725,19.5654 135.8205,20.9144 135.8205,22.3044 C135.8205,23.6694 136.0725,25.0054 136.5665,26.2764 C137.0625,27.5484 137.7685,28.6824 138.6675,29.6474 C139.5675,30.6164 140.6835,31.3994 141.9835,31.9754 C143.2855,32.5524 144.7585,32.8454 146.3605,32.8454 C147.9375,32.8454 149.3855,32.5584 150.6605,31.9944 C151.9345,31.4304 153.0375,30.6544 153.9385,29.6874 C154.8375,28.7204 155.5385,27.5844 156.0205,26.3114 C156.5025,25.0424 156.7465,23.6944 156.7465,22.3044 C156.7465,20.9154 156.5025,19.5674 156.0205,18.2974 C155.5385,17.0234 154.8375,15.8884 153.9385,14.9224" id="Fill-9" fill="#FFFFFF"></path>
            <g id="Group-13" transform="translate(158.000000, 4.084900)">
                <mask id="mask-2" fill="white">
                    <use xlink:href="#path-1"></use>
                </mask>
                <g id="Clip-12"></g>
                <path d="M10.3304,25.9182 L10.1664,25.9162 C9.3944,25.8892 8.6684,25.7232 8.0084,25.4232 C7.3574,25.1302 6.7864,24.6722 6.3094,24.0612 C5.8234,23.4412 5.4394,22.6262 5.1694,21.6362 C4.8944,20.6372 4.7794,19.4192 4.8294,18.0172 C4.8784,16.5912 5.0774,15.3712 5.4224,14.3912 C5.7614,13.4242 6.2074,12.6302 6.7474,12.0342 C7.2784,11.4462 7.8884,11.0222 8.5584,10.7742 C9.1754,10.5452 9.8284,10.4292 10.4974,10.4292 L10.7074,10.4332 C11.3674,10.4562 11.9974,10.6162 12.5794,10.9072 C13.1594,11.2002 13.6724,11.6262 14.1024,12.1742 C14.5424,12.7322 14.8924,13.4152 15.1444,14.2032 C15.3974,14.9932 15.5084,15.9052 15.4734,16.9132 L15.3554,20.2882 C15.3284,21.0912 15.1654,21.8552 14.8744,22.5572 C14.5824,23.2632 14.1994,23.8752 13.7374,24.3762 C13.2794,24.8722 12.7344,25.2642 12.1174,25.5392 C11.5564,25.7902 10.9544,25.9182 10.3304,25.9182 L10.3304,25.9182 Z M16.0474,0.4812 L15.6974,10.4612 C15.5594,10.2402 15.4044,10.0342 15.2384,9.8452 C14.8004,9.3472 14.2884,8.9292 13.7184,8.6042 C13.1574,8.2852 12.5494,8.0422 11.9104,7.8812 C11.2804,7.7252 10.6354,7.6342 9.9894,7.6122 C8.6394,7.5662 7.3824,7.7732 6.2294,8.2332 C5.0774,8.6942 4.0594,9.3782 3.2034,10.2682 C2.3504,11.1552 1.6634,12.2492 1.1644,13.5182 C0.6664,14.7792 0.3864,16.2142 0.3304,17.7822 C0.2754,19.3732 0.4534,20.8432 0.8614,22.1502 C1.2704,23.4632 1.8774,24.6142 2.6664,25.5732 C3.4594,26.5352 4.4284,27.2972 5.5454,27.8362 C6.6624,28.3752 7.9094,28.6712 9.2534,28.7182 C9.3894,28.7232 9.5234,28.7252 9.6554,28.7252 C12.1254,28.7252 13.9654,27.8952 15.1464,26.2552 L15.0694,28.4562 L19.1834,28.5992 L20.1604,0.6242 L16.0474,0.4812 Z" id="Fill-11" fill="#FFFFFF" mask="url(#mask-2)"></path>
            </g>
            <path d="M38.3885,29.5944 C36.6935,29.3754 35.3145,30.5164 35.0915,32.2144 C34.8705,33.8984 35.9725,35.3844 37.5995,35.5974 C37.7345,35.6154 37.8675,35.6244 37.9975,35.6244 C39.4755,35.6244 40.6945,34.5114 40.8955,32.9764 C41.0015,32.1684 40.8155,31.3814 40.3705,30.7604 C39.9105,30.1154 39.2055,29.7014 38.3885,29.5944" id="Fill-14" fill="#FFFFFF"></path>
            <path d="M42.267,0.0295 C40.598,-0.1885 39.601,0.8095 39.317,2.9685 C38.984,5.5105 38.737,9.9355 38.371,17.7275 L37.875,25.6545 L39.899,25.9205 L41.463,18.1395 C43.079,10.7335 44.019,6.2205 44.365,3.5855 C44.505,2.5175 44.4,1.7045 44.043,1.1025 C43.685,0.4975 43.088,0.1365 42.267,0.0295" id="Fill-16" fill="#FFFFFF"></path>
        </g>
        <path d="M136.254,49.166 C136.463,48.594 136.639,48 136.782,47.362 C137.189,47.912 137.662,48.297 138.19,48.539 C138.88575,48.8447083 140.551333,49.0089826 143.206113,49.0221414 L145.329,49.023 L145.527,47.879 C145.043,47.923 144.295,47.945 143.305,47.945 C140.973,47.945 139.488,47.835 138.85,47.626 C138.817,47.615 138.784,47.604 138.762,47.593 L138.762,45.987 L140.06,45.987 L140.06,44.953 L138.762,44.953 L138.762,43.71 L139.983,43.71 L139.983,42.676 L138.52,42.676 L138.52,41.356 L140.071,41.356 L140.071,40.344 L138.52,40.344 L138.52,38.958 L137.431,38.958 L137.431,40.344 L135.858,40.344 L135.858,41.356 L137.431,41.356 L137.431,42.676 L135.77,42.676 L135.77,43.71 L137.684,43.71 L137.684,46.878 C137.442,46.636 137.211,46.35 137.002,46.009 C137.068,45.481 137.101,44.942 137.123,44.381 L136.144,44.26 C136.089,45.778 135.847,47.164 135.418,48.418 L136.254,49.166 Z M140.83,43.666 C141.435,43.226 141.897,42.731 142.205,42.181 C142.425,41.741 142.612,41.169 142.755,40.443 L144.064,40.443 C144.053,41.4 144.02,41.983 143.965,42.203 C143.91,42.423 143.767,42.544 143.536,42.555 C143.294,42.533 142.997,42.511 142.634,42.478 L142.92,43.49 C143.261,43.523 143.547,43.545 143.778,43.545 C144.284,43.545 144.636,43.347 144.845,42.951 C145.043,42.555 145.153,41.367 145.164,39.387 L140.335,39.387 L140.335,40.443 L141.688,40.443 C141.578,40.927 141.424,41.312 141.237,41.62 C140.973,42.016 140.599,42.379 140.093,42.709 L140.83,43.666 Z M144.999,47.527 L144.999,43.941 L140.621,43.941 L140.621,47.527 L144.999,47.527 Z M143.965,46.537 L141.644,46.537 L141.644,44.931 L143.965,44.931 L143.965,46.537 Z M146.803,45.855 C147.738,45.745 148.728,45.536 149.762,45.228 L149.861,45.668 L150.774,45.437 C150.576,44.623 150.367,43.897 150.136,43.259 L149.267,43.545 C149.355,43.82 149.454,44.106 149.542,44.403 C149.069,44.524 148.607,44.623 148.145,44.711 C148.816,43.952 149.652,42.731 150.664,41.059 L149.663,40.685 C149.399,41.147 149.146,41.565 148.915,41.961 C148.53,42.027 148.145,42.093 147.771,42.137 C148.288,41.422 148.794,40.52 149.289,39.442 L148.211,39.035 C147.837,40.047 147.408,40.982 146.913,41.84 C146.781,42.027 146.627,42.159 146.462,42.236 L146.726,43.215 C147.254,43.127 147.771,43.05 148.277,42.973 C147.771,43.743 147.342,44.282 147.001,44.59 C146.869,44.7 146.715,44.799 146.528,44.887 L146.803,45.855 Z M152.116,49.199 C152.919,48.759 153.612,48.22 154.206,47.593 C154.69,48.132 155.251,48.638 155.867,49.111 L156.637,48.198 C155.988,47.769 155.405,47.285 154.888,46.746 C155.526,45.822 155.955,44.722 156.197,43.468 L156.197,42.445 L154.987,42.445 C155.207,41.741 155.394,40.894 155.548,39.904 L155.548,39.321 L150.554,39.321 L150.554,40.355 L151.368,40.355 L151.368,41.29 C151.346,43.699 151.082,45.624 150.576,47.076 C150.433,46.636 150.268,46.218 150.092,45.822 L149.3,46.097 C149.476,46.537 149.652,47.043 149.806,47.626 L150.488,47.329 C150.334,47.692 150.169,48.022 149.993,48.33 L150.807,49.045 C151.5,47.967 151.973,46.482 152.215,44.579 C152.567,45.327 152.985,46.042 153.48,46.713 C152.919,47.318 152.226,47.846 151.39,48.308 L152.116,49.199 Z M153.898,42.445 L152.391,42.445 C152.413,42.071 152.424,41.686 152.424,41.29 L152.424,40.355 L154.393,40.355 C154.25,41.147 154.085,41.84 153.898,42.445 Z M154.14,45.877 C153.59,45.162 153.139,44.37 152.787,43.49 L155.108,43.49 C154.932,44.37 154.602,45.162 154.14,45.877 Z M148.376,48.561 L149.344,48.33 C149.234,47.538 149.102,46.801 148.959,46.119 L148.101,46.295 C148.211,46.955 148.299,47.703 148.376,48.561 Z M147.441,48.924 C147.639,48.198 147.76,47.351 147.815,46.405 L146.88,46.284 C146.825,47.164 146.682,47.934 146.462,48.616 L147.441,48.924 Z M165.833,49.089 C166.592,49.089 166.977,48.693 166.977,47.901 L166.977,42.082 L164.645,42.082 C164.854,41.785 165.052,41.444 165.228,41.07 L164.491,40.817 L167.34,40.817 L167.34,39.739 L163.105,39.739 C163.006,39.409 162.907,39.112 162.808,38.848 L161.565,39.046 C161.675,39.266 161.774,39.497 161.873,39.739 L157.66,39.739 L157.66,40.817 L160.498,40.817 L159.794,41.081 C159.981,41.4 160.146,41.73 160.289,42.082 L158.001,42.082 L158.001,49.067 L159.112,49.067 L159.112,44.744 L159.585,45.569 C160.322,45.305 160.872,44.964 161.224,44.546 C161.51,44.183 161.697,43.699 161.796,43.094 L163.182,43.094 L163.182,44.106 C163.182,44.634 163.468,44.909 164.051,44.909 L165.569,44.909 L165.569,43.974 L164.524,43.974 C164.326,43.974 164.227,43.864 164.227,43.644 L164.227,43.094 L165.866,43.094 L165.866,47.648 C165.866,47.945 165.734,48.099 165.492,48.099 L164.678,48.066 L164.678,45.261 L160.311,45.261 L160.311,48.209 L164.491,48.209 L164.722,49.089 L165.833,49.089 Z M163.402,42.082 L161.433,42.082 C161.279,41.62 161.103,41.191 160.916,40.817 L164.084,40.817 C163.886,41.257 163.666,41.675 163.402,42.082 Z M159.112,44.656 L159.112,43.094 L160.718,43.094 C160.63,43.435 160.498,43.721 160.322,43.941 C160.058,44.238 159.662,44.48 159.112,44.656 Z M163.589,47.208 L161.4,47.208 L161.4,46.229 L163.589,46.229 L163.589,47.208 Z M177.636,49.045 C178.087,49.045 178.428,48.286 178.659,46.768 L177.713,46.24 C177.614,47.186 177.526,47.659 177.438,47.659 C177.328,47.659 177.163,47.417 176.921,46.933 C176.822,46.757 176.734,46.526 176.646,46.251 C177.185,45.305 177.625,44.161 177.955,42.808 L177.031,42.423 C176.844,43.281 176.591,44.073 176.283,44.788 C176.261,44.722 176.25,44.645 176.239,44.568 C176.107,43.864 176.008,42.874 175.942,41.576 L178.263,41.576 L178.263,40.531 L177.152,40.531 L177.911,40.201 C177.713,39.739 177.471,39.31 177.196,38.914 L176.36,39.255 C176.624,39.618 176.866,40.047 177.086,40.531 L175.898,40.531 L175.876,38.98 L174.82,38.98 C174.82,39.519 174.82,40.036 174.842,40.531 L171.674,40.531 L171.674,43.688 C171.63,45.646 171.212,47.186 170.409,48.286 L171.245,49.034 C171.751,48.319 172.136,47.472 172.4,46.504 L172.653,47.329 L173.39,47.329 C173.852,47.307 174.16,47.076 174.336,46.636 C174.512,46.185 174.611,44.931 174.611,42.863 L172.774,42.863 L172.774,41.576 L174.886,41.576 C174.952,42.951 175.084,44.084 175.282,44.986 C175.37,45.382 175.458,45.745 175.557,46.086 C174.941,46.966 174.182,47.648 173.269,48.11 L173.951,49.001 C174.699,48.583 175.37,48.011 175.964,47.263 C176.096,47.56 176.239,47.824 176.393,48.055 C176.822,48.715 177.24,49.045 177.636,49.045 Z M168.583,47.56 C169.496,47.219 170.354,46.812 171.168,46.328 L171.168,45.217 C170.926,45.371 170.684,45.514 170.42,45.646 L170.42,42.764 L171.267,42.764 L171.267,41.686 L170.42,41.686 L170.42,39.024 L169.298,39.024 L169.298,41.686 L168.44,41.686 L168.44,42.764 L169.298,42.764 L169.298,46.152 C168.968,46.273 168.627,46.372 168.297,46.46 L168.583,47.56 Z M173.126,46.394 L172.433,46.394 C172.631,45.624 172.741,44.766 172.763,43.82 L173.588,43.82 C173.577,44.92 173.544,45.624 173.5,45.921 C173.445,46.207 173.324,46.372 173.126,46.394 Z" id="超級商城" fill="#FFFFFF" fill-rule="nonzero"></path>
    </g>
</svg>