<?xml version="1.0" encoding="UTF-8"?>
<svg width="44px" height="44px" viewBox="0 0 44 44" version="1.1" xmlns="http://www.w3.org/2000/svg" xmlns:xlink="http://www.w3.org/1999/xlink">
    <title>menber_men/ico_friends_gray</title>
    <g id="menber_men/ico_friends_gray" stroke="none" stroke-width="1" fill="none" fill-rule="evenodd">
        <path d="M23.2011719,12.390625 L20.8563242,23.3349023 C20.2064902,26.3648184 17.702127,28.6955723 14.624084,29.1331191 L14.624084,29.1331191 L13.5917969,29.2797422 L13.5917969,41.21875 L1.5,41.21875 L1.5,29.2070312 C1.5,26.557166 3.73490039,24.4023437 6.38476563,24.4023437 L6.38476563,24.4023437 L12.0551777,24.4023437 C14.3378047,24.4023437 16.3202188,22.7777187 16.7671348,20.5396152 L16.7671348,20.5396152 L18.3964844,12.390625 L23.2011719,12.390625 Z M25.6297012,12.521873 L27.2327852,20.5396152 C27.6797012,22.7777187 29.6621152,24.4023437 31.9448223,24.4023437 L31.9448223,24.4023437 L37.6152344,24.4023437 C40.2650996,24.4023437 42.5,26.557166 42.5,29.2070312 L42.5,29.2070312 L42.5,41.21875 L30.4082031,41.21875 L30.4082031,29.2797422 L29.375916,29.1331992 C26.4139063,28.7120684 24.0005918,26.5302598 23.2424922,23.6667461 L23.2424922,23.6667461 L25.6297012,12.521873 Z M8.78710937,14.7929687 C11.440665,14.7929687 13.5917969,16.9441006 13.5917969,19.5976562 C13.5917969,22.2512119 11.440665,24.4023437 8.78710937,24.4023437 C6.13355374,24.4023437 3.98242187,22.2512119 3.98242187,19.5976562 C3.98242187,16.9441006 6.13355374,14.7929687 8.78710937,14.7929687 Z M35.2128906,14.7929687 C37.8664463,14.7929687 40.0175781,16.9441006 40.0175781,19.5976562 C40.0175781,22.2512119 37.8664463,24.4023437 35.2128906,24.4023437 C32.559335,24.4023437 30.4082031,22.2512119 30.4082031,19.5976562 C30.4082031,16.9441006 32.559335,14.7929687 35.2128906,14.7929687 Z M27.6504961,5.04061706 L29.3487833,6.73890425 L25.9522089,10.1354786 L24.2539217,8.43719143 L27.6504961,5.04061706 Z M16.3438749,5.03951943 L19.7404493,8.4360938 L18.0421621,10.134381 L14.6455878,6.73780662 L16.3438749,5.03951943 Z M23.2011719,2.78125 L23.2011719,7.5859375 L20.7988281,7.5859375 L20.7988281,2.78125 L23.2011719,2.78125 Z" id="Combined-Shape" fill="#7C7C7C"></path>
    </g>
</svg>