<?xml version="1.0" encoding="UTF-8"?>
<svg width="44px" height="44px" viewBox="0 0 44 44" version="1.1" xmlns="http://www.w3.org/2000/svg" xmlns:xlink="http://www.w3.org/1999/xlink" style="background: #D1D1D1;">
    <title>ico_close</title>
    <g id="ico_close" stroke="none" stroke-width="1" fill="none" fill-rule="evenodd">
        <rect fill="#D1D1D1" x="0" y="0" width="44" height="44"></rect>
        <path d="M21.0451661,19.9451661 L21.0458904,9.75423686 C21.0458904,8.9237415 21.7196319,8.25 22.5501272,8.25 C23.3806226,8.25 24.0543641,8.9237415 24.0543641,9.75427595 L24.0536398,19.9451661 L34.2457631,19.9458904 C35.0762585,19.9458904 35.75,20.6196319 35.75,21.4501272 C35.75,22.2806226 35.0762585,22.9543641 34.2457241,22.9543641 L24.0536398,22.9536398 L24.0543641,33.1457631 C24.0543641,33.9762585 23.3806226,34.65 22.5501272,34.65 C21.7196319,34.65 21.0458904,33.9762585 21.0458904,33.1458022 L21.0451661,22.9536398 L10.8542369,22.9543641 C10.0237415,22.9543641 9.35,22.2806226 9.35,21.4501272 C9.35,20.6196319 10.0237415,19.9458904 10.8541978,19.9458904 L21.0451661,19.9451661 Z" id="Path" fill="#4A4A4A" transform="translate(22.550000, 21.450000) rotate(45.000000) translate(-22.550000, -21.450000) "></path>
    </g>
</svg>