<?xml version="1.0" encoding="UTF-8"?>
<svg width="44px" height="44px" viewBox="0 0 44 44" version="1.1" xmlns="http://www.w3.org/2000/svg" xmlns:xlink="http://www.w3.org/1999/xlink">
    <title>ic_hand_hover</title>
    <g id="ic_hand_hover" stroke="none" stroke-width="1" fill="none" fill-rule="evenodd">
        <g id="Group" transform="translate(4.125000, 2.750000)">
            <path d="M17.875,0 C15.9736335,0 14.3945313,1.33203125 13.921875,3.09375 C13.4384773,2.89501988 12.928223,2.75 12.375,2.75 C10.1137699,2.75 8.25,4.61376988 8.25,6.875 L8.25,21.65625 L7.046875,20.453125 C5.44628975,18.8525398 2.80371163,18.8525398 1.203125,20.453125 C-0.39746025,22.0537116 -0.39746025,24.6962897 1.203125,26.296875 L10.5273438,35.6210938 C12.1440426,37.2324219 14.3784176,38.5 17.015625,38.5 L23.375,38.5 C28.6762699,38.5 33,34.1762699 33,28.875 L33,12.375 C33,10.1137699 31.1362301,8.25 28.875,8.25 C28.3916023,8.25 27.9350583,8.35205112 27.5,8.5078125 L27.5,6.875 C27.5,4.61376988 25.6362301,2.75 23.375,2.75 C22.821777,2.75 22.3115241,2.89501988 21.828125,3.09375 C21.3554688,1.33203125 19.7763679,0 17.875,0 Z" id="Path" fill="#FFFFFF"></path>
            <g id="icons8-whole_hand" fill="#4A4A4A">
                <path d="M17.875,0 C15.9736335,0 14.3945313,1.33203125 13.921875,3.09375 C13.4384773,2.89501988 12.928223,2.75 12.375,2.75 C10.1137699,2.75 8.25,4.61376988 8.25,6.875 L8.25,21.65625 L7.046875,20.453125 C5.44628975,18.8525398 2.80371162,18.8525398 1.203125,20.453125 C-0.39746025,22.0537116 -0.39746025,24.6962897 1.203125,26.296875 L10.5273437,35.6210938 C12.1440426,37.2324219 14.3784176,38.5 17.015625,38.5 L23.375,38.5 C28.6762699,38.5 33,34.1762699 33,28.875 L33,12.375 C33,10.1137699 31.1362301,8.25 28.875,8.25 C28.3916022,8.25 27.9350583,8.35205112 27.5,8.5078125 L27.5,6.875 C27.5,4.61376988 25.6362301,2.75 23.375,2.75 C22.821777,2.75 22.3115241,2.89501988 21.828125,3.09375 C21.3554688,1.33203125 19.7763679,0 17.875,0 Z M17.875,2.75 C18.6538082,2.75 19.25,3.34619175 19.25,4.125 L19.25,17.875 L22,17.875 L22,6.875 C22,6.09619175 22.5961917,5.5 23.375,5.5 C24.1538082,5.5 24.75,6.09619175 24.75,6.875 L24.75,17.875 L27.5,17.875 L27.5,12.375 C27.5,11.5961917 28.0961917,11 28.875,11 C29.6538082,11 30.25,11.5961917 30.25,12.375 L30.25,28.875 C30.25,32.6884772 27.1884772,35.75 23.375,35.75 L17.015625,35.75 C15.2646491,35.75 13.7607429,34.8959957 12.5039062,33.6445312 L3.13671875,24.3632812 C2.58886787,23.8154304 2.58886787,22.934571 3.13671875,22.3867188 C3.684571,21.8388679 4.56543037,21.8388679 5.11328125,22.3867188 L8.63671875,25.953125 L11,28.3164062 L11,6.875 C11,6.09619175 11.5961917,5.5 12.375,5.5 C13.1538082,5.5 13.75,6.09619175 13.75,6.875 L13.75,17.875 L16.5,17.875 L16.5,4.125 C16.5,3.34619175 17.0961917,2.75 17.875,2.75 Z" id="Shape"></path>
            </g>
        </g>
    </g>
</svg>