<?xml version="1.0" encoding="UTF-8"?>
<svg width="250px" height="250px" viewBox="0 0 250 250" version="1.1" xmlns="http://www.w3.org/2000/svg" xmlns:xlink="http://www.w3.org/1999/xlink">
    <title>img_QrCode_web</title>
    <g id="img_QrCode_web" stroke="none" stroke-width="1" fill="none" fill-rule="evenodd">
        <g id="200728120703" fill="#000000" fill-rule="nonzero">
            <rect id="Rectangle" x="0" y="0" width="10" height="10"></rect>
            <rect id="Rectangle" x="10" y="0" width="10" height="10"></rect>
            <rect id="Rectangle" x="20" y="0" width="10" height="10"></rect>
            <rect id="Rectangle" x="30" y="0" width="10" height="10"></rect>
            <rect id="Rectangle" x="40" y="0" width="10" height="10"></rect>
            <rect id="Rectangle" x="50" y="0" width="10" height="10"></rect>
            <rect id="Rectangle" x="60" y="0" width="10" height="10"></rect>
            <rect id="Rectangle" x="80" y="0" width="10" height="10"></rect>
            <rect id="Rectangle" x="140" y="0" width="10" height="10"></rect>
            <rect id="Rectangle" x="160" y="0" width="10" height="10"></rect>
            <rect id="Rectangle" x="180" y="0" width="10" height="10"></rect>
            <rect id="Rectangle" x="190" y="0" width="10" height="10"></rect>
            <rect id="Rectangle" x="200" y="0" width="10" height="10"></rect>
            <rect id="Rectangle" x="210" y="0" width="10" height="10"></rect>
            <rect id="Rectangle" x="220" y="0" width="10" height="10"></rect>
            <rect id="Rectangle" x="230" y="0" width="10" height="10"></rect>
            <rect id="Rectangle" x="240" y="0" width="10" height="10"></rect>
            <rect id="Rectangle" x="0" y="10" width="10" height="10"></rect>
            <rect id="Rectangle" x="60" y="10" width="10" height="10"></rect>
            <rect id="Rectangle" x="80" y="10" width="10" height="10"></rect>
            <rect id="Rectangle" x="110" y="10" width="10" height="10"></rect>
            <rect id="Rectangle" x="120" y="10" width="10" height="10"></rect>
            <rect id="Rectangle" x="180" y="10" width="10" height="10"></rect>
            <rect id="Rectangle" x="240" y="10" width="10" height="10"></rect>
            <rect id="Rectangle" x="0" y="20" width="10" height="10"></rect>
            <rect id="Rectangle" x="20" y="20" width="10" height="10"></rect>
            <rect id="Rectangle" x="30" y="20" width="10" height="10"></rect>
            <rect id="Rectangle" x="40" y="20" width="10" height="10"></rect>
            <rect id="Rectangle" x="60" y="20" width="10" height="10"></rect>
            <rect id="Rectangle" x="80" y="20" width="10" height="10"></rect>
            <rect id="Rectangle" x="100" y="20" width="10" height="10"></rect>
            <rect id="Rectangle" x="110" y="20" width="10" height="10"></rect>
            <rect id="Rectangle" x="130" y="20" width="10" height="10"></rect>
            <rect id="Rectangle" x="150" y="20" width="10" height="10"></rect>
            <rect id="Rectangle" x="180" y="20" width="10" height="10"></rect>
            <rect id="Rectangle" x="200" y="20" width="10" height="10"></rect>
            <rect id="Rectangle" x="210" y="20" width="10" height="10"></rect>
            <rect id="Rectangle" x="220" y="20" width="10" height="10"></rect>
            <rect id="Rectangle" x="240" y="20" width="10" height="10"></rect>
            <rect id="Rectangle" x="0" y="30" width="10" height="10"></rect>
            <rect id="Rectangle" x="20" y="30" width="10" height="10"></rect>
            <rect id="Rectangle" x="30" y="30" width="10" height="10"></rect>
            <rect id="Rectangle" x="40" y="30" width="10" height="10"></rect>
            <rect id="Rectangle" x="60" y="30" width="10" height="10"></rect>
            <rect id="Rectangle" x="90" y="30" width="10" height="10"></rect>
            <rect id="Rectangle" x="130" y="30" width="10" height="10"></rect>
            <rect id="Rectangle" x="160" y="30" width="10" height="10"></rect>
            <rect id="Rectangle" x="180" y="30" width="10" height="10"></rect>
            <rect id="Rectangle" x="200" y="30" width="10" height="10"></rect>
            <rect id="Rectangle" x="210" y="30" width="10" height="10"></rect>
            <rect id="Rectangle" x="220" y="30" width="10" height="10"></rect>
            <rect id="Rectangle" x="240" y="30" width="10" height="10"></rect>
            <rect id="Rectangle" x="0" y="40" width="10" height="10"></rect>
            <rect id="Rectangle" x="20" y="40" width="10" height="10"></rect>
            <rect id="Rectangle" x="30" y="40" width="10" height="10"></rect>
            <rect id="Rectangle" x="40" y="40" width="10" height="10"></rect>
            <rect id="Rectangle" x="60" y="40" width="10" height="10"></rect>
            <rect id="Rectangle" x="80" y="40" width="10" height="10"></rect>
            <rect id="Rectangle" x="90" y="40" width="10" height="10"></rect>
            <rect id="Rectangle" x="110" y="40" width="10" height="10"></rect>
            <rect id="Rectangle" x="160" y="40" width="10" height="10"></rect>
            <rect id="Rectangle" x="180" y="40" width="10" height="10"></rect>
            <rect id="Rectangle" x="200" y="40" width="10" height="10"></rect>
            <rect id="Rectangle" x="210" y="40" width="10" height="10"></rect>
            <rect id="Rectangle" x="220" y="40" width="10" height="10"></rect>
            <rect id="Rectangle" x="240" y="40" width="10" height="10"></rect>
            <rect id="Rectangle" x="0" y="50" width="10" height="10"></rect>
            <rect id="Rectangle" x="60" y="50" width="10" height="10"></rect>
            <rect id="Rectangle" x="100" y="50" width="10" height="10"></rect>
            <rect id="Rectangle" x="110" y="50" width="10" height="10"></rect>
            <rect id="Rectangle" x="120" y="50" width="10" height="10"></rect>
            <rect id="Rectangle" x="140" y="50" width="10" height="10"></rect>
            <rect id="Rectangle" x="180" y="50" width="10" height="10"></rect>
            <rect id="Rectangle" x="240" y="50" width="10" height="10"></rect>
            <rect id="Rectangle" x="0" y="60" width="10" height="10"></rect>
            <rect id="Rectangle" x="10" y="60" width="10" height="10"></rect>
            <rect id="Rectangle" x="20" y="60" width="10" height="10"></rect>
            <rect id="Rectangle" x="30" y="60" width="10" height="10"></rect>
            <rect id="Rectangle" x="40" y="60" width="10" height="10"></rect>
            <rect id="Rectangle" x="50" y="60" width="10" height="10"></rect>
            <rect id="Rectangle" x="60" y="60" width="10" height="10"></rect>
            <rect id="Rectangle" x="80" y="60" width="10" height="10"></rect>
            <rect id="Rectangle" x="100" y="60" width="10" height="10"></rect>
            <rect id="Rectangle" x="120" y="60" width="10" height="10"></rect>
            <rect id="Rectangle" x="140" y="60" width="10" height="10"></rect>
            <rect id="Rectangle" x="160" y="60" width="10" height="10"></rect>
            <rect id="Rectangle" x="180" y="60" width="10" height="10"></rect>
            <rect id="Rectangle" x="190" y="60" width="10" height="10"></rect>
            <rect id="Rectangle" x="200" y="60" width="10" height="10"></rect>
            <rect id="Rectangle" x="210" y="60" width="10" height="10"></rect>
            <rect id="Rectangle" x="220" y="60" width="10" height="10"></rect>
            <rect id="Rectangle" x="230" y="60" width="10" height="10"></rect>
            <rect id="Rectangle" x="240" y="60" width="10" height="10"></rect>
            <rect id="Rectangle" x="100" y="70" width="10" height="10"></rect>
            <rect id="Rectangle" x="110" y="70" width="10" height="10"></rect>
            <rect id="Rectangle" x="120" y="70" width="10" height="10"></rect>
            <rect id="Rectangle" x="130" y="70" width="10" height="10"></rect>
            <rect id="Rectangle" x="140" y="70" width="10" height="10"></rect>
            <rect id="Rectangle" x="150" y="70" width="10" height="10"></rect>
            <rect id="Rectangle" x="160" y="70" width="10" height="10"></rect>
            <rect id="Rectangle" x="0" y="80" width="10" height="10"></rect>
            <rect id="Rectangle" x="30" y="80" width="10" height="10"></rect>
            <rect id="Rectangle" x="40" y="80" width="10" height="10"></rect>
            <rect id="Rectangle" x="50" y="80" width="10" height="10"></rect>
            <rect id="Rectangle" x="60" y="80" width="10" height="10"></rect>
            <rect id="Rectangle" x="70" y="80" width="10" height="10"></rect>
            <rect id="Rectangle" x="80" y="80" width="10" height="10"></rect>
            <rect id="Rectangle" x="100" y="80" width="10" height="10"></rect>
            <rect id="Rectangle" x="110" y="80" width="10" height="10"></rect>
            <rect id="Rectangle" x="120" y="80" width="10" height="10"></rect>
            <rect id="Rectangle" x="140" y="80" width="10" height="10"></rect>
            <rect id="Rectangle" x="160" y="80" width="10" height="10"></rect>
            <rect id="Rectangle" x="170" y="80" width="10" height="10"></rect>
            <rect id="Rectangle" x="200" y="80" width="10" height="10"></rect>
            <rect id="Rectangle" x="220" y="80" width="10" height="10"></rect>
            <rect id="Rectangle" x="230" y="80" width="10" height="10"></rect>
            <rect id="Rectangle" x="240" y="80" width="10" height="10"></rect>
            <rect id="Rectangle" x="10" y="90" width="10" height="10"></rect>
            <rect id="Rectangle" x="30" y="90" width="10" height="10"></rect>
            <rect id="Rectangle" x="90" y="90" width="10" height="10"></rect>
            <rect id="Rectangle" x="100" y="90" width="10" height="10"></rect>
            <rect id="Rectangle" x="110" y="90" width="10" height="10"></rect>
            <rect id="Rectangle" x="150" y="90" width="10" height="10"></rect>
            <rect id="Rectangle" x="170" y="90" width="10" height="10"></rect>
            <rect id="Rectangle" x="190" y="90" width="10" height="10"></rect>
            <rect id="Rectangle" x="200" y="90" width="10" height="10"></rect>
            <rect id="Rectangle" x="210" y="90" width="10" height="10"></rect>
            <rect id="Rectangle" x="220" y="90" width="10" height="10"></rect>
            <rect id="Rectangle" x="230" y="90" width="10" height="10"></rect>
            <rect id="Rectangle" x="20" y="100" width="10" height="10"></rect>
            <rect id="Rectangle" x="50" y="100" width="10" height="10"></rect>
            <rect id="Rectangle" x="60" y="100" width="10" height="10"></rect>
            <rect id="Rectangle" x="70" y="100" width="10" height="10"></rect>
            <rect id="Rectangle" x="80" y="100" width="10" height="10"></rect>
            <rect id="Rectangle" x="90" y="100" width="10" height="10"></rect>
            <rect id="Rectangle" x="120" y="100" width="10" height="10"></rect>
            <rect id="Rectangle" x="130" y="100" width="10" height="10"></rect>
            <rect id="Rectangle" x="150" y="100" width="10" height="10"></rect>
            <rect id="Rectangle" x="160" y="100" width="10" height="10"></rect>
            <rect id="Rectangle" x="180" y="100" width="10" height="10"></rect>
            <rect id="Rectangle" x="190" y="100" width="10" height="10"></rect>
            <rect id="Rectangle" x="210" y="100" width="10" height="10"></rect>
            <rect id="Rectangle" x="240" y="100" width="10" height="10"></rect>
            <rect id="Rectangle" x="0" y="110" width="10" height="10"></rect>
            <rect id="Rectangle" x="50" y="110" width="10" height="10"></rect>
            <rect id="Rectangle" x="80" y="110" width="10" height="10"></rect>
            <rect id="Rectangle" x="90" y="110" width="10" height="10"></rect>
            <rect id="Rectangle" x="110" y="110" width="10" height="10"></rect>
            <rect id="Rectangle" x="140" y="110" width="10" height="10"></rect>
            <rect id="Rectangle" x="150" y="110" width="10" height="10"></rect>
            <rect id="Rectangle" x="190" y="110" width="10" height="10"></rect>
            <rect id="Rectangle" x="210" y="110" width="10" height="10"></rect>
            <rect id="Rectangle" x="220" y="110" width="10" height="10"></rect>
            <rect id="Rectangle" x="230" y="110" width="10" height="10"></rect>
            <rect id="Rectangle" x="240" y="110" width="10" height="10"></rect>
            <rect id="Rectangle" x="10" y="120" width="10" height="10"></rect>
            <rect id="Rectangle" x="20" y="120" width="10" height="10"></rect>
            <rect id="Rectangle" x="40" y="120" width="10" height="10"></rect>
            <rect id="Rectangle" x="60" y="120" width="10" height="10"></rect>
            <rect id="Rectangle" x="80" y="120" width="10" height="10"></rect>
            <rect id="Rectangle" x="100" y="120" width="10" height="10"></rect>
            <rect id="Rectangle" x="130" y="120" width="10" height="10"></rect>
            <rect id="Rectangle" x="140" y="120" width="10" height="10"></rect>
            <rect id="Rectangle" x="150" y="120" width="10" height="10"></rect>
            <rect id="Rectangle" x="160" y="120" width="10" height="10"></rect>
            <rect id="Rectangle" x="170" y="120" width="10" height="10"></rect>
            <rect id="Rectangle" x="180" y="120" width="10" height="10"></rect>
            <rect id="Rectangle" x="240" y="120" width="10" height="10"></rect>
            <rect id="Rectangle" x="10" y="130" width="10" height="10"></rect>
            <rect id="Rectangle" x="20" y="130" width="10" height="10"></rect>
            <rect id="Rectangle" x="30" y="130" width="10" height="10"></rect>
            <rect id="Rectangle" x="50" y="130" width="10" height="10"></rect>
            <rect id="Rectangle" x="90" y="130" width="10" height="10"></rect>
            <rect id="Rectangle" x="120" y="130" width="10" height="10"></rect>
            <rect id="Rectangle" x="140" y="130" width="10" height="10"></rect>
            <rect id="Rectangle" x="150" y="130" width="10" height="10"></rect>
            <rect id="Rectangle" x="160" y="130" width="10" height="10"></rect>
            <rect id="Rectangle" x="200" y="130" width="10" height="10"></rect>
            <rect id="Rectangle" x="230" y="130" width="10" height="10"></rect>
            <rect id="Rectangle" x="20" y="140" width="10" height="10"></rect>
            <rect id="Rectangle" x="30" y="140" width="10" height="10"></rect>
            <rect id="Rectangle" x="40" y="140" width="10" height="10"></rect>
            <rect id="Rectangle" x="60" y="140" width="10" height="10"></rect>
            <rect id="Rectangle" x="70" y="140" width="10" height="10"></rect>
            <rect id="Rectangle" x="80" y="140" width="10" height="10"></rect>
            <rect id="Rectangle" x="140" y="140" width="10" height="10"></rect>
            <rect id="Rectangle" x="150" y="140" width="10" height="10"></rect>
            <rect id="Rectangle" x="170" y="140" width="10" height="10"></rect>
            <rect id="Rectangle" x="200" y="140" width="10" height="10"></rect>
            <rect id="Rectangle" x="210" y="140" width="10" height="10"></rect>
            <rect id="Rectangle" x="220" y="140" width="10" height="10"></rect>
            <rect id="Rectangle" x="230" y="140" width="10" height="10"></rect>
            <rect id="Rectangle" x="240" y="140" width="10" height="10"></rect>
            <rect id="Rectangle" x="10" y="150" width="10" height="10"></rect>
            <rect id="Rectangle" x="20" y="150" width="10" height="10"></rect>
            <rect id="Rectangle" x="40" y="150" width="10" height="10"></rect>
            <rect id="Rectangle" x="50" y="150" width="10" height="10"></rect>
            <rect id="Rectangle" x="70" y="150" width="10" height="10"></rect>
            <rect id="Rectangle" x="80" y="150" width="10" height="10"></rect>
            <rect id="Rectangle" x="120" y="150" width="10" height="10"></rect>
            <rect id="Rectangle" x="130" y="150" width="10" height="10"></rect>
            <rect id="Rectangle" x="140" y="150" width="10" height="10"></rect>
            <rect id="Rectangle" x="160" y="150" width="10" height="10"></rect>
            <rect id="Rectangle" x="190" y="150" width="10" height="10"></rect>
            <rect id="Rectangle" x="200" y="150" width="10" height="10"></rect>
            <rect id="Rectangle" x="220" y="150" width="10" height="10"></rect>
            <rect id="Rectangle" x="240" y="150" width="10" height="10"></rect>
            <rect id="Rectangle" x="10" y="160" width="10" height="10"></rect>
            <rect id="Rectangle" x="20" y="160" width="10" height="10"></rect>
            <rect id="Rectangle" x="30" y="160" width="10" height="10"></rect>
            <rect id="Rectangle" x="40" y="160" width="10" height="10"></rect>
            <rect id="Rectangle" x="60" y="160" width="10" height="10"></rect>
            <rect id="Rectangle" x="80" y="160" width="10" height="10"></rect>
            <rect id="Rectangle" x="100" y="160" width="10" height="10"></rect>
            <rect id="Rectangle" x="110" y="160" width="10" height="10"></rect>
            <rect id="Rectangle" x="120" y="160" width="10" height="10"></rect>
            <rect id="Rectangle" x="160" y="160" width="10" height="10"></rect>
            <rect id="Rectangle" x="170" y="160" width="10" height="10"></rect>
            <rect id="Rectangle" x="180" y="160" width="10" height="10"></rect>
            <rect id="Rectangle" x="190" y="160" width="10" height="10"></rect>
            <rect id="Rectangle" x="200" y="160" width="10" height="10"></rect>
            <rect id="Rectangle" x="220" y="160" width="10" height="10"></rect>
            <rect id="Rectangle" x="230" y="160" width="10" height="10"></rect>
            <rect id="Rectangle" x="80" y="170" width="10" height="10"></rect>
            <rect id="Rectangle" x="100" y="170" width="10" height="10"></rect>
            <rect id="Rectangle" x="110" y="170" width="10" height="10"></rect>
            <rect id="Rectangle" x="150" y="170" width="10" height="10"></rect>
            <rect id="Rectangle" x="160" y="170" width="10" height="10"></rect>
            <rect id="Rectangle" x="200" y="170" width="10" height="10"></rect>
            <rect id="Rectangle" x="230" y="170" width="10" height="10"></rect>
            <rect id="Rectangle" x="0" y="180" width="10" height="10"></rect>
            <rect id="Rectangle" x="10" y="180" width="10" height="10"></rect>
            <rect id="Rectangle" x="20" y="180" width="10" height="10"></rect>
            <rect id="Rectangle" x="30" y="180" width="10" height="10"></rect>
            <rect id="Rectangle" x="40" y="180" width="10" height="10"></rect>
            <rect id="Rectangle" x="50" y="180" width="10" height="10"></rect>
            <rect id="Rectangle" x="60" y="180" width="10" height="10"></rect>
            <rect id="Rectangle" x="80" y="180" width="10" height="10"></rect>
            <rect id="Rectangle" x="90" y="180" width="10" height="10"></rect>
            <rect id="Rectangle" x="120" y="180" width="10" height="10"></rect>
            <rect id="Rectangle" x="130" y="180" width="10" height="10"></rect>
            <rect id="Rectangle" x="140" y="180" width="10" height="10"></rect>
            <rect id="Rectangle" x="160" y="180" width="10" height="10"></rect>
            <rect id="Rectangle" x="180" y="180" width="10" height="10"></rect>
            <rect id="Rectangle" x="200" y="180" width="10" height="10"></rect>
            <rect id="Rectangle" x="210" y="180" width="10" height="10"></rect>
            <rect id="Rectangle" x="240" y="180" width="10" height="10"></rect>
            <rect id="Rectangle" x="0" y="190" width="10" height="10"></rect>
            <rect id="Rectangle" x="60" y="190" width="10" height="10"></rect>
            <rect id="Rectangle" x="80" y="190" width="10" height="10"></rect>
            <rect id="Rectangle" x="100" y="190" width="10" height="10"></rect>
            <rect id="Rectangle" x="110" y="190" width="10" height="10"></rect>
            <rect id="Rectangle" x="130" y="190" width="10" height="10"></rect>
            <rect id="Rectangle" x="150" y="190" width="10" height="10"></rect>
            <rect id="Rectangle" x="160" y="190" width="10" height="10"></rect>
            <rect id="Rectangle" x="200" y="190" width="10" height="10"></rect>
            <rect id="Rectangle" x="240" y="190" width="10" height="10"></rect>
            <rect id="Rectangle" x="0" y="200" width="10" height="10"></rect>
            <rect id="Rectangle" x="20" y="200" width="10" height="10"></rect>
            <rect id="Rectangle" x="30" y="200" width="10" height="10"></rect>
            <rect id="Rectangle" x="40" y="200" width="10" height="10"></rect>
            <rect id="Rectangle" x="60" y="200" width="10" height="10"></rect>
            <rect id="Rectangle" x="80" y="200" width="10" height="10"></rect>
            <rect id="Rectangle" x="90" y="200" width="10" height="10"></rect>
            <rect id="Rectangle" x="110" y="200" width="10" height="10"></rect>
            <rect id="Rectangle" x="130" y="200" width="10" height="10"></rect>
            <rect id="Rectangle" x="150" y="200" width="10" height="10"></rect>
            <rect id="Rectangle" x="160" y="200" width="10" height="10"></rect>
            <rect id="Rectangle" x="170" y="200" width="10" height="10"></rect>
            <rect id="Rectangle" x="180" y="200" width="10" height="10"></rect>
            <rect id="Rectangle" x="190" y="200" width="10" height="10"></rect>
            <rect id="Rectangle" x="200" y="200" width="10" height="10"></rect>
            <rect id="Rectangle" x="210" y="200" width="10" height="10"></rect>
            <rect id="Rectangle" x="230" y="200" width="10" height="10"></rect>
            <rect id="Rectangle" x="240" y="200" width="10" height="10"></rect>
            <rect id="Rectangle" x="0" y="210" width="10" height="10"></rect>
            <rect id="Rectangle" x="20" y="210" width="10" height="10"></rect>
            <rect id="Rectangle" x="30" y="210" width="10" height="10"></rect>
            <rect id="Rectangle" x="40" y="210" width="10" height="10"></rect>
            <rect id="Rectangle" x="60" y="210" width="10" height="10"></rect>
            <rect id="Rectangle" x="80" y="210" width="10" height="10"></rect>
            <rect id="Rectangle" x="90" y="210" width="10" height="10"></rect>
            <rect id="Rectangle" x="120" y="210" width="10" height="10"></rect>
            <rect id="Rectangle" x="130" y="210" width="10" height="10"></rect>
            <rect id="Rectangle" x="150" y="210" width="10" height="10"></rect>
            <rect id="Rectangle" x="160" y="210" width="10" height="10"></rect>
            <rect id="Rectangle" x="170" y="210" width="10" height="10"></rect>
            <rect id="Rectangle" x="180" y="210" width="10" height="10"></rect>
            <rect id="Rectangle" x="190" y="210" width="10" height="10"></rect>
            <rect id="Rectangle" x="210" y="210" width="10" height="10"></rect>
            <rect id="Rectangle" x="230" y="210" width="10" height="10"></rect>
            <rect id="Rectangle" x="240" y="210" width="10" height="10"></rect>
            <rect id="Rectangle" x="0" y="220" width="10" height="10"></rect>
            <rect id="Rectangle" x="20" y="220" width="10" height="10"></rect>
            <rect id="Rectangle" x="30" y="220" width="10" height="10"></rect>
            <rect id="Rectangle" x="40" y="220" width="10" height="10"></rect>
            <rect id="Rectangle" x="60" y="220" width="10" height="10"></rect>
            <rect id="Rectangle" x="90" y="220" width="10" height="10"></rect>
            <rect id="Rectangle" x="110" y="220" width="10" height="10"></rect>
            <rect id="Rectangle" x="130" y="220" width="10" height="10"></rect>
            <rect id="Rectangle" x="160" y="220" width="10" height="10"></rect>
            <rect id="Rectangle" x="170" y="220" width="10" height="10"></rect>
            <rect id="Rectangle" x="190" y="220" width="10" height="10"></rect>
            <rect id="Rectangle" x="200" y="220" width="10" height="10"></rect>
            <rect id="Rectangle" x="220" y="220" width="10" height="10"></rect>
            <rect id="Rectangle" x="230" y="220" width="10" height="10"></rect>
            <rect id="Rectangle" x="240" y="220" width="10" height="10"></rect>
            <rect id="Rectangle" x="0" y="230" width="10" height="10"></rect>
            <rect id="Rectangle" x="60" y="230" width="10" height="10"></rect>
            <rect id="Rectangle" x="110" y="230" width="10" height="10"></rect>
            <rect id="Rectangle" x="120" y="230" width="10" height="10"></rect>
            <rect id="Rectangle" x="130" y="230" width="10" height="10"></rect>
            <rect id="Rectangle" x="190" y="230" width="10" height="10"></rect>
            <rect id="Rectangle" x="200" y="230" width="10" height="10"></rect>
            <rect id="Rectangle" x="220" y="230" width="10" height="10"></rect>
            <rect id="Rectangle" x="230" y="230" width="10" height="10"></rect>
            <rect id="Rectangle" x="240" y="230" width="10" height="10"></rect>
            <rect id="Rectangle" x="0" y="240" width="10" height="10"></rect>
            <rect id="Rectangle" x="10" y="240" width="10" height="10"></rect>
            <rect id="Rectangle" x="20" y="240" width="10" height="10"></rect>
            <rect id="Rectangle" x="30" y="240" width="10" height="10"></rect>
            <rect id="Rectangle" x="40" y="240" width="10" height="10"></rect>
            <rect id="Rectangle" x="50" y="240" width="10" height="10"></rect>
            <rect id="Rectangle" x="60" y="240" width="10" height="10"></rect>
            <rect id="Rectangle" x="80" y="240" width="10" height="10"></rect>
            <rect id="Rectangle" x="90" y="240" width="10" height="10"></rect>
            <rect id="Rectangle" x="100" y="240" width="10" height="10"></rect>
            <rect id="Rectangle" x="110" y="240" width="10" height="10"></rect>
            <rect id="Rectangle" x="120" y="240" width="10" height="10"></rect>
            <rect id="Rectangle" x="130" y="240" width="10" height="10"></rect>
            <rect id="Rectangle" x="160" y="240" width="10" height="10"></rect>
            <rect id="Rectangle" x="210" y="240" width="10" height="10"></rect>
            <rect id="Rectangle" x="240" y="240" width="10" height="10"></rect>
        </g>
    </g>
</svg>