<?xml version="1.0" encoding="UTF-8"?>
<svg width="273px" height="128px" viewBox="0 0 273 128" version="1.1" xmlns="http://www.w3.org/2000/svg" xmlns:xlink="http://www.w3.org/1999/xlink">
    <title>paint/img_verification_code</title>
    <defs>
        <linearGradient x1="19.2939618%" y1="17.3201155%" x2="76.8474059%" y2="100%" id="linearGradient-1">
            <stop stop-color="#EEEEEE" offset="0%"></stop>
            <stop stop-color="#EBEBEB" offset="100%"></stop>
        </linearGradient>
    </defs>
    <g id="paint/img_verification_code" stroke="none" stroke-width="1" fill="none" fill-rule="evenodd">
        <circle id="Oval" fill="#EBEBEB" cx="217.318297" cy="66.8410224" r="4.11870968"></circle>
        <circle id="Oval-Copy" fill="#E0E0E0" transform="translate(71.799900, 101.076329) rotate(-14.000000) translate(-71.799900, -101.076329) " cx="71.7999002" cy="101.076329" r="3.42"></circle>
        <circle id="Oval-Copy-15" fill="#E9E9E9" transform="translate(62.719587, 4.370000) rotate(-14.000000) translate(-62.719587, -4.370000) " cx="62.7195874" cy="4.37" r="3.42"></circle>
        <circle id="Oval-Copy-2" fill="#EBEBEB" transform="translate(49.704908, 62.722313) rotate(-14.000000) translate(-49.704908, -62.722313) " cx="49.7049082" cy="62.7223128" r="5.32"></circle>
        <circle id="Oval-Copy-6" stroke="#EAEAEA" stroke-width="4.56" transform="translate(6.460000, 46.320808) rotate(-14.000000) translate(-6.460000, -46.320808) " cx="6.46" cy="46.3208082" r="4.56"></circle>
        <circle id="Oval-Copy-5" stroke="#E2E2E2" stroke-width="4.56" transform="translate(43.255910, 115.778421) rotate(-14.000000) translate(-43.255910, -115.778421) " cx="43.2559105" cy="115.778421" r="6.46"></circle>
        <circle id="Oval-Copy-9" fill="#E8E8E8" cx="268.869587" cy="82.2652811" r="3.42"></circle>
        <circle id="Oval-Copy-13" fill="#E8E8E8" cx="201.100878" cy="13.7474194" r="3.42"></circle>
        <circle id="Oval-Copy-3" fill="#E2E2E2" cx="244.169587" cy="123.609347" r="4.256"></circle>
        <circle id="Oval-Copy-4" stroke="#EFEFEF" stroke-width="4.56" cx="237.709587" cy="40.7930958" r="6.46"></circle>
        <circle id="Oval-Copy-7" stroke="#E2E2E2" stroke-width="4.56" cx="204.520878" cy="96.9305444" r="5.32"></circle>
        <path d="M123.046762,102.284699 C122.561763,101.446209 121.490416,101.158985 120.653567,101.643983 C119.86321,102.100488 119.563287,103.081464 119.93942,103.894032 L120.012852,104.035537 L123.845246,110.670625 L122.76323,110.735456 C122.268384,110.763706 121.811925,111.002008 121.504828,111.385003 L121.408147,111.517937 L120.809489,112.421258 L117.040285,105.889365 C116.555286,105.052516 115.483734,104.765497 114.648731,105.248649 C113.85663,105.70496 113.556611,106.686109 113.932738,107.49835 L114.006169,107.639792 L119.193442,116.624376 C119.472716,117.105819 119.962308,117.424007 120.507195,117.488549 L120.657055,117.499795 L120.711423,117.499795 C121.244653,117.499795 121.747363,117.256824 122.077745,116.84302 L122.171548,116.713826 L123.846887,114.177019 L126.880797,113.995042 C127.488277,113.960165 128.031131,113.611597 128.31815,113.07777 C128.579076,112.592473 128.595506,112.01443 128.368826,111.518743 L128.293531,111.372683 L123.046762,102.284699 Z M102.276541,101.726253 C101.489478,101.268198 100.48849,101.498948 99.9711255,102.232362 L99.8849881,102.366968 L94.6833547,111.372889 C94.3823845,111.898099 94.3717162,112.544149 94.6589406,113.077976 C94.9222296,113.567317 95.4001462,113.900816 95.9458845,113.980024 L96.0962934,113.995247 L99.1285622,114.179071 L100.80226,116.714031 C101.09825,117.161094 101.580919,117.444876 102.10553,117.492778 L102.264027,117.5 L102.318394,117.5 C102.872053,117.482322 103.384511,117.202781 103.700744,116.751768 L103.782007,116.624581 L108.949995,107.673233 C109.433147,106.836385 109.146128,105.764833 108.309279,105.28168 C107.520666,104.82537 106.521056,105.056033 106.002466,105.78805 L105.916085,105.922396 L102.166165,112.421052 L101.570995,111.517732 C101.296799,111.105052 100.862404,110.828307 100.377591,110.752856 L100.21427,110.73525 L99.1322551,110.67042 L102.919103,104.117601 C103.402256,103.280957 103.115031,102.209405 102.276541,101.726253 Z M172.763045,19.4625241 C171.843301,19.4625241 171.091124,20.1703798 171.018206,21.069651 L171.012412,21.2131566 L171.012412,101.745538 C171.012412,104.568779 168.772292,106.87948 165.976442,106.993251 L165.760309,106.997641 L132.497059,106.997641 C131.528908,106.997641 130.746427,107.782174 130.746427,108.748478 C130.746427,109.666468 131.452616,110.420223 132.353304,110.493304 L132.497059,110.499111 L165.760309,110.499111 C170.500922,110.499111 174.373354,106.711135 174.510143,102.003228 L174.513883,101.745538 L174.513883,23.2633232 C176.551739,23.986308 178.015353,25.9330738 178.015353,28.2160973 C178.015353,29.1824021 178.797834,29.9667298 179.765985,29.9667298 C180.734137,29.9667298 181.516618,29.1824021 181.516618,28.2160973 C181.516618,23.3892916 177.589645,19.4625241 172.763045,19.4625241 Z M106.236545,12.5 C97.6537626,12.5 90.6530572,19.3962375 90.4835847,27.939161 L90.4804414,28.2563087 L90.4804414,101.785749 C90.4804414,103.298396 90.8952755,104.802221 91.6796032,106.134531 C92.0051925,106.68949 92.5898993,106.997641 93.1904034,106.997641 C93.4915787,106.997641 93.7962417,106.9205 94.0762854,106.755962 C94.8633486,106.293063 95.1537555,105.310085 94.7720823,104.500253 L94.6977159,104.35928 C94.2822891,103.652799 94.0396631,102.87013 93.9908749,102.08159 L93.9817065,101.785749 L93.9817065,28.2563087 C93.9817065,21.6011271 99.315246,16.1683436 105.930338,16.0052416 L106.236545,16.0014703 L172.76325,16.0014703 C179.513843,16.0014703 185.005779,21.4880714 185.018088,28.2353823 C185.011113,32.5892936 182.663464,36.6473637 178.88913,38.8339618 C178.054128,39.3173194 177.765262,40.3886664 178.251903,41.2255151 C178.736696,42.0605174 179.806402,42.3458953 180.643251,41.8627429 C185.380812,39.1210858 188.367746,34.0805036 188.514055,28.6330605 L188.519559,28.1949658 C188.486728,19.6415689 181.602101,12.6718504 173.079636,12.5031294 L172.76325,12.5 L106.236545,12.5 Z M111.488648,82.4877588 C105.695537,82.4877588 100.984442,87.198854 100.984442,92.9919646 C100.984442,98.7850751 105.695537,103.49617 111.488648,103.49617 C117.281758,103.49617 121.992854,98.7850751 121.992854,92.9919646 C121.992854,87.198854 117.281758,82.4877588 111.488648,82.4877588 Z M111.488648,85.9892291 C115.350585,85.9892291 118.491383,89.1300276 118.491383,92.9919646 C118.491383,96.8539015 115.35079,99.9947 111.488648,99.9947 C107.626506,99.9947 104.485912,96.8539015 104.485912,92.9919646 C104.485912,89.1300276 107.626506,85.9892291 111.488648,85.9892291 Z M153.505471,78.9864936 C151.205009,78.9864936 149.941016,80.1138493 149.284504,81.0610743 C147.78232,83.2283873 147.950551,86.7052384 148.526436,89.7217099 C147.330445,89.0041152 146.709766,89.0422954 146.267627,89.1854148 L146.059599,89.2627063 C146.03773,89.2715963 146.016207,89.2804754 145.994964,89.289232 C145.308703,89.5727635 144.85694,90.2011694 144.767695,90.9645708 C143.605257,90.1486484 142.332648,89.4904942 141.250633,89.4904942 C140.343824,89.4904942 139.566472,89.9055335 139.120043,90.6285183 C138.733196,91.2543938 138.671653,92.0185275 138.773277,92.783437 L138.804917,92.9919646 L134.247897,92.9919646 C133.279746,92.9919646 132.497265,93.7762923 132.497265,94.7425971 C132.497265,95.6605868 133.203454,96.414342 134.104142,96.4874225 L134.247897,96.4932297 L141.250633,96.4932297 C141.856266,96.4932297 142.4182,96.1781035 142.73866,95.6633564 C143.057479,95.1488145 143.087227,94.5044061 142.819288,93.9617571 L142.756304,93.8357887 L142.756304,93.8357887 C143.537144,94.399364 144.464879,95.1820504 145.265004,95.980329 C145.767441,96.4809201 146.518533,96.6315077 147.173199,96.3584394 C147.781104,96.1081146 148.191413,95.5391957 148.246927,94.8929849 L148.253368,94.7425971 L148.253368,93.8864633 C148.958914,94.4904552 149.769502,95.2345715 150.517106,95.980329 C151.100172,96.5615481 152.012315,96.6577682 152.702063,96.2148272 C153.3953,95.7683985 153.684166,94.8999551 153.3953,94.127937 L153.20146,93.5917917 C153.16933,93.4998635 153.137313,93.4067137 153.105448,93.3124375 L152.916406,92.734028 C152.85421,92.5372285 152.792935,92.3366871 152.732892,92.133167 L152.556771,91.514434 L152.556771,91.514434 L152.389908,90.8824087 C151.608774,87.802875 151.217354,84.4180348 152.162902,83.0548218 C152.359035,82.7745728 152.670674,82.4875536 153.505676,82.4875536 C154.909793,82.4875536 155.91118,82.9586016 156.485424,83.8881828 C157.563746,85.6336863 157.175173,88.7428902 155.441979,92.2092781 C155.007654,93.0742338 155.359709,94.1262957 156.22446,94.5587735 C157.089211,94.9894049 158.141478,94.6391964 158.572109,93.7744458 C160.886522,89.1474663 161.210265,84.8739779 159.464761,82.0485106 C158.244673,80.0736379 156.128035,78.9864936 153.505471,78.9864936 Z M137.749162,68.4822878 C136.781011,68.4822878 135.99853,69.2666155 135.99853,70.2329204 C135.99853,71.15091 136.704719,71.9046653 137.605407,71.9777458 L137.749162,71.983553 L158.757574,71.983553 C159.725725,71.983553 160.508206,71.1992253 160.508206,70.2329204 C160.508206,69.3149308 159.802017,68.5611755 158.901329,68.488095 L158.757574,68.4822878 L137.749162,68.4822878 Z M113.23928,68.4822878 C112.271129,68.4822878 111.488648,69.2666155 111.488648,70.2329204 C111.488648,71.15091 112.194837,71.9046653 113.095525,71.9777458 L113.23928,71.983553 L130.746222,71.983553 C131.714373,71.983553 132.496854,71.1992253 132.496854,70.2329204 C132.496854,69.3149308 131.790665,68.5611755 130.889977,68.488095 L130.746222,68.4822878 L113.23928,68.4822878 Z M106.236545,57.978082 C105.268394,57.978082 104.485912,58.7624098 104.485912,59.7287146 C104.485912,60.6467042 105.192102,61.4004595 106.092789,61.47354 L106.236545,61.4793472 L116.740751,61.4793472 C117.708902,61.4793472 118.491383,60.6950195 118.491383,59.7287146 C118.491383,58.8105301 117.785194,58.0567651 116.884506,57.9838599 L116.740751,57.978082 L106.236545,57.978082 Z M123.743691,57.9778769 C122.77554,57.9778769 121.993059,58.7622046 121.993059,59.7285095 C121.993059,60.6464991 122.699248,61.4002543 123.599936,61.4733349 L123.743691,61.479142 L141.250633,61.479142 C142.218784,61.479142 143.001265,60.6948143 143.001265,59.7285095 C143.001265,58.8105198 142.295076,58.0567646 141.394388,57.983684 L141.250633,57.9778769 L123.743691,57.9778769 Z M148.253368,57.978082 C147.285217,57.978082 146.502735,58.7624098 146.502735,59.7287146 C146.502735,60.6467042 147.208925,61.4004595 148.109612,61.47354 L148.253368,61.4793472 L158.757574,61.4793472 C159.725725,61.4793472 160.508206,60.6950195 160.508206,59.7287146 C160.508206,58.810725 159.802017,58.0569698 158.901329,57.9838892 L158.757574,57.978082 L148.253368,57.978082 Z M109.738015,47.4738762 C108.769864,47.4738762 107.987383,48.258204 107.987383,49.2245088 C107.987383,50.1424985 108.693572,50.8962537 109.59426,50.9693343 L109.738015,50.9751414 L127.244956,50.9751414 C128.213108,50.9751414 128.995589,50.1908137 128.995589,49.2245088 C128.995589,48.3063243 128.2894,47.5525593 127.388712,47.4796542 L127.244956,47.4738762 L109.738015,47.4738762 Z M134.247692,47.4738763 C133.279541,47.4738763 132.497059,48.258204 132.497059,49.2245088 C132.497059,50.1424985 133.203249,50.8962537 134.103936,50.9693343 L134.247692,50.9751414 L158.757574,50.9751414 C159.725725,50.9751414 160.508206,50.1908137 160.508206,49.2245088 C160.508206,48.3065192 159.802017,47.552764 158.901329,47.4796834 L158.757574,47.4738763 L134.247692,47.4738763 Z M120.242221,36.9696705 C119.27407,36.9696705 118.491588,37.7539982 118.491588,38.7203031 C118.491588,39.6382927 119.197778,40.3920479 120.098465,40.4651285 L120.242221,40.4709356 L123.743691,40.4709356 C124.711843,40.4709356 125.494324,39.6866079 125.494324,38.7203031 C125.494324,37.8023134 124.788135,37.0485582 123.887447,36.9754776 L123.743691,36.9696705 L120.242221,36.9696705 Z M151.754838,36.9696705 C150.786687,36.9696705 150.004206,37.7539982 150.004206,38.7203031 C150.004206,39.6382927 150.710395,40.3920479 151.611083,40.4651285 L151.754838,40.4709356 L158.757574,40.4709356 C159.725725,40.4709356 160.508206,39.6866079 160.508206,38.7203031 C160.508206,37.8023134 159.802017,37.0485582 158.901329,36.9754776 L158.757574,36.9696705 L151.754838,36.9696705 Z M130.746427,36.9694653 C129.778275,36.9694653 128.995589,37.753793 128.995794,38.7200979 C128.995794,39.6380875 129.701984,40.3918428 130.602671,40.4649233 L130.746427,40.4707305 L144.752103,40.4707305 C145.720254,40.4707305 146.502735,39.6864028 146.502735,38.7200979 C146.502735,37.8021083 145.796546,37.048353 144.895858,36.9752725 L144.752103,36.9694653 L130.746427,36.9694653 Z" id="Shape" fill="url(#linearGradient-1)" fill-rule="nonzero"></path>
    </g>
</svg>