<?xml version="1.0" encoding="UTF-8"?>
<svg width="273px" height="128px" viewBox="0 0 273 128" version="1.1" xmlns="http://www.w3.org/2000/svg" xmlns:xlink="http://www.w3.org/1999/xlink">
    <title>paint/img_write_omg</title>
    <defs>
        <linearGradient x1="14.7788445%" y1="17.3201155%" x2="80.7951371%" y2="100%" id="linearGradient-1">
            <stop stop-color="#EEEEEE" offset="0%"></stop>
            <stop stop-color="#EBEBEB" offset="100%"></stop>
        </linearGradient>
    </defs>
    <g id="paint/img_write_omg" stroke="none" stroke-width="1" fill="none" fill-rule="evenodd">
        <g id="img_write_omg" transform="translate(-2.000000, 0.000000)">
            <path d="M161.630303,6.2107048 L176.80229,21.3826921 L176.80229,24.2792094 C185.917217,34.3639561 190.938883,47.3676538 190.938883,60.99 C190.938883,91.1941963 166.366372,115.769295 136.159587,115.769295 C105.952803,115.769295 81.3802922,91.1941963 81.3802922,60.99 C81.3802922,47.8767229 86.052512,35.3018514 94.5487904,25.3819051 C92.9033752,23.6519328 91.9827365,21.4042627 91.9827365,19.0099119 C91.9827365,13.9011007 96.1389843,9.74485288 101.24607,9.74485288 C103.723252,9.74485288 106.048577,10.7077702 107.798394,12.4593132 L107.798394,12.4593132 L108.8614,13.5231817 C117.140245,8.7517365 126.539906,6.2107048 136.159587,6.2107048 L136.159587,6.2107048 L161.630303,6.2107048 Z M97.0397779,27.9030917 C89.2121921,37.1483057 84.9144403,48.8215209 84.9144403,60.99 C84.9144403,89.2476538 107.903659,112.235147 136.159587,112.235147 C142.743837,112.235147 149.034723,110.973691 154.823444,108.700999 L154.823444,108.700999 L120.255921,108.700999 L120.255921,105.166851 L127.324217,105.166851 L127.324217,98.0985548 L107.886403,98.0985548 C103.014869,98.0985548 99.0510326,94.1347179 99.0510326,89.2631846 L99.0510326,89.2631846 L99.0510326,43.3192596 C99.0510326,39.7022799 101.242619,36.591781 104.362609,35.2259225 L104.362609,35.2259225 Z M123.254252,83.9619625 L102.585181,83.9619625 L102.585181,89.2631846 C102.585181,92.1855869 104.964001,94.5644067 107.886403,94.5644067 L107.886403,94.5644067 L130.858365,94.5644067 L130.858365,105.166851 L159.13155,105.166851 L159.13155,98.0985548 L134.510721,98.0985548 L134.510721,94.5644067 L174.82296,94.5644067 C176.738441,92.3607413 178.47963,90.0034919 180.000798,87.4961106 L180.000798,87.4961106 L128.555474,87.4961106 L123.254252,83.9619625 Z M171.444122,98.0985548 L162.665698,98.0985548 L162.665698,104.832936 C165.835732,102.908827 168.771077,100.641312 171.444122,98.0985548 L171.444122,98.0985548 Z M123.790069,87.4961106 L123.790069,91.0302587 L120.255921,91.0302587 L120.255921,87.4961106 L123.790069,87.4961106 Z M116.721773,87.4961106 L116.721773,91.0302587 L113.187625,91.0302587 L113.187625,87.4961106 L116.721773,87.4961106 Z M109.653477,87.4961106 L109.653477,91.0302587 L106.119329,91.0302587 L106.119329,87.4961106 L109.653477,87.4961106 Z M176.80229,29.7745682 L176.80229,76.8936663 L116.721773,76.8936663 L116.721773,47.5868123 L107.220299,38.0853383 C104.613692,38.4175274 102.585181,40.6246442 102.585181,43.3192596 L102.585181,43.3192596 L102.585181,80.4278144 L124.325886,80.4278144 L129.627108,83.9619625 L181.946477,83.9619625 C185.428856,77.0472498 187.404735,69.2472746 187.404735,60.99 C187.404735,49.6153236 183.666959,38.6979468 176.80229,29.7745682 L176.80229,29.7745682 Z M159.13155,9.74485288 L136.159587,9.74485288 C130.720313,9.74485288 125.361281,10.6301154 120.255921,12.294513 L120.255921,12.294513 L120.255921,24.9168401 L150.193503,54.8561478 L152.378186,70.1420285 L137.092306,67.9573452 L120.255921,51.1209604 L120.255921,73.3595183 L173.268142,73.3595183 L173.268142,23.8814452 L159.13155,23.8814452 L159.13155,9.74485288 Z M169.733994,62.757074 L169.733994,66.2912221 L155.597402,66.2912221 L155.597402,62.757074 L169.733994,62.757074 Z M147.279729,59.435182 L141.674791,65.04012 L148.212447,65.9745638 L147.279729,59.435182 Z M107.886403,28.1472724 L105.083934,30.9497413 L137.926661,63.792469 L140.72913,60.99 L107.886403,28.1472724 Z M169.733994,55.6887779 L169.733994,59.222926 L155.597402,59.222926 L155.597402,55.6887779 L169.733994,55.6887779 Z M113.187625,22.8460502 L110.385156,25.6485192 L143.227884,58.4912469 L146.030353,55.6887779 L113.187625,22.8460502 Z M169.733994,48.6204817 L169.733994,52.1546298 L155.597402,52.1546298 L155.597402,48.6204817 L169.733994,48.6204817 Z M169.733994,41.5521856 L169.733994,45.0863337 L144.994958,45.0863337 L144.994958,41.5521856 L169.733994,41.5521856 Z M169.733994,34.4838894 L169.733994,38.0180375 L144.994958,38.0180375 L144.994958,34.4838894 L169.733994,34.4838894 Z M169.733994,27.4155933 L169.733994,30.9497413 L144.994958,30.9497413 L144.994958,27.4155933 L169.733994,27.4155933 Z M101.24607,13.279001 C98.0863896,13.279001 95.5168845,15.8502317 95.5168845,19.0099119 C95.5168845,20.5379823 96.1122365,21.978044 97.1959499,23.0617574 L97.1959499,23.0617574 L102.585181,28.4509882 L110.688872,20.3472971 L105.297915,14.9580663 C104.215928,13.8743529 102.777592,13.279001 101.24607,13.279001 Z M155.597402,20.3472971 L155.597402,23.8814452 L123.790069,23.8814452 L123.790069,20.3472971 L155.597402,20.3472971 Z M116.721773,13.591345 C114.921049,14.3290639 113.164328,15.1711852 111.454201,16.1168459 L111.454201,16.1168459 L116.721773,21.3844176 Z M162.665698,12.243606 L162.665698,20.3472971 L170.769389,20.3472971 L162.665698,12.243606 Z M127.324217,13.279001 L127.324217,16.813149 L123.790069,16.813149 L123.790069,13.279001 L127.324217,13.279001 Z M155.597402,13.279001 L155.597402,16.813149 L130.858365,16.813149 L130.858365,13.279001 L155.597402,13.279001 Z" id="Combined-Shape" fill="url(#linearGradient-1)"></path>
            <circle id="Oval" fill="#EBEBEB" cx="219.318297" cy="66.8410224" r="4.11870968"></circle>
            <circle id="Oval-Copy" fill="#E0E0E0" transform="translate(73.799900, 101.076329) rotate(-14.000000) translate(-73.799900, -101.076329) " cx="73.7999002" cy="101.076329" r="3.42"></circle>
            <circle id="Oval-Copy-15" fill="#E9E9E9" transform="translate(64.719587, 4.370000) rotate(-14.000000) translate(-64.719587, -4.370000) " cx="64.7195874" cy="4.37" r="3.42"></circle>
            <circle id="Oval-Copy-2" fill="#EBEBEB" transform="translate(51.704908, 62.722313) rotate(-14.000000) translate(-51.704908, -62.722313) " cx="51.7049082" cy="62.7223128" r="5.32"></circle>
            <path d="M8.46,39.4808082 C4.68237231,39.4808082 1.62,42.5431805 1.62,46.3208082 C1.62,50.0984359 4.68237231,53.1608082 8.46,53.1608082 C12.2376277,53.1608082 15.3,50.0984359 15.3,46.3208082 C15.3,42.5431805 12.2376277,39.4808082 8.46,39.4808082 Z M8.46,44.0408082 C9.71920923,44.0408082 10.74,45.061599 10.74,46.3208082 C10.74,47.5800174 9.71920923,48.6008082 8.46,48.6008082 C7.20079077,48.6008082 6.18,47.5800174 6.18,46.3208082 C6.18,45.061599 7.20079077,44.0408082 8.46,44.0408082 Z" id="Oval-Copy-6" fill="#F2F2F2" transform="translate(8.460000, 46.320808) rotate(-14.000000) translate(-8.460000, -46.320808) "></path>
            <path d="M45.2559105,107.038421 C40.4289418,107.038421 36.5159105,110.951452 36.5159105,115.778421 C36.5159105,120.605389 40.4289418,124.518421 45.2559105,124.518421 C50.0828792,124.518421 53.9959105,120.605389 53.9959105,115.778421 C53.9959105,110.951452 50.0828792,107.038421 45.2559105,107.038421 Z M45.2559105,111.598421 C47.5644608,111.598421 49.4359105,113.46987 49.4359105,115.778421 C49.4359105,118.086971 47.5644608,119.958421 45.2559105,119.958421 C42.9473602,119.958421 41.0759105,118.086971 41.0759105,115.778421 C41.0759105,113.46987 42.9473602,111.598421 45.2559105,111.598421 Z" id="Oval-Copy-5" fill="#E7E7E7" transform="translate(45.255910, 115.778421) rotate(-14.000000) translate(-45.255910, -115.778421) "></path>
            <circle id="Oval-Copy-9" fill="#F2F2F2" cx="270.869587" cy="82.2652811" r="3.42"></circle>
            <circle id="Oval-Copy-13" fill="#E8E8E8" cx="203.100878" cy="13.7474194" r="3.42"></circle>
            <circle id="Oval-Copy-3" fill="#E2E2E2" cx="246.169587" cy="123.609347" r="4.256"></circle>
            <path d="M239.709587,32.0530958 C234.882619,32.0530958 230.969587,35.9661271 230.969587,40.7930958 C230.969587,45.6200646 234.882619,49.5330958 239.709587,49.5330958 C244.536556,49.5330958 248.449587,45.6200646 248.449587,40.7930958 C248.449587,35.9661271 244.536556,32.0530958 239.709587,32.0530958 Z M239.709587,36.6130958 C242.018138,36.6130958 243.889587,38.4845456 243.889587,40.7930958 C243.889587,43.1016461 242.018138,44.9730958 239.709587,44.9730958 C237.401037,44.9730958 235.529587,43.1016461 235.529587,40.7930958 C235.529587,38.4845456 237.401037,36.6130958 239.709587,36.6130958 Z" id="Oval-Copy-4" fill="#EFEFEF" fill-rule="nonzero"></path>
            <path d="M206.520878,89.3305444 C202.323514,89.3305444 198.920878,92.7331803 198.920878,96.9305444 C198.920878,101.127908 202.323514,104.530544 206.520878,104.530544 C210.718242,104.530544 214.120878,101.127908 214.120878,96.9305444 C214.120878,92.7331803 210.718242,89.3305444 206.520878,89.3305444 Z M206.520878,93.8905444 C208.199823,93.8905444 209.560878,95.2515987 209.560878,96.9305444 C209.560878,98.60949 208.199823,99.9705444 206.520878,99.9705444 C204.841932,99.9705444 203.480878,98.60949 203.480878,96.9305444 C203.480878,95.2515987 204.841932,93.8905444 206.520878,93.8905444 Z" id="Oval-Copy-7" fill="#E7E7E7"></path>
        </g>
    </g>
</svg>