<?xml version="1.0" encoding="UTF-8"?>
<svg width="238px" height="110px" viewBox="0 0 238 110" version="1.1" xmlns="http://www.w3.org/2000/svg" xmlns:xlink="http://www.w3.org/1999/xlink">
    <title>paint/img_email_ok_omg</title>
    <g id="paint/img_email_ok_omg" stroke="none" stroke-width="1" fill="none" fill-rule="evenodd">
        <g id="Group-4">
            <g id="Mailbox" transform="translate(75.414725, 11.772702)" fill-rule="nonzero">
                <path d="M41.9303792,72.9792829 L48.1414124,72.9792829 L48.1414124,90.0596243 C48.1414124,90.9172379 47.4462677,91.6123826 46.5886541,91.6123826 L43.4831375,91.6123826 C42.6255239,91.6123826 41.9303792,90.9172379 41.9303792,90.0596243 L41.9303792,72.9792829 Z" id="Path" fill="#CB8252"></path>
                <path d="M31.061071,65.2156702 L59.0105417,65.2156702 L59.0105417,72.9794618 C59.0105417,74.69451 57.6200733,76.0849784 55.905025,76.0849784 L34.1665876,76.0849784 C32.4515394,76.0849784 31.061071,74.69451 31.061071,72.9794618 L31.061071,65.2156702 Z" id="Path" fill="#805333"></path>
                <path d="M27.9555543,17.0803414 L62.1160583,17.0803414 C73.2614561,17.0871408 82.2949381,26.1206227 82.3019164,37.2661995 L82.3019164,68.3211868 L29.5083127,68.3211868 L27.9555543,17.0803414 Z" id="Path" fill="#FF5364"></path>
                <polygon id="Path" fill="#802D40" points="82.3019164 62.1101536 82.3019164 68.3211868 29.5083127 68.3211868 29.3220461 62.1101536"></polygon>
                <path d="M8.0026637,34.160504 C9.60248071,23.7193763 18.9812984,16.2773017 29.5127859,17.0921509 C40.0442734,17.9070001 48.1666416,26.7032202 48.141471,37.2660206 L48.141471,68.3210079 L7.7698752,68.3210079 L7.7698752,62.1099747 L8.0026637,34.160504 Z" id="Path" fill="#DF4D60"></path>
                <polygon id="Path" fill="#46B29D" points="65.2215749 6.21103325 69.8798499 10.8693082 52.7996873 10.8693082 52.7996873 1.55275831 69.8798499 1.55275831"></polygon>
                <path d="M52.7996873,29.502229 C51.9420738,29.502229 51.246929,28.8070843 51.246929,27.9494707 L51.246929,1.55275831 C51.246929,0.695144739 51.9420738,0 52.7996873,0 C53.6573009,0 54.3524457,0.695144739 54.3524457,1.55275831 L54.3524457,27.9494707 C54.3524457,28.8070843 53.657122,29.502229 52.7996873,29.502229 Z" id="Path" fill="#7F5B53"></path>
                <path d="M37.2721046,37.2660206 C37.2721046,36.9224741 37.2144886,36.5812538 37.1012257,36.256674 C36.6653511,35.0072028 35.4899571,34.1674822 34.1665876,34.160504 L3.11160026,34.160504 C1.39887814,34.1664087 0.0119883391,35.5532985 0.00608363478,37.2660206 L0.00608363478,59.004637 C0.00894652174,59.6741947 0.23028347,60.3246068 0.636455557,60.8571038 L0.627151174,60.8680185 C0.665979078,60.9191926 0.717153183,60.9580205 0.759201835,61.0061528 C0.84795133,61.1101114 0.942784461,61.2087021 1.04334337,61.3012091 C1.09773822,61.3493414 1.15356451,61.3944319 1.21100118,61.4393434 C1.33553677,61.5368605 1.4674085,61.6247153 1.60536386,61.7018343 C1.66280053,61.7343997 1.71862683,61.766965 1.77767387,61.7950571 C1.9277965,61.8666293 2.08364491,61.9258552 2.24342979,61.9720193 C2.30247683,61.9890177 2.35669276,62.0124576 2.41735017,62.0264141 C2.64477076,62.080809 2.87755925,62.1089011 3.11142133,62.1103325 L34.1664087,62.1103325 C34.3986604,62.1087221 34.6300174,62.0804511 34.8558276,62.0264141 C34.9163061,62.0124576 34.9723113,61.9891966 35.029748,61.9720193 C35.1895329,61.9258552 35.3453813,61.8666293 35.4955039,61.7950571 C35.554551,61.7671439 35.6103773,61.7345786 35.6678139,61.7018343 C35.8059482,61.6247153 35.93782,61.5370394 36.0621766,61.4393434 C36.1196133,61.3942529 36.1754396,61.3493414 36.2298344,61.3012091 C36.3303933,61.2087021 36.4252265,61.1101114 36.513976,61.0061528 C36.5558457,60.9580205 36.6071987,60.9191926 36.6460266,60.8680185 L36.6367222,60.8571038 C37.0445047,60.3253225 37.267631,59.6749104 37.2721046,59.004637 L37.2721046,37.2660206 L37.2721046,37.2660206 Z" id="Path" fill="#F29C1F"></path>
                <path d="M59.0107206,29.502229 L51.246929,29.502229 C50.3893155,29.502229 49.6941707,28.8070843 49.6941707,27.9494707 C49.6941707,27.0918571 50.3893155,26.3967124 51.246929,26.3967124 L59.0107206,26.3967124 C59.8683342,26.3967124 60.5634789,27.0918571 60.5634789,27.9494707 C60.5634789,28.8070843 59.8681552,29.502229 59.0107206,29.502229 Z" id="Path" fill="#802D40"></path>
                <path d="M36.6510367,60.8678396 C36.0602084,61.6447555 35.1426531,62.1035332 34.1665876,62.1099747 L3.11160026,62.1099747 C2.13571367,62.1035332 1.21797947,61.6445766 0.627151174,60.8678396 L14.5398871,46.9551036 L18.6391834,50.3089757 L22.8782243,47.0948483 L36.6510367,60.8678396 Z" id="Path" fill="#F0C419"></path>
                <path d="M37.1014046,36.2568529 L18.6391834,50.3093336 L0.565062313,35.4958618 C1.14247083,34.6588252 2.0947386,34.1594304 3.11160026,34.1605022 L34.1665876,34.1605022 C35.4899571,34.1676612 36.66553,35.0072028 37.1014046,36.2568529 Z" id="Path" fill="#F3D55B"></path>
            </g>
            <circle id="Oval" fill="#E7E3F2" cx="189.694262" cy="57.4933154" r="3.53127871"></circle>
            <circle id="Oval-Copy" fill="#E7E3F2" transform="translate(63.930427, 86.845811) rotate(-14.000000) translate(-63.930427, -86.845811) " cx="63.9304269" cy="86.845811" r="2.9322225"></circle>
            <circle id="Oval-Copy-15" fill="#E7E3F2" transform="translate(56.145194, 3.932222) rotate(-14.000000) translate(-56.145194, -3.932222) " cx="56.1451938" cy="3.9322225" r="2.9322225"></circle>
            <circle id="Oval-Copy-2" fill="#F1D8E4" transform="translate(43.986733, 53.962037) rotate(-14.000000) translate(-43.986733, -53.962037) " cx="43.9867332" cy="53.9620367" r="4.561235"></circle>
            <circle id="Oval-Copy-5" stroke="#F1D8E4" stroke-width="3.90963" transform="translate(37.457524, 99.451017) rotate(-14.000000) translate(-37.457524, -99.451017) " cx="37.4575238" cy="99.4510172" r="5.5386425"></circle>
            <circle id="Oval-Copy-9" fill="#E7E3F2" cx="234.89305" cy="70.7176891" r="2.9322225"></circle>
            <circle id="Oval-Copy-13" fill="#FFE4CD" cx="174.140697" cy="12.5974247" r="2.9322225"></circle>
            <circle id="Oval-Copy-3" fill="#F1D8E4" cx="213.715888" cy="106.165057" r="3.648988"></circle>
            <circle id="Oval-Copy-4" stroke="#FEB5BC" stroke-width="3.90963" cx="207.177245" cy="35.1604743" r="5.5386425"></circle>
            <circle id="Oval-Copy-7" stroke="#FFE4CD" stroke-width="3.90963" cx="178.47721" cy="82.8164372" r="4.561235"></circle>
            <circle id="Oval-Copy-6" stroke="#FFE4CD" stroke-width="3.90963" transform="translate(4.909630, 39.899797) rotate(-14.000000) translate(-4.909630, -39.899797) " cx="4.90963" cy="39.8997967" r="3.90963"></circle>
        </g>
    </g>
</svg>