<?xml version="1.0" encoding="UTF-8"?>
<svg width="273px" height="128px" viewBox="0 0 273 128" version="1.1" xmlns="http://www.w3.org/2000/svg" xmlns:xlink="http://www.w3.org/1999/xlink">
    <title>paint/img_verification_mobile</title>
    <defs>
        <linearGradient x1="36.2417361%" y1="17.3201155%" x2="62.0293504%" y2="100%" id="linearGradient-1">
            <stop stop-color="#EEEEEE" offset="0%"></stop>
            <stop stop-color="#EBEBEB" offset="100%"></stop>
        </linearGradient>
    </defs>
    <g id="paint/img_verification_mobile" stroke="none" stroke-width="1" fill="none" fill-rule="evenodd">
        <circle id="Oval" fill="#EBEBEB" cx="203.318297" cy="66.8410224" r="4.11870968"></circle>
        <circle id="Oval-Copy" fill="#E0E0E0" transform="translate(81.799900, 101.076329) rotate(-14.000000) translate(-81.799900, -101.076329) " cx="81.7999002" cy="101.076329" r="3.42"></circle>
        <circle id="Oval-Copy-15" fill="#E9E9E9" transform="translate(72.719587, 4.370000) rotate(-14.000000) translate(-72.719587, -4.370000) " cx="72.7195874" cy="4.37" r="3.42"></circle>
        <circle id="Oval-Copy-2" fill="#EBEBEB" transform="translate(54.704908, 62.722313) rotate(-14.000000) translate(-54.704908, -62.722313) " cx="54.7049082" cy="62.7223128" r="5.32"></circle>
        <path d="M6.46,39.4808082 C2.68237231,39.4808082 -0.38,42.5431805 -0.38,46.3208082 C-0.38,50.0984359 2.68237231,53.1608082 6.46,53.1608082 C10.2376277,53.1608082 13.3,50.0984359 13.3,46.3208082 C13.3,42.5431805 10.2376277,39.4808082 6.46,39.4808082 Z M6.46,44.0408082 C7.71920923,44.0408082 8.74,45.061599 8.74,46.3208082 C8.74,47.5800174 7.71920923,48.6008082 6.46,48.6008082 C5.20079077,48.6008082 4.18,47.5800174 4.18,46.3208082 C4.18,45.061599 5.20079077,44.0408082 6.46,44.0408082 Z" id="Oval-Copy-6" fill="#F2F2F2" transform="translate(6.460000, 46.320808) rotate(-14.000000) translate(-6.460000, -46.320808) "></path>
        <path d="M43.2559105,107.038421 C38.4289418,107.038421 34.5159105,110.951452 34.5159105,115.778421 C34.5159105,120.605389 38.4289418,124.518421 43.2559105,124.518421 C48.0828792,124.518421 51.9959105,120.605389 51.9959105,115.778421 C51.9959105,110.951452 48.0828792,107.038421 43.2559105,107.038421 Z M43.2559105,111.598421 C45.5644608,111.598421 47.4359105,113.46987 47.4359105,115.778421 C47.4359105,118.086971 45.5644608,119.958421 43.2559105,119.958421 C40.9473602,119.958421 39.0759105,118.086971 39.0759105,115.778421 C39.0759105,113.46987 40.9473602,111.598421 43.2559105,111.598421 Z" id="Oval-Copy-5" fill="#E7E7E7" transform="translate(43.255910, 115.778421) rotate(-14.000000) translate(-43.255910, -115.778421) "></path>
        <circle id="Oval-Copy-9" fill="#F2F2F2" cx="268.869587" cy="82.2652811" r="3.42"></circle>
        <circle id="Oval-Copy-13" fill="#E8E8E8" cx="191.100878" cy="13.7474194" r="3.42"></circle>
        <circle id="Oval-Copy-3" fill="#E2E2E2" cx="244.169587" cy="123.609347" r="4.256"></circle>
        <path d="M223.709587,32.0530958 C218.882619,32.0530958 214.969587,35.9661271 214.969587,40.7930958 C214.969587,45.6200646 218.882619,49.5330958 223.709587,49.5330958 C228.536556,49.5330958 232.449587,45.6200646 232.449587,40.7930958 C232.449587,35.9661271 228.536556,32.0530958 223.709587,32.0530958 Z M223.709587,36.6130958 C226.018138,36.6130958 227.889587,38.4845456 227.889587,40.7930958 C227.889587,43.1016461 226.018138,44.9730958 223.709587,44.9730958 C221.401037,44.9730958 219.529587,43.1016461 219.529587,40.7930958 C219.529587,38.4845456 221.401037,36.6130958 223.709587,36.6130958 Z" id="Oval-Copy-4" fill="#EFEFEF" fill-rule="nonzero"></path>
        <path d="M204.520878,89.3305444 C200.323514,89.3305444 196.920878,92.7331803 196.920878,96.9305444 C196.920878,101.127908 200.323514,104.530544 204.520878,104.530544 C208.718242,104.530544 212.120878,101.127908 212.120878,96.9305444 C212.120878,92.7331803 208.718242,89.3305444 204.520878,89.3305444 Z M204.520878,93.8905444 C206.199823,93.8905444 207.560878,95.2515987 207.560878,96.9305444 C207.560878,98.60949 206.199823,99.9705444 204.520878,99.9705444 C202.841932,99.9705444 201.480878,98.60949 201.480878,96.9305444 C201.480878,95.2515987 202.841932,93.8905444 204.520878,93.8905444 Z" id="Oval-Copy-7" fill="#E7E7E7"></path>
        <path d="M106.071802,85.6847438 L106.071802,111.431546 C106.071802,112.724229 107.119817,113.772244 108.4125,113.772244 L108.4125,113.772244 L164.5875,113.772244 C165.880183,113.772244 166.928198,112.724229 166.928198,111.431546 L166.928198,111.431546 L166.928198,85.6847438 L171.609375,85.6847438 L171.609375,111.431546 C171.609375,115.309596 168.46555,118.453421 164.5875,118.453421 L164.5875,118.453421 L108.4125,118.453421 C104.53445,118.453421 101.390625,115.309596 101.390625,111.431546 L101.390625,111.431546 L101.390625,85.6847438 L106.071802,85.6847438 Z M138.840479,104.409671 L138.840479,109.090848 L134.159302,109.090848 L134.159302,104.409671 L138.840479,104.409671 Z M162.247021,95.0470975 L162.247021,99.7282744 L110.753198,99.7282744 L110.753198,95.0470975 L162.247021,95.0470975 Z M164.5875,34.1909207 C168.46555,34.1909207 171.609375,37.3347458 171.609375,41.2127957 L171.609375,41.2127957 L171.609375,73.981692 C171.609375,77.8597419 168.46555,81.003567 164.5875,81.003567 L164.5875,81.003567 L139.809497,81.003567 L131.132874,89.6801907 C130.694007,90.1190579 130.098903,90.3659207 129.478125,90.3659207 C128.185442,90.3659207 127.137427,89.3179058 127.137427,88.0252225 L127.137427,88.0252225 L127.137427,81.0033475 L108.4125,81.0033475 C104.53445,81.0033475 101.390625,77.8595224 101.390625,73.9814725 L101.390625,73.9814725 L101.390625,41.2127957 C101.390625,37.3347458 104.53445,34.1909207 108.4125,34.1909207 L108.4125,34.1909207 Z M164.5875,38.8720975 L108.4125,38.8720975 C107.119817,38.8720975 106.071802,39.9201124 106.071802,41.2127957 L106.071802,41.2127957 L106.071802,73.9814725 C106.071802,75.2741558 107.119817,76.3221707 108.4125,76.3221707 L108.4125,76.3221707 L129.478125,76.3221707 C130.770808,76.3221707 131.818823,77.3701855 131.818823,78.6628688 L131.818823,78.6628688 L131.818823,82.3750269 L137.185949,77.0079007 C137.624817,76.5690335 138.219921,76.3223901 138.840698,76.3221707 L138.840698,76.3221707 L164.5875,76.3221707 C165.880183,76.3221707 166.928198,75.2741558 166.928198,73.9814725 L166.928198,73.9814725 L166.928198,41.2127957 C166.928198,39.9201124 165.880183,38.8720975 164.5875,38.8720975 L164.5875,38.8720975 Z M136.5,50.5753688 C140.37805,50.5753688 143.521875,53.7191939 143.521875,57.5972438 C143.521875,61.4752937 140.37805,64.6191188 136.5,64.6191188 C132.62195,64.6191188 129.478125,61.4752937 129.478125,57.5972438 C129.478125,53.7191939 132.62195,50.5753688 136.5,50.5753688 Z M155.224927,50.5753688 C159.102977,50.5753688 162.246802,53.7191939 162.246802,57.5972438 C162.246802,61.4752937 159.102977,64.6191188 155.224927,64.6191188 C151.346877,64.6191188 148.203052,61.4752937 148.203052,57.5972438 C148.203052,53.7191939 151.346877,50.5753688 155.224927,50.5753688 Z M117.775073,50.5753688 C121.653123,50.5753688 124.796948,53.7191939 124.796948,57.5972438 C124.796948,61.4752937 121.653123,64.6191188 117.775073,64.6191188 C113.897023,64.6191188 110.753198,61.4752937 110.753198,57.5972438 C110.753198,53.7191939 113.897023,50.5753688 117.775073,50.5753688 Z M136.5,55.2563263 C135.207317,55.2563263 134.159302,56.3043411 134.159302,57.5970244 C134.159302,58.8897077 135.207317,59.9377225 136.5,59.9377225 C137.792683,59.9377225 138.840698,58.8899271 138.840698,57.5970244 C138.840698,56.3043411 137.792683,55.2563263 136.5,55.2563263 Z M155.224927,55.2563263 C153.932244,55.2563263 152.884229,56.3043411 152.884229,57.5970244 C152.884229,58.8897077 153.932244,59.9377225 155.224927,59.9377225 C156.51761,59.9377225 157.565625,58.8899271 157.565625,57.5970244 C157.565625,56.3043411 156.51761,55.2563263 155.224927,55.2563263 Z M117.775073,55.2563263 C116.48239,55.2563263 115.434375,56.3043411 115.434375,57.5970244 C115.434375,58.8897077 116.48239,59.9377225 117.775073,59.9377225 C119.067756,59.9377225 120.115552,58.8899271 120.115771,57.5970244 C120.115771,56.3043411 119.067756,55.2563263 117.775073,55.2563263 Z M164.5875,6.10342069 C168.46555,6.10342069 171.609375,9.24724579 171.609375,13.1252957 L171.609375,13.1252957 L171.609375,29.5097438 L166.928198,29.5097438 L166.928198,13.1252957 C166.928198,11.8326124 165.880183,10.7845975 164.5875,10.7845975 L164.5875,10.7845975 L108.4125,10.7845975 C107.119817,10.7845975 106.071802,11.8326124 106.071802,13.1252957 L106.071802,13.1252957 L106.071802,29.5097438 L101.390625,29.5097438 L101.390625,13.1252957 C101.390625,9.24724579 104.53445,6.10342069 108.4125,6.10342069 L108.4125,6.10342069 Z M162.247021,24.8283475 L162.247021,29.5095244 L110.753198,29.5095244 L110.753198,24.8283475 L162.247021,24.8283475 Z M145.862573,15.4659938 L145.862573,20.1471707 L117.775073,20.1471707 L117.775073,15.4659938 L145.862573,15.4659938 Z M155.224927,15.4659938 L155.224927,20.1471707 L150.54375,20.1471707 L150.54375,15.4659938 L155.224927,15.4659938 Z" id="Combined-Shape" fill="url(#linearGradient-1)" fill-rule="nonzero"></path>
    </g>
</svg>