<?xml version="1.0" encoding="UTF-8"?>
<svg width="273px" height="128px" viewBox="0 0 273 128" version="1.1" xmlns="http://www.w3.org/2000/svg" xmlns:xlink="http://www.w3.org/1999/xlink">
    <title>paint/img_write_omg</title>
    <defs>
        <linearGradient x1="14.7788445%" y1="17.3201155%" x2="80.7951371%" y2="100%" id="linearGradient-1">
            <stop stop-color="#EEEEEE" offset="0%"></stop>
            <stop stop-color="#EBEBEB" offset="100%"></stop>
        </linearGradient>
    </defs>
    <g id="paint/img_write_omg" stroke="none" stroke-width="1" fill="none" fill-rule="evenodd">
        <g id="img_write_omg">
            <path d="M159.630303,6.2107048 L174.80229,21.3826921 L174.80229,24.2792094 C183.917217,34.3639561 188.938883,47.3676538 188.938883,60.99 C188.938883,91.1941963 164.366372,115.769295 134.159587,115.769295 C103.952803,115.769295 79.3802922,91.1941963 79.3802922,60.99 C79.3802922,47.8767229 84.052512,35.3018514 92.5487904,25.3819051 C90.9033752,23.6519328 89.9827365,21.4042627 89.9827365,19.0099119 C89.9827365,13.9011007 94.1389843,9.74485288 99.2460699,9.74485288 C101.723252,9.74485288 104.048577,10.7077702 105.798394,12.4593132 L105.798394,12.4593132 L106.8614,13.5231817 C115.140245,8.7517365 124.539906,6.2107048 134.159587,6.2107048 L134.159587,6.2107048 L159.630303,6.2107048 Z M95.0397779,27.9030917 C87.2121921,37.1483057 82.9144403,48.8215209 82.9144403,60.99 C82.9144403,89.2476538 105.903659,112.235147 134.159587,112.235147 C140.743837,112.235147 147.034723,110.973691 152.823444,108.700999 L152.823444,108.700999 L118.255921,108.700999 L118.255921,105.166851 L125.324217,105.166851 L125.324217,98.0985548 L105.886403,98.0985548 C101.014869,98.0985548 97.0510326,94.1347179 97.0510326,89.2631846 L97.0510326,89.2631846 L97.0510326,43.3192596 C97.0510326,39.7022799 99.2426186,36.591781 102.362609,35.2259225 L102.362609,35.2259225 Z M121.254252,83.9619625 L100.585181,83.9619625 L100.585181,89.2631846 C100.585181,92.1855869 102.964001,94.5644067 105.886403,94.5644067 L105.886403,94.5644067 L128.858365,94.5644067 L128.858365,105.166851 L157.13155,105.166851 L157.13155,98.0985548 L132.510721,98.0985548 L132.510721,94.5644067 L172.82296,94.5644067 C174.738441,92.3607413 176.47963,90.0034919 178.000798,87.4961106 L178.000798,87.4961106 L126.555474,87.4961106 L121.254252,83.9619625 Z M169.444122,98.0985548 L160.665698,98.0985548 L160.665698,104.832936 C163.835732,102.908827 166.771077,100.641312 169.444122,98.0985548 L169.444122,98.0985548 Z M121.790069,87.4961106 L121.790069,91.0302587 L118.255921,91.0302587 L118.255921,87.4961106 L121.790069,87.4961106 Z M114.721773,87.4961106 L114.721773,91.0302587 L111.187625,91.0302587 L111.187625,87.4961106 L114.721773,87.4961106 Z M107.653477,87.4961106 L107.653477,91.0302587 L104.119329,91.0302587 L104.119329,87.4961106 L107.653477,87.4961106 Z M174.80229,29.7745682 L174.80229,76.8936663 L114.721773,76.8936663 L114.721773,47.5868123 L105.220299,38.0853383 C102.613692,38.4175274 100.585181,40.6246442 100.585181,43.3192596 L100.585181,43.3192596 L100.585181,80.4278144 L122.325886,80.4278144 L127.627108,83.9619625 L179.946477,83.9619625 C183.428856,77.0472498 185.404735,69.2472746 185.404735,60.99 C185.404735,49.6153236 181.666959,38.6979468 174.80229,29.7745682 L174.80229,29.7745682 Z M157.13155,9.74485288 L134.159587,9.74485288 C128.720313,9.74485288 123.361281,10.6301154 118.255921,12.294513 L118.255921,12.294513 L118.255921,24.9168401 L148.193503,54.8561478 L150.378186,70.1420285 L135.092306,67.9573452 L118.255921,51.1209604 L118.255921,73.3595183 L171.268142,73.3595183 L171.268142,23.8814452 L157.13155,23.8814452 L157.13155,9.74485288 Z M167.733994,62.757074 L167.733994,66.2912221 L153.597402,66.2912221 L153.597402,62.757074 L167.733994,62.757074 Z M145.279729,59.435182 L139.674791,65.04012 L146.212447,65.9745638 L145.279729,59.435182 Z M105.886403,28.1472724 L103.083934,30.9497413 L135.926661,63.792469 L138.72913,60.99 L105.886403,28.1472724 Z M167.733994,55.6887779 L167.733994,59.222926 L153.597402,59.222926 L153.597402,55.6887779 L167.733994,55.6887779 Z M111.187625,22.8460502 L108.385156,25.6485192 L141.227884,58.4912469 L144.030353,55.6887779 L111.187625,22.8460502 Z M167.733994,48.6204817 L167.733994,52.1546298 L153.597402,52.1546298 L153.597402,48.6204817 L167.733994,48.6204817 Z M167.733994,41.5521856 L167.733994,45.0863337 L142.994958,45.0863337 L142.994958,41.5521856 L167.733994,41.5521856 Z M167.733994,34.4838894 L167.733994,38.0180375 L142.994958,38.0180375 L142.994958,34.4838894 L167.733994,34.4838894 Z M167.733994,27.4155933 L167.733994,30.9497413 L142.994958,30.9497413 L142.994958,27.4155933 L167.733994,27.4155933 Z M99.2460699,13.279001 C96.0863896,13.279001 93.5168845,15.8502317 93.5168845,19.0099119 C93.5168845,20.5379823 94.1122365,21.978044 95.1959499,23.0617574 L95.1959499,23.0617574 L100.585181,28.4509882 L108.688872,20.3472971 L103.297915,14.9580663 C102.215928,13.8743529 100.777592,13.279001 99.2460699,13.279001 Z M153.597402,20.3472971 L153.597402,23.8814452 L121.790069,23.8814452 L121.790069,20.3472971 L153.597402,20.3472971 Z M114.721773,13.591345 C112.921049,14.3290639 111.164328,15.1711852 109.454201,16.1168459 L109.454201,16.1168459 L114.721773,21.3844176 Z M160.665698,12.243606 L160.665698,20.3472971 L168.769389,20.3472971 L160.665698,12.243606 Z M125.324217,13.279001 L125.324217,16.813149 L121.790069,16.813149 L121.790069,13.279001 L125.324217,13.279001 Z M153.597402,13.279001 L153.597402,16.813149 L128.858365,16.813149 L128.858365,13.279001 L153.597402,13.279001 Z" id="Combined-Shape" fill="url(#linearGradient-1)"></path>
            <circle id="Oval" fill="#EBEBEB" cx="217.318297" cy="66.8410224" r="4.11870968"></circle>
            <circle id="Oval-Copy" fill="#E0E0E0" transform="translate(71.799900, 101.076329) rotate(-14.000000) translate(-71.799900, -101.076329) " cx="71.7999002" cy="101.076329" r="3.42"></circle>
            <circle id="Oval-Copy-15" fill="#E9E9E9" transform="translate(62.719587, 4.370000) rotate(-14.000000) translate(-62.719587, -4.370000) " cx="62.7195874" cy="4.37" r="3.42"></circle>
            <circle id="Oval-Copy-2" fill="#EBEBEB" transform="translate(49.704908, 62.722313) rotate(-14.000000) translate(-49.704908, -62.722313) " cx="49.7049082" cy="62.7223128" r="5.32"></circle>
            <circle id="Oval-Copy-6" stroke="#EAEAEA" stroke-width="4.56" transform="translate(6.460000, 46.320808) rotate(-14.000000) translate(-6.460000, -46.320808) " cx="6.46" cy="46.3208082" r="4.56"></circle>
            <circle id="Oval-Copy-5" stroke="#E2E2E2" stroke-width="4.56" transform="translate(43.255910, 115.778421) rotate(-14.000000) translate(-43.255910, -115.778421) " cx="43.2559105" cy="115.778421" r="6.46"></circle>
            <circle id="Oval-Copy-9" fill="#E8E8E8" cx="268.869587" cy="82.2652811" r="3.42"></circle>
            <circle id="Oval-Copy-13" fill="#E8E8E8" cx="201.100878" cy="13.7474194" r="3.42"></circle>
            <circle id="Oval-Copy-3" fill="#E2E2E2" cx="244.169587" cy="123.609347" r="4.256"></circle>
            <circle id="Oval-Copy-4" stroke="#EFEFEF" stroke-width="4.56" cx="237.709587" cy="40.7930958" r="6.46"></circle>
            <circle id="Oval-Copy-7" stroke="#E2E2E2" stroke-width="4.56" cx="204.520878" cy="96.9305444" r="5.32"></circle>
        </g>
    </g>
</svg>