<?xml version="1.0" encoding="UTF-8"?>
<svg width="44px" height="44px" viewBox="0 0 44 44" version="1.1" xmlns="http://www.w3.org/2000/svg" xmlns:xlink="http://www.w3.org/1999/xlink">
    <title>functional button/ico_edit</title>
    <g id="functional-button/ico_edit" stroke="none" stroke-width="1" fill="none" fill-rule="evenodd">
        <path d="M31.9880004,29.7 C32.8628195,29.7 33.5720005,30.409181 33.5720005,31.2840001 C33.5720005,32.1073592 32.9437987,32.7839939 32.1405502,32.860749 L31.9880004,32.8680001 L22.4840001,32.8680001 C21.609181,32.8680001 20.9,32.1588191 20.9,31.2840001 C20.9,30.4606409 21.5282018,29.7840062 22.3314503,29.7072511 L22.4840001,29.7 L31.9880004,29.7 Z M25.7859434,12.5639429 C26.75201,11.5978763 28.1600827,11.2205843 29.4797543,11.5741892 C30.7994258,11.9277942 31.8302066,12.958575 32.1838115,14.2782465 C32.5374164,15.597918 32.1601245,17.0059908 31.1940579,17.9720574 L31.1940579,17.9720574 L17.9940574,31.1720579 C17.7910538,31.3750615 17.5366952,31.5190768 17.2581766,31.5887065 L17.2581766,31.5887065 L13.0341764,32.6447065 C11.8740857,32.9347292 10.8232715,31.883915 11.1132942,30.7238243 L11.1132942,30.7238243 L12.1692943,26.4998241 C12.2389239,26.2213055 12.3829393,25.966947 12.5859429,25.7639434 L12.5859429,25.7639434 Z M28.6598155,14.6342424 C28.4333957,14.5735734 28.1918086,14.6383064 28.0260578,14.8040572 L28.0260578,14.8040572 L15.136,27.6936 L14.8269,28.93 L16.0633,28.6209 L28.9539435,15.731943 C29.0920692,15.5938173 29.1600437,15.4030276 29.1437556,15.2122378 L29.1437556,15.2122378 L29.1237584,15.0981852 C29.0630894,14.8717654 28.8862353,14.6949114 28.6598155,14.6342424 Z" id="Combined-Shape" fill="#4A4A4A"></path>
    </g>
</svg>