<?xml version="1.0" encoding="UTF-8"?>
<svg width="44px" height="44px" viewBox="0 0 44 44" version="1.1" xmlns="http://www.w3.org/2000/svg" xmlns:xlink="http://www.w3.org/1999/xlink">
    <title>functional button/btn_shrink</title>
    <g id="functional-button/btn_shrink" stroke="none" stroke-width="1" fill="none" fill-rule="evenodd">
        <path d="M40.0469344,3.32345311 C40.5597702,3.32345311 40.9824415,3.7094933 41.0402066,4.20683198 L41.0469344,4.32345311 L41.0469344,40.4122732 C41.0469344,40.925109 40.6608942,41.3477803 40.1635555,41.4055455 L40.0469344,41.4122732 L3.98007834,41.4122732 C3.4672425,41.4122732 3.04457118,41.026233 2.98680607,40.5288943 L2.98007834,40.4122732 L2.98007834,29.3273876 C2.98007834,28.7751028 3.42779359,28.3273876 3.98007834,28.3273876 C4.49291418,28.3273876 4.9155855,28.7134278 4.97335061,29.2107664 L4.98007834,29.3273876 L4.98,39.412 L39.046,39.412 L39.046,5.323 L4.98,5.323 L4.98007834,15.4298267 C4.98007834,15.9426626 4.59403815,16.3653339 4.09669946,16.423099 L3.98007834,16.4298267 C3.4672425,16.4298267 3.04457118,16.0437865 2.98680607,15.5464479 L2.98007834,15.4298267 L2.98007834,4.32345311 C2.98007834,3.81061727 3.36611853,3.38794595 3.86345721,3.33018084 L3.98007834,3.32345311 L40.0469344,3.32345311 Z M31.9800783,21.3678631 C32.5323631,21.3678631 32.9800783,21.8155784 32.9800783,22.3678631 C32.9800783,22.880699 32.5940381,23.3033703 32.0966995,23.3611354 L31.9800783,23.3678631 L3.98007834,23.3678631 C3.42779359,23.3678631 2.98007834,22.9201479 2.98007834,22.3678631 C2.98007834,21.8550273 3.36611853,21.432356 3.86345721,21.3745909 L3.98007834,21.3678631 L31.9800783,21.3678631 Z" id="Combined-Shape" fill="#323232"></path>
    </g>
</svg>