<?xml version="1.0" encoding="UTF-8"?>
<svg width="44px" height="44px" viewBox="0 0 44 44" version="1.1" xmlns="http://www.w3.org/2000/svg" xmlns:xlink="http://www.w3.org/1999/xlink">
    <title>menber_men/ico_menber_default_wireframe</title>
    <g id="menber_men/ico_menber_default_wireframe" stroke="none" stroke-width="1" fill="none" fill-rule="evenodd">
        <path d="M22,4.73695157e-15 C9.9,4.73695157e-15 4.73695157e-15,9.9 4.73695157e-15,22 C4.73695157e-15,34.1 9.9,44 22,44 C34.1,44 44,34.1 44,22 C44,9.9 34.1,4.73695157e-15 22,4.73695157e-15 Z" id="Path" fill="#E0E0E0"></path>
        <path d="M22,24 C34,24 34.6666667,30.6666667 34.6666667,30.6666667 C34.6666667,30.6666667 30.6666667,36.6666667 22,36.6666667 C13.3333333,36.6666667 9.33333333,30.6666667 9.33333333,30.6666667 C9.33333333,30.6666667 9.33897036,30.6102964 9.35853798,30.5079228 L9.37595526,30.4226789 C9.6363236,29.2221782 11.3793103,24 22,24 Z M22,7.33333333 C25.498,7.33333333 28.3333333,10.1686667 28.3333333,13.6666667 C28.3333333,17.1646667 25.498,20 22,20 C18.502,20 15.6666667,17.1646667 15.6666667,13.6666667 C15.6666667,10.1686667 18.502,7.33333333 22,7.33333333 Z" id="Combined-Shape" fill="#AEAEAE"></path>
    </g>
</svg>