<?xml version="1.0" encoding="UTF-8"?>
<svg width="44px" height="44px" viewBox="0 0 44 44" version="1.1" xmlns="http://www.w3.org/2000/svg" xmlns:xlink="http://www.w3.org/1999/xlink">
    <title>omg_tabar/btn_dynamic_omg_bk</title>
    <g id="omg_tabar/btn_dynamic_omg_bk" stroke="none" stroke-width="1" fill="none" fill-rule="evenodd">
        <path d="M32.9118822,7.46562104 C33.1863503,7.46476169 33.4498261,7.57341115 33.6439052,7.76749031 C33.8379844,7.96156947 33.9466339,8.22504528 33.9457694,8.4995133 L33.9457694,12.5183849 C33.9457694,13.089385 33.4828823,13.5522721 32.9118822,13.5522721 L28.8897696,13.5522721 C28.4727414,13.5507939 28.0974308,13.2989143 27.9380409,12.9135449 C27.778651,12.5281755 27.8663922,12.0847764 28.1605388,11.7891542 L29.0258926,10.9238004 C24.060842,8.35640734 17.9938658,9.40708929 14.1813133,13.494592 C10.3687608,17.5820947 9.7424152,23.7074375 12.648781,28.4819817 C15.5551469,33.256526 21.2839118,35.5133789 26.6658306,34.0040129 C32.0477493,32.494647 35.7674874,27.5879494 35.7672257,21.9983846 C35.7672257,21.4273845 36.2301128,20.9644974 36.8011129,20.9644974 C37.372113,20.9644974 37.835,21.4273845 37.835,21.9983846 C37.8332108,30.0256542 31.3262701,36.5325948 23.2990006,36.534384 C17.4204906,36.533404 12.1212515,32.991833 9.87177574,27.560743 C7.62229996,22.1296529 8.86546433,15.8783169 13.0217086,11.7210927 C17.6715632,7.0802399 24.8553995,6.1331106 30.5491746,9.41024147 L32.1696874,7.78972871 C32.3620491,7.58431143 32.6304624,7.46710035 32.9118822,7.46562104 Z M23.2990006,15.5649489 C23.8700007,15.5649489 24.3328877,16.027836 24.3328877,16.5988361 L24.3328877,20.9644974 L28.6985491,20.9644974 C29.2695492,20.9644974 29.7324362,21.4273845 29.7324362,21.9983846 C29.7324362,22.5693847 29.2695492,23.0322717 28.6985491,23.0322717 L23.2990006,23.0225486 C22.7280005,23.0225486 22.2651134,22.5596616 22.2651134,21.9886615 L22.2651134,16.5988361 C22.2651134,16.027836 22.7280005,15.5649489 23.2990006,15.5649489 Z" id="Combined-Shape" fill="#646464"></path>
    </g>
</svg>