<?xml version="1.0" encoding="UTF-8"?>
<svg width="44px" height="44px" viewBox="0 0 44 44" version="1.1" xmlns="http://www.w3.org/2000/svg" xmlns:xlink="http://www.w3.org/1999/xlink">
    <title>omg_tabar/btn_dynamic_omg</title>
    <g id="omg_tabar/btn_dynamic_omg" stroke="none" stroke-width="1" fill="none" fill-rule="evenodd">
        <path d="M31.5355403,7.38999223 C31.8100084,7.38913288 32.0734842,7.49778234 32.2675633,7.6918615 C32.4616425,7.88594066 32.5702919,8.14941647 32.5694275,8.42388449 L32.5694275,12.4427561 C32.5694275,13.0137562 32.1065404,13.4766433 31.5355403,13.4766433 L27.5134277,13.4766433 C27.0963995,13.4751651 26.7210889,13.2232855 26.561699,12.8379161 C26.4023091,12.4525467 26.4900503,12.0091476 26.7841969,11.7135254 L27.6495507,10.8481716 C22.6845001,8.28077853 16.6175239,9.33146048 12.8049714,13.4189632 C8.99241888,17.5064659 8.36607329,23.6318087 11.2724391,28.4063529 C14.1788049,33.1808972 19.9075699,35.4377501 25.2894886,33.9283841 C30.6714074,32.4190182 34.3911455,27.5123206 34.3908838,21.9227558 C34.3908838,21.3517557 34.8537709,20.8888686 35.424771,20.8888686 C35.9957711,20.8888686 36.4586581,21.3517557 36.4586581,21.9227558 C36.4568689,29.9500254 29.9499282,36.456966 21.9226587,36.4587552 C16.0441487,36.4577752 10.7449096,32.9162042 8.49543383,27.4851142 C6.24595805,22.0540241 7.48912243,15.8026881 11.6453667,11.6454639 C16.2952213,7.00461109 23.4790576,6.05748179 29.1728327,9.33461266 L30.7933455,7.7140999 C30.9857072,7.50868262 31.2541205,7.39147154 31.5355403,7.38999223 Z M21.9228772,15.4895387 C22.4938773,15.4895387 22.9567644,15.9524257 22.9567644,16.5234258 L22.9567644,20.8890872 L27.3224257,20.8890872 C27.8934258,20.8890872 28.3563129,21.3519743 28.3563129,21.9229744 C28.3563129,22.4939745 27.8934258,22.9568615 27.3224257,22.9568615 L21.9228772,22.9471384 C21.3518771,22.9471384 20.8889901,22.4842514 20.8889901,21.9132513 L20.8889901,16.5234258 C20.8889901,15.9524257 21.3518771,15.4895387 21.9228772,15.4895387 Z" id="Combined-Shape" fill="#C41C62"></path>
    </g>
</svg>