<?xml version="1.0" encoding="UTF-8"?>
<svg width="44px" height="44px" viewBox="0 0 44 44" version="1.1" xmlns="http://www.w3.org/2000/svg" xmlns:xlink="http://www.w3.org/1999/xlink">
    <title>omg_tabar/btn_menber_omg</title>
    <g id="omg_tabar/btn_menber_omg" stroke="none" stroke-width="1" fill="none" fill-rule="evenodd">
        <path d="M22.0016575,9.4757912 C25.1846495,9.48038854 27.885647,11.812253 28.3546073,14.960512 C28.8235676,18.1087711 26.9194539,21.1266065 23.8759883,22.0586883 C23.7037406,22.1082004 23.5839646,22.2643131 23.5807398,22.4435066 L23.5807398,23.5880095 C23.5829996,23.8495981 23.771111,24.072545 24.0285887,24.1187935 C28.9821188,25.0962186 32.5391994,29.4600166 32.4979102,34.5088893 L11.5054049,34.5088893 C11.4627893,29.4595507 15.0204725,25.0950134 19.9747263,24.1187935 C20.2322041,24.072545 20.4203155,23.8495981 20.4225753,23.5880095 L20.4225753,22.4435066 C20.4197925,22.2652288 20.3015792,22.1094022 20.1306441,22.0586883 C17.0877705,21.1267977 15.1837058,18.1099122 15.6517626,14.9621475 C16.1198193,11.8143827 18.8192903,9.48201982 22.0016575,9.4757912 M22.0016575,7.48535139 C18.3059608,7.48535139 15.041945,9.89448059 13.9528453,13.4260576 C12.8637457,16.9576347 14.2039864,20.7866575 17.257776,22.8681338 C12.5732128,24.7921279 9.51466985,29.3550441 9.51496506,34.4193195 L9.51496506,34.5122067 C9.51496506,35.6114963 10.4061153,36.5026465 11.5054049,36.5026465 L32.4945928,36.5026465 C33.5938823,36.5026465 34.4850338,35.6114963 34.4850338,34.5122067 L34.4850338,34.4226369 C34.487226,29.3579633 31.4299184,24.7936244 26.7455391,22.8681338 C29.7993287,20.7866575 31.1395694,16.9576347 30.0504697,13.4260576 C28.96137,9.89448059 25.6973543,7.48535139 22.0016575,7.48535139 Z" id="Shape" fill="#C41C62"></path>
    </g>
</svg>