<?xml version="1.0" encoding="UTF-8"?>
<svg width="44px" height="44px" viewBox="0 0 44 44" version="1.1" xmlns="http://www.w3.org/2000/svg" xmlns:xlink="http://www.w3.org/1999/xlink">
    <title>omg_tabar/btn_my_store_omg_bk</title>
    <g id="omg_tabar/btn_my_store_omg_bk" stroke="none" stroke-width="1" fill="none" fill-rule="evenodd">
        <path d="M38.0680623,21.3590556 L23.5191801,8.25918718 C22.6531688,7.48807837 21.3468312,7.48807837 20.4808199,8.25918718 L5.93193772,21.3590556 C5.16500472,22.0444 5.30860068,22.7166902 5.40650702,22.9679831 C5.50441336,23.219276 5.84382201,23.8132412 6.87510213,23.8132412 L10.0587678,23.8132412 L10.0587678,34.1652049 C10.0623598,35.3545754 11.0265964,36.3173532 12.2159709,36.3191444 L19.7171018,36.3191444 L19.7171018,27.0604681 C19.7170896,26.9301565 19.8217776,26.8240145 19.952077,26.8222294 L24.0544501,26.8222294 C24.1847495,26.8240145 24.2894375,26.9301565 24.2894253,27.0604681 L24.2894253,36.3191444 L31.7214335,36.3191444 C32.9102762,36.3173472 33.8735758,35.3540477 33.875373,34.1652049 L33.875373,23.8132412 L37.1248979,23.8132412 C38.1594415,23.8132412 38.4955866,23.2225396 38.593493,22.9679831 C38.6913993,22.7134266 38.8349953,22.0444 38.0680623,21.3590556 Z M31.9596723,21.9105946 L31.9596723,34.1652049 C31.9596723,34.2967806 31.8530092,34.4034437 31.7214335,34.4034437 L26.1790177,34.4034437 L26.1790177,27.0604681 C26.1790518,25.8844331 25.230451,24.9285465 24.0544501,24.9195828 L19.9618676,24.9195828 C18.780764,24.9213833 17.8242445,25.8793632 17.8242459,27.0604681 L17.8242459,34.4034437 L12.2159709,34.4034437 C12.0851297,34.4016872 11.9794886,34.2960461 11.9777321,34.1652049 L11.9777321,21.9105946 L8.16746583,21.9105946 L21.7568659,9.67556558 C21.8999395,9.56101503 22.103324,9.56101503 22.2463976,9.67556558 L35.8357977,21.9105946 L31.9596723,21.9105946 Z" id="Shape" fill="#646464"></path>
    </g>
</svg>