<?xml version="1.0" encoding="UTF-8"?>
<svg width="44px" height="44px" viewBox="0 0 44 44" version="1.1" xmlns="http://www.w3.org/2000/svg" xmlns:xlink="http://www.w3.org/1999/xlink">
    <title>omg_tabar/btn_shopping_omg</title>
    <g id="omg_tabar/btn_shopping_omg" stroke="none" stroke-width="1" fill="none" fill-rule="evenodd">
        <path d="M30.3800733,8.52398995 C31.649984,8.52656261 32.6907798,9.53238542 32.7367392,10.8014667 L36.2407748,33.5438138 C36.2454751,33.591211 36.2454751,33.6389569 36.2407748,33.6863541 C36.2390645,34.9822585 35.1926556,36.0343237 33.8967792,36.0430199 L10.1147266,36.0430199 C8.81389948,36.041275 7.7598057,34.9871812 7.75806079,33.6863541 C7.75491307,33.6388928 7.75491307,33.5912751 7.75806079,33.5438138 L11.4253846,10.8014667 C11.4680595,9.53216988 12.5088693,8.52497978 13.7788829,8.52398995 L30.3800733,8.52398995 Z M30.3927436,10.3643432 L13.7788829,10.3643432 C13.4949692,10.3660851 13.2657326,10.5967367 13.2657379,10.8806558 C13.2688672,10.9281177 13.2688672,10.9757342 13.2657379,11.0231961 L9.60158165,33.7402026 C9.6291331,34.0029323 9.85055632,34.2026666 10.1147266,34.2026666 L33.8967792,34.2026666 C34.1609495,34.2026666 34.3823727,34.0029323 34.4099242,33.7402026 L30.9090561,11.0231961 C30.9043558,10.9757989 30.9043558,10.928053 30.9090561,10.8806558 C30.9090561,10.5955042 30.6778951,10.3643432 30.3927436,10.3643432 Z M27.9021688,18.4309494 C28.3902641,18.4309494 28.7937451,18.8114418 28.8223455,19.2986985 C28.8188648,23.0599973 25.7733784,26.1097333 22.012088,26.1184586 C18.2458492,26.1167125 15.1926553,23.0649361 15.1891603,19.2986985 C15.2177607,18.8114418 15.6212417,18.4309494 16.109337,18.4309494 C16.5974322,18.4309494 17.0009133,18.8114418 17.0295136,19.2986985 C17.0295136,22.0469995 19.2574518,24.2749377 22.0057529,24.2749377 C24.754054,24.2749377 26.9819922,22.0469995 26.9819922,19.2986985 C27.0105925,18.8114418 27.4140736,18.4309494 27.9021688,18.4309494 Z" id="Combined-Shape" fill="#C41C62"></path>
    </g>
</svg>