<?xml version="1.0" encoding="UTF-8"?>
<svg width="44px" height="44px" viewBox="0 0 44 44" version="1.1" xmlns="http://www.w3.org/2000/svg" xmlns:xlink="http://www.w3.org/1999/xlink">
    <title>ico_accounting_management_cd</title>
    <g id="ico_accounting_management_cd" stroke="none" stroke-width="1" fill="none" fill-rule="evenodd">
        <path d="M24.8599875,4.00075625 C25.715375,4.00075625 26.5177562,4.33213125 27.1194562,4.9337625 L27.1194562,4.9337625 L38.2656187,16.0797875 C39.5114375,17.3255375 39.5114375,19.3527 38.2656875,20.5985875 L38.2656875,20.5985875 L21.1318125,37.7324625 L28.9324625,37.7326 C29.3374,37.7326 29.66575,38.0608812 29.66575,38.4658875 C29.66575,38.870825 29.3374,39.199175 28.9324625,39.199175 L28.9324625,39.199175 L14.2664375,39.199175 C13.8615,39.199175 13.53315,38.8706875 13.53315,38.46575 C13.53315,38.0607437 13.8615,37.7324625 14.2664375,37.7324625 L14.2664375,37.7324625 L15.5454625,37.7324625 L6.3082125,28.4952125 L6.3082125,28.4952125 C6.3076625,28.4946625 6.30759375,28.494525 6.30745625,28.4944562 L4.93300625,27.1200062 C4.331375,26.5184437 4,25.7159937 4,24.8606062 C4,24.0052187 4.331375,23.2029062 4.93300625,22.6012062 L4.93300625,22.6012062 L22.6005187,4.933625 C23.2022187,4.33199375 24.0046688,4.00075625 24.8599875,4.00075625 Z M24.8599875,5.4674 C24.3963375,5.4674 23.9621813,5.64615 23.6375438,5.97071875 L23.6375438,5.97071875 L5.97003125,23.6382312 C5.64539375,23.9628687 5.46664375,24.397025 5.46664375,24.860675 C5.46664375,25.324325 5.64539375,25.7584125 5.9699625,26.0829812 L5.9699625,26.0829812 L6.8263125,26.9393312 L23.7934688,9.9720375 C24.07995,9.685625 24.54415,9.685625 24.8305625,9.97196875 C25.1169063,10.2583125 25.1169063,10.72265 24.8305625,11.0089937 L24.8305625,11.0089937 L7.86340625,27.9762875 L17.1162625,37.2292125 C17.4401438,37.5531625 17.8731313,37.7317062 18.3356125,37.7324625 L18.3356125,37.7324625 C18.8038,37.731775 19.236925,37.5531625 19.5609438,37.2292125 L19.5609438,37.2292125 L37.2285938,19.5615625 C37.9024813,18.8875375 37.90255,17.7907687 37.2285938,17.1167437 L37.2285938,17.1167437 L31.0865375,10.9748937 L14.119175,27.942325 C13.9759688,28.0854625 13.7882813,28.1571 13.6006625,28.1571 C13.4130438,28.1571 13.2253563,28.0855312 13.08215,27.9423937 C12.7958063,27.6559125 12.7958063,27.191575 13.08215,26.9053 L13.08215,26.9053 L30.0495125,9.9378 L26.0824313,5.9707875 C25.7577938,5.64615 25.3236375,5.4674 24.8599875,5.4674 Z M19.7007813,30.6571937 C19.9873313,30.3707812 20.4514625,30.3707812 20.7378063,30.6571937 C21.02415,30.9436062 21.02415,31.4079437 20.7378063,31.6942875 L20.7378063,31.6942875 L18.3710875,34.0610062 C18.2278813,34.2041437 18.0403313,34.2757812 17.852575,34.2757812 C17.6649563,34.2757812 17.4772688,34.2041437 17.3340625,34.0610062 C17.0477188,33.7745937 17.0477188,33.3102562 17.3340625,33.0239125 L17.3340625,33.0239125 Z M21.030475,25.1794 C21.317025,24.893125 21.781225,24.8930563 22.0675688,25.1794 C22.3539125,25.4657438 22.3539125,25.9300125 22.0675,26.2164938 L22.0675,26.2164938 L16.2970375,31.9868875 C16.1538313,32.130025 15.9661438,32.2016625 15.778525,32.2016625 C15.5909063,32.2016625 15.4032188,32.1300938 15.2600125,31.9868875 C14.9736688,31.7004063 14.9736688,31.2361375 15.2600125,30.9497938 L15.2600125,30.9497938 Z M11.3710313,28.6164188 C11.6574438,28.3300063 12.1216438,28.3300063 12.4080563,28.6164188 C12.6944,28.9027625 12.6944,29.3671 12.4080563,29.6535125 L12.4080563,29.6535125 L12.0969625,29.9646063 C11.9537563,30.1077438 11.7660688,30.1793125 11.57845,30.1793125 C11.3908313,30.1793125 11.2031438,30.1077438 11.0599375,29.9646063 C10.7735938,29.678125 10.7735938,29.2137875 11.0599375,28.9275125 L11.0599375,28.9275125 Z M21.8787125,28.4794687 C22.1650563,28.193125 22.6294625,28.1931937 22.9156687,28.4795375 C23.2020125,28.76595 23.2020125,29.2302187 22.9156,29.5165625 L22.9156,29.5165625 L22.6045062,29.8275875 C22.4613687,29.9707937 22.2736812,30.0424312 22.0860625,30.0424312 C21.8984437,30.0424312 21.7106875,29.9707937 21.56755,29.8275875 C21.2812062,29.5411062 21.2812062,29.0768375 21.5676187,28.7904937 L21.5676187,28.7904937 Z M31.4677563,15.0459937 C31.66225,15.0459937 31.8487688,15.1232687 31.9862688,15.2607687 L31.9862688,15.2607687 L34.0603188,17.3348875 C34.3466625,17.6212312 34.3466625,18.0855687 34.0603188,18.3719125 L34.0603188,18.3719125 L30.949175,21.4829875 C30.8059688,21.626125 30.6184188,21.6977625 30.4306625,21.6977625 C30.2430438,21.6977625 30.0553563,21.6261937 29.91215,21.4829875 L29.91215,21.4829875 L27.8379625,19.4090062 C27.7004625,19.2715062 27.6231875,19.0849875 27.6231875,18.8904937 C27.6231875,18.696 27.7004625,18.50955 27.8379625,18.3719812 L27.8379625,18.3719812 L30.9492438,15.2607687 C31.0868125,15.1232687 31.2732625,15.0459937 31.4677563,15.0459937 Z M31.4676875,16.816375 L29.3935,18.8904937 L30.4305938,19.9275187 L32.5047125,17.8534687 L31.4676875,16.816375 Z M25.81575,7.949825 C26.102025,7.6634125 26.5664313,7.66334375 26.852775,7.94961875 C27.1391875,8.23589375 27.1392563,8.70023125 26.8529813,8.98664375 L26.8529813,8.98664375 L26.5418875,9.297875 C26.39875,9.44115 26.2110625,9.5127875 26.0233063,9.5127875 C25.8356188,9.5127875 25.6480688,9.4412875 25.5048625,9.29808125 C25.21845,9.01180625 25.2183813,8.54746875 25.5046563,8.26105625 L25.5046563,8.26105625 Z" id="Combined-Shape" fill="#4A4A4A"></path>
    </g>
</svg>