<?xml version="1.0" encoding="UTF-8"?>
<svg width="44px" height="44px" viewBox="0 0 44 44" version="1.1" xmlns="http://www.w3.org/2000/svg" xmlns:xlink="http://www.w3.org/1999/xlink">
    <title>ico_pay_mobile</title>
    <g id="ico_pay_mobile" stroke="none" stroke-width="1" fill="none" fill-rule="evenodd">
        <path d="M23.85,3.5 C24.8704617,3.50304769 25.6969523,4.32953827 25.7,5.35 L25.7,5.35 L25.7,7.53916667 C26.0735915,7.31834312 26.4993609,7.20125652 26.9333333,7.2 C28.2956357,7.2 29.4,8.30436428 29.4,9.66666667 L29.4,9.66666667 L29.4,19.8725 C29.7735915,19.6516765 30.1993609,19.5345899 30.6333333,19.5333333 C31.503285,19.5369496 32.3070032,19.9985604 32.7485,20.7481667 C32.9758954,20.5477125 33.2396728,20.3927956 33.5255,20.2918333 C33.7834767,20.1942268 34.0575365,20.1461094 34.3333333,20.15 C35.2009573,20.1502789 36.0034898,20.6102097 36.4423333,21.3586667 C37.4168803,20.5220036 38.8717412,20.5784769 39.7785,21.4881667 C40.2409718,21.9511529 40.5005146,22.5789358 40.5,23.2333333 L40.5,23.2333333 L40.5,25.6753333 C40.4992584,26.1692969 40.4137391,26.6594686 40.2471667,27.1245 L40.2471667,27.1245 L37.4166667,35.0548333 L37.4166667,39.8833333 C37.4166667,40.2239089 37.1405756,40.5 36.8,40.5 L36.8,40.5 L24.4666667,40.5 C24.1260911,40.5 23.85,40.2239089 23.85,39.8833333 L23.85,39.8833333 L23.85,35.0548333 L23.1531667,33.1 L21.8273333,33.1 L19.5333333,36.3806667 L19.5333333,39.8833333 C19.5333333,40.2239089 19.2572423,40.5 18.9166667,40.5 L18.9166667,40.5 L5.35,40.5 C5.0094244,40.5 4.73333333,40.2239089 4.73333333,39.8833333 L4.73333333,39.8833333 L4.73333333,36.2141667 L3.5,23.2888333 L3.5,20.7666667 C3.5,19.0637887 4.88045535,17.6833333 6.58333333,17.6833333 L6.58333333,17.6833333 L7.2,17.6833333 L7.2,5.35 C7.20304769,4.32953827 8.02953827,3.50304769 9.05,3.5 L9.05,3.5 Z M18.3,36.8 L5.96666667,36.8 L5.96666667,39.2666667 L18.3,39.2666667 L18.3,36.8 Z M26.9333333,35.5666667 L25.0833333,35.5666667 L25.0833333,39.2666667 L26.9333333,39.2666667 L26.9333333,35.5666667 Z M30.0166667,35.5666667 L28.1666667,35.5666667 L28.1666667,39.2666667 L30.0166667,39.2666667 L30.0166667,35.5666667 Z M33.1,35.5666667 L31.25,35.5666667 L31.25,39.2666667 L33.1,39.2666667 L33.1,35.5666667 Z M36.1833333,35.5666667 L34.3333333,35.5666667 L34.3333333,39.2666667 L36.1833333,39.2666667 L36.1833333,35.5666667 Z M10.9,18.9166667 L6.58333333,18.9166667 C5.56287161,18.9197144 4.73638102,19.7462049 4.73333333,20.7666667 L4.73333333,20.7666667 L4.73333333,23.2333333 L5.91116667,35.5666667 L18.596,35.5666667 L20.3226667,33.1 L9.05,33.1 C8.02953827,33.0969523 7.20304769,32.2704617 7.2,31.25 L7.2,31.25 L7.2,23.2333333 C7.2,22.8927577 7.47609107,22.6166667 7.81666667,22.6166667 L7.81666667,22.6166667 L10.9,22.6166667 C11.9217268,22.6166667 12.75,21.7883935 12.75,20.7666667 C12.75,19.7449399 11.9217268,18.9166667 10.9,18.9166667 L10.9,18.9166667 Z M26.9333333,8.43333333 C26.2542793,8.43836979 25.7050365,8.98761258 25.7,9.66666667 L25.7,9.66666667 L25.7,25.0833333 L24.4666667,25.0833333 L24.4666667,20.15 C24.4683695,19.4688488 23.9175678,18.9152863 23.2364167,18.9135834 C22.5552655,18.9118805 22.0017029,19.4626822 22,20.1438333 L22,20.1438333 L22,25.6753333 C22.001255,26.0302488 22.0616953,26.3824698 22.1788333,26.7175 L22.1788333,26.7175 L24.8983333,34.3333333 L36.3683333,34.3333333 L39.0878333,26.7113333 C39.2054599,26.3785609 39.2659247,26.0282823 39.2666667,25.6753333 L39.2666667,25.6753333 L39.2666667,23.2333333 C39.2616302,22.5542793 38.7123874,22.0050365 38.0333333,22 C37.3530255,22.0020318 36.8020318,22.5530255 36.8,23.2333333 L36.8,23.2333333 L36.8,25.7 L35.5666667,25.7 L35.5666667,22.6166667 C35.5646349,21.9363588 35.0136412,21.3853651 34.3333333,21.3833333 C34.1988264,21.3827289 34.0652529,21.4056869 33.9386667,21.4511667 C33.7577094,21.507667 33.5942379,21.6095713 33.4638333,21.7471667 C33.231241,21.9767387 33.1002185,22.2898602 33.1,22.6166667 L33.1,22.6166667 L33.1,25.0833333 L31.8666667,25.0833333 L31.8666667,22 C31.8646349,21.3196922 31.3136412,20.7686985 30.6333333,20.7666667 C29.9542793,20.7717031 29.4050365,21.3209459 29.4,22 L29.4,22 L29.4,25.0833333 L28.1666667,25.0833333 L28.1666667,9.66666667 C28.1646349,8.98635885 27.6136412,8.43536513 26.9333333,8.43333333 Z M23.85,4.73333333 L9.05,4.73333333 C8.7094244,4.73333333 8.43333333,5.0094244 8.43333333,5.35 L8.43333333,5.35 L8.43333333,17.6833333 L10.9,17.6833333 C12.602878,17.6833333 13.9833333,19.0637887 13.9833333,20.7666667 C13.9833333,22.4695446 12.602878,23.85 10.9,23.85 L10.9,23.85 L8.43333333,23.85 L8.43333333,28.1666667 L19.5333333,28.1666667 L19.5333333,29.4 L8.43333333,29.4 L8.43333333,31.25 C8.43333333,31.5905756 8.7094244,31.8666667 9.05,31.8666667 L9.05,31.8666667 L22.7091667,31.8666667 L21.0195,27.1306667 C20.8534081,26.6633757 20.7679139,26.1712626 20.7666667,25.6753333 L20.7666667,25.6753333 L20.7666667,20.1438333 C20.7700562,18.7863432 21.8696765,17.6867228 23.2271667,17.6833333 C23.6639147,17.6845651 24.0922003,17.8038884 24.4666667,18.0286667 L24.4666667,18.0286667 L24.4666667,5.35 C24.4666667,5.0094244 24.1905756,4.73333333 23.85,4.73333333 L23.85,4.73333333 Z M16.45,5.96666667 C19.8535032,5.97209924 22.6112341,8.72983016 22.6166667,12.1333333 C22.6166667,15.5390893 19.855756,18.3 16.45,18.3 C13.044244,18.3 10.2833333,15.5390893 10.2833333,12.1333333 C10.2833333,8.72757738 13.044244,5.96666667 16.45,5.96666667 Z M16.45,7.2 C13.7253952,7.2 11.5166667,9.40872857 11.5166667,12.1333333 C11.5166667,14.8579381 13.7253952,17.0666667 16.45,17.0666667 C19.1730556,17.0629302 21.3795968,14.8563889 21.3833333,12.1333333 C21.3833333,9.40872857 19.1746048,7.2 16.45,7.2 Z M33.2806833,11.0806833 L34.15265,11.95265 L32.7386333,13.3666667 L39.8833333,13.3666667 L39.8833333,14.6 L32.7386333,14.6 L34.15265,16.0140167 L33.2806833,16.8859833 L30.8140167,14.4193167 C30.5732811,14.1785084 30.5732811,13.7881582 30.8140167,13.54735 L30.8140167,13.54735 L33.2806833,11.0806833 Z M17.0666667,8.43333333 L17.0666667,9.161 C17.8028752,9.42322546 18.2959747,10.1184957 18.3,10.9 L17.0666667,10.9 C17.0666667,10.5594244 16.7905756,10.2833333 16.45,10.2833333 C16.1094244,10.2833333 15.8333333,10.5594244 15.8333333,10.9 C15.8333333,11.2405756 16.1094244,11.5166667 16.45,11.5166667 C17.4704617,11.5197144 18.2969523,12.3462049 18.3,13.3666667 C18.2959747,14.148171 17.8028752,14.8434412 17.0666667,15.1056667 L17.0666667,15.8333333 L15.8333333,15.8333333 L15.8333333,15.1056667 C15.0971248,14.8434412 14.6040253,14.148171 14.6,13.3666667 L15.8333333,13.3666667 C15.8333333,13.7072423 16.1094244,13.9833333 16.45,13.9833333 C16.7905756,13.9833333 17.0666667,13.7072423 17.0666667,13.3666667 C17.0666667,13.0260911 16.7905756,12.75 16.45,12.75 C15.554597,12.7430531 14.7927028,12.0958322 14.6410708,11.2133343 C14.4894389,10.3308364 14.9916022,9.46642356 15.8333333,9.161 L15.8333333,8.43333333 L17.0666667,8.43333333 Z M37.85265,6.14735 L40.3193167,8.61401667 C40.5600522,8.85482491 40.5600522,9.24517509 40.3193167,9.48598333 L40.3193167,9.48598333 L37.85265,11.95265 L36.9806833,11.0806833 L38.3947,9.66666667 L31.25,9.66666667 L31.25,8.43333333 L38.3947,8.43333333 L36.9806833,7.01931667 L37.85265,6.14735 Z" id="Combined-Shape" fill="#4A4A4A"></path>
    </g>
</svg>