<?xml version="1.0" encoding="UTF-8"?>
<svg width="44px" height="44px" viewBox="0 0 44 44" version="1.1" xmlns="http://www.w3.org/2000/svg" xmlns:xlink="http://www.w3.org/1999/xlink">
    <title>ico_ask_dialogue_talk</title>
    <g id="ico_ask_dialogue_talk" stroke="none" stroke-width="1" fill="none" fill-rule="evenodd">
        <path d="M34.7586972,17.5666322 C38.9808803,19.6999299 41.7999995,24.0855621 41.7999995,28.9996092 C41.7999995,31.3036069 41.1863856,33.5441586 40.0204891,35.5127988 L40.0204891,35.5127988 L41.7441066,41.7441066 L35.5127988,40.0204891 C33.5441586,41.1863856 31.3036069,41.7999995 28.9996092,41.7999995 C24.0855621,41.7999995 19.6999299,38.9808803 17.5666322,34.7586972 C26.9886717,34.6275753 34.6275753,26.9886717 34.7586972,17.5666322 Z M17.3207032,2.20000052 C25.6584197,2.20000052 32.441406,8.98298681 32.441406,17.3207032 C32.441406,25.6584197 25.6584197,32.441406 17.3207032,32.441406 C14.6033999,32.441406 11.9576998,31.7181211 9.6349704,30.3446653 L9.6349704,30.3446653 L2.25559134,32.385513 L4.29674119,25.0064361 C2.92328538,22.6837067 2.20000052,20.0380066 2.20000052,17.3207032 C2.20000052,8.98298681 8.98298681,2.20000052 17.3207032,2.20000052 Z M18.4808595,23.1601562 L16.160547,23.1601562 L16.160547,25.4804687 L18.4808595,25.4804687 L18.4808595,23.1601562 Z M17.3207032,9.16093784 C14.7617128,9.16093784 12.6800784,11.2425723 12.6800784,13.8015627 L12.6800784,13.8015627 L15.0003908,13.8015627 C15.0003908,12.5220675 16.041208,11.4812503 17.3207032,11.4812503 C18.6001985,11.4812503 19.6410157,12.5220675 19.6410157,13.8015627 C19.6410157,14.4604952 19.3727296,15.0686708 18.8857056,15.5143037 L18.8857056,15.5143037 L16.160547,18.0086396 L16.160547,20.8398438 L18.4808595,20.8398438 L18.4808595,19.0304231 L20.4522186,17.2261385 C21.4114624,16.3487703 21.9613281,15.1003939 21.9613281,13.8015627 C21.9613281,11.2425723 19.8796937,9.16093784 17.3207032,9.16093784 Z" id="Combined-Shape" fill="#4A4A4A"></path>
    </g>
</svg>