<?xml version="1.0" encoding="UTF-8"?>
<svg width="44px" height="44px" viewBox="0 0 44 44" version="1.1" xmlns="http://www.w3.org/2000/svg" xmlns:xlink="http://www.w3.org/1999/xlink">
    <title>btn_transform_ok</title>
    <g id="btn_transform_ok" stroke="none" stroke-width="1" fill="none" fill-rule="evenodd">
        <path d="M22,11.0011539 C28.0665,11.0011539 33,15.9346539 33,22.0011539 C33,28.0676539 28.0665,33.0011539 22,33.0011539 C15.9335,33.0011539 11,28.0676539 11,22.0011539 C11,15.9346539 15.9335,11.0011539 22,11.0011539 Z M37.9866667,0.404487232 C38.8556667,-0.464512768 40.3333333,0.156987232 40.3333333,1.3761539 L40.3333333,1.3761539 L40.3333333,9.6261539 C40.3333333,10.3851539 39.7173333,11.0011539 38.9583333,11.0011539 L38.9583333,11.0011539 L30.7083333,11.0011539 C29.4818333,11.0011539 28.8713333,9.5161539 29.7366667,8.65448723 L29.7366667,8.65448723 L32.5086667,5.8806539 C29.4341667,3.86398723 25.8115,2.7511539 22,2.7511539 C11.385,2.7511539 2.75,11.3879872 2.75,22.0011539 C2.75,23.8821539 3.02683333,25.7521539 3.57316667,27.5616539 C3.79316667,28.2894872 3.38066667,29.0558206 2.65466667,29.2758206 C1.9195,29.4939872 1.15866667,29.0796539 0.9405,28.3554872 C0.317166667,26.2893206 -8.52651283e-14,24.1516539 -8.52651283e-14,22.0011539 C-8.52651283e-14,9.86998723 9.86883333,0.00115389889 22,0.00115389889 C26.554,0.00115389889 30.8641667,1.4036539 34.4776667,3.91348723 L34.4776667,3.91348723 Z M27.8318333,17.4489872 C27.0893333,16.7596539 25.9288333,16.8018206 25.2395,17.5443206 L25.2395,17.5443206 L20.5755,22.5676539 L18.7128333,20.7049872 C17.996,19.9881539 16.8373333,19.9881539 16.1205,20.7049872 C15.4036667,21.4218206 15.4036667,22.5804872 16.1205,23.2973206 L16.1205,23.2973206 L19.3288333,26.5056539 C20.0585,27.2371539 21.2575,27.2224872 21.9688333,26.4579872 L21.9688333,26.4579872 L27.9271667,20.0413206 C28.6146667,19.2988206 28.5725,18.1383206 27.8318333,17.4489872 Z M43.0595,15.6468206 C42.8395,14.9189872 42.0786667,14.5046539 41.3453333,14.7264872 C40.6193333,14.9464872 40.2068333,15.7128206 40.4268333,16.4406539 C40.9731667,18.2501539 41.25,20.1201539 41.25,22.0011539 C41.25,32.6143206 32.615,41.2511539 22,41.2511539 C18.1958333,41.2511539 14.5786667,40.1438206 11.5096667,38.1344872 L14.2688333,35.3441539 C15.1268333,34.4751539 14.5108333,33.0011539 13.2916667,33.0011539 L5.04166667,33.0011539 C4.675,33.0011539 4.32116667,33.1478206 4.0645,33.4099872 C3.80783333,33.6721539 3.663,34.0241539 3.6665987,34.3908206 L3.75833333,42.6408206 C3.76933333,43.8618206 5.25983333,44.4558206 6.1105,43.5923206 L9.5535,40.1108206 C13.1596667,42.6078206 17.4588333,44.0011539 22,44.0011539 C34.1311667,44.0011539 44,34.1323206 44,22.0011539 C44,19.8506539 43.6828333,17.7129872 43.0595,15.6468206 Z" id="Combined-Shape" fill="#323232"></path>
    </g>
</svg>