<?xml version="1.0" encoding="UTF-8"?>
<svg width="44px" height="44px" viewBox="0 0 44 44" version="1.1" xmlns="http://www.w3.org/2000/svg" xmlns:xlink="http://www.w3.org/1999/xlink">
    <title>ico_pic_import</title>
    <g id="ico_pic_import" stroke="none" stroke-width="1" fill="none" fill-rule="evenodd">
        <path d="M36.7777448,3 L7.22225521,3 C4.88941146,3 3,4.88941146 3,7.22225521 L3,36.7778437 C3,39.1105885 4.88941146,41 7.22225521,41 L36.7778437,41 C39.1105885,41 41,39.1105885 41,36.7777448 L41,7.22225521 C41,4.88941146 39.1105885,3 36.7777448,3 Z M7.22225521,34.6666667 L14.6111771,25.1666667 L19.8889219,31.5105885 L27.2777448,22 L36.7777448,34.6666667 L7.22225521,34.6666667 Z M16.0977419,19.6954839 C18.0847199,19.6954839 19.6954839,18.0847199 19.6954839,16.0977419 C19.6954839,14.1107639 18.0847199,12.5 16.0977419,12.5 C14.1107639,12.5 12.5,14.1107639 12.5,16.0977419 C12.5,18.0847199 14.1107639,19.6954839 16.0977419,19.6954839 Z" id="Shape" fill="#323232"></path>
    </g>
</svg>