<?xml version="1.0" encoding="UTF-8"?>
<svg width="44px" height="44px" viewBox="0 0 44 44" version="1.1" xmlns="http://www.w3.org/2000/svg" xmlns:xlink="http://www.w3.org/1999/xlink">
    <title>functional button/ico_check_ok</title>
    <g id="functional-button/ico_check_ok" stroke="none" stroke-width="1" fill="none" fill-rule="evenodd">
        <path d="M21.7312004,0.8 C9.72917307,0.8 0,10.5291731 0,22.5312004 C0,34.5332277 9.72917307,44.2640969 21.7312004,44.2640969 C33.7332277,44.2640969 43.4640969,34.5332277 43.4640969,22.5312004 C43.4640969,10.5291731 33.7332277,0.8 21.7312004,0.8 Z M33.1565333,15.8059264 L21.5022188,32.9914183 C21.1528099,33.5053548 20.6066464,33.8462829 20.0638752,33.8462829 C19.521104,33.8462829 18.9189673,33.5494549 18.5373313,33.1695151 L11.6984147,26.3289023 C11.2336669,25.8624584 11.2336669,25.1042749 11.6984147,24.6395271 L13.3877899,22.9467595 C13.8525377,22.4854041 14.6124174,22.4854041 15.075469,22.9467595 L19.5244964,27.3957869 L29.2010885,13.1242977 C29.5691552,12.5815265 30.3154655,12.4407452 30.861629,12.8071158 L32.8393514,14.1487782 C33.3821226,14.5168449 33.5246,15.2631553 33.1565333,15.8059264 Z" id="ico_check_ok" fill="#B4E285"></path>
    </g>
</svg>