<?xml version="1.0" encoding="UTF-8"?>
<svg width="44px" height="44px" viewBox="0 0 44 44" version="1.1" xmlns="http://www.w3.org/2000/svg" xmlns:xlink="http://www.w3.org/1999/xlink">
    <title>menber_men/ico_question_man</title>
    <g id="menber_men/ico_question_man" stroke="none" stroke-width="1" fill="none" fill-rule="evenodd">
        <path d="M28.7257143,26.2473469 C28.7257143,26.2473469 31.5273469,28.0791837 36.2146939,29.8661224 C41.3689796,31.7428571 41.0546939,35.9902041 41.1804082,43.9461224 L41.1804082,43.9461224 L2.8644898,43.9461224 C2.9722449,35.9902041 2.64897959,31.7428571 7.8122449,29.8661224 C12.4995918,28.0791837 15.3012245,26.2473469 15.3012245,26.2473469 L15.3012245,26.2473469 L18.9110204,37.6693878 L19.404898,39.2138776 L21.0212245,34.6342857 C17.3036735,29.4530612 21.2995918,29.2106122 21.9910204,29.2016327 L22.0627385,29.2018414 C22.8522581,29.2108566 26.6642566,29.5353029 23.0057143,34.6342857 L23.0057143,34.6342857 L24.6220408,39.2138776 L25.1159184,37.6693878 Z M13.2718367,3.68163265 C18.0669388,-1.11346939 25.8253061,-1.11346939 30.6204082,3.68163265 C35.4155102,8.4677551 35.4155102,16.235102 30.6204082,21.0302041 C26.5795918,25.0620408 20.4285714,25.6995918 15.7322449,22.924898 L15.7322449,22.924898 L15.7053061,22.9069388 C13.8555102,24.3077551 11.8710204,24.5502041 10.4881633,24.3346939 C10.0302041,24.2628571 9.94040816,23.6432653 10.3534694,23.4367347 C11.6195918,22.8171429 12.4097959,21.5779592 12.8767347,20.5812245 L12.8767347,20.5812245 L12.7510204,20.482449 C8.48571429,15.6604082 8.65632653,8.30612245 13.2718367,3.68163265 Z M21.8293878,17.1689796 C21.3265306,17.1689796 20.9044898,17.3485714 20.5632653,17.6897959 C20.2130612,18.0220408 20.042449,18.4440816 20.042449,18.9559184 C20.042449,19.4318367 20.2220408,19.8538776 20.5812245,20.195102 C20.922449,20.5542857 21.3355102,20.7338776 21.8204082,20.7338776 C22.3232653,20.7338776 22.7453061,20.5542857 23.0865306,20.2130612 C23.4457143,19.8718367 23.6253061,19.4497959 23.6342857,18.9559184 C23.6342857,18.4530612 23.4546939,18.0310204 23.0955102,17.6897959 C22.7453061,17.3395918 22.3232653,17.1689796 21.8293878,17.1689796 Z M21.7665306,4.54367347 C20.437551,4.54367347 19.2522449,4.91183673 18.2016327,5.63918367 C17.0612245,6.45632653 16.4865306,7.49795918 16.4865306,8.76408163 C16.4865306,9.39265306 16.6661224,9.92244898 17.0073469,10.362449 C17.3844898,10.8473469 17.8693878,11.0897959 18.48,11.0897959 C18.9559184,11.0897959 19.3510204,10.9371429 19.6832653,10.6318367 C19.997551,10.317551 20.1591837,9.93142857 20.1591837,9.47346939 C20.1591837,8.80897959 19.9077551,8.36 19.4138776,8.12653061 C19.2342857,8.07265306 19.0546939,8.00979592 18.875102,7.93795918 C18.5967347,7.83918367 18.4620408,7.74938776 18.4620408,7.66857143 C18.4620408,7.11183673 18.8302041,6.67183673 19.557551,6.33959184 C20.1502041,6.06122449 20.7697959,5.92653061 21.4163265,5.92653061 C22.1346939,5.92653061 22.7453061,6.13306122 23.2571429,6.54612245 C23.7420408,6.97714286 23.9844898,7.54285714 23.9844898,8.24326531 C23.9844898,8.91673469 23.5983673,9.77877551 22.8081633,10.8114286 C22.1436735,11.6644898 21.6946939,12.4995918 21.4612245,13.3167347 C21.2546939,14.0171429 21.1469388,14.9779592 21.1469388,16.1902041 L21.1469388,16.1902041 L22.6195918,16.1902041 C22.6195918,15.1934694 22.7722449,14.4302041 23.077551,13.9093878 C23.3559184,13.4873469 23.9126531,12.957551 24.7567347,12.3110204 C26.3461224,11.1167347 27.1363265,9.88653061 27.1363265,8.62040816 C27.1363265,7.38122449 26.5346939,6.36653061 25.3314286,5.57632653 C24.2628571,4.88489796 23.077551,4.54367347 21.7665306,4.54367347 Z" id="Combined-Shape" fill="#323232"></path>
    </g>
</svg>