<?xml version="1.0" encoding="UTF-8"?>
<svg width="44px" height="44px" viewBox="0 0 44 44" version="1.1" xmlns="http://www.w3.org/2000/svg" xmlns:xlink="http://www.w3.org/1999/xlink">
    <title>btn_checkbox_none</title>
    <g id="btn_checkbox_none" stroke="none" stroke-width="1" fill="none" fill-rule="evenodd">
        <path d="M36.6666667,0 C40.6262302,0 43.8626091,3.15388806 43.9957397,7.08160031 L44,7.33333333 L44,36.6666667 C44,40.6262302 40.8461119,43.8626091 36.9183997,43.9957397 L36.6666667,44 L7.33333333,44 C3.37376984,44 0.137390873,40.8461119 0.00426030988,36.9183997 L0,36.6666667 L0,7.33333333 C0,3.37376984 3.15388806,0.137390873 7.08160031,0.00426030988 L7.33333333,0 L36.6666667,0 Z" id="Solid-box" fill="#E7E7E7"></path>
        <path d="M36.6666667,0 C40.6262302,0 43.8626091,3.15388806 43.9957397,7.08160031 L44,7.33333333 L44,36.6666667 C44,40.6262302 40.8461119,43.8626091 36.9183997,43.9957397 L36.6666667,44 L7.33333333,44 C3.37376984,44 0.137390873,40.8461119 0.00426030988,36.9183997 L0,36.6666667 L0,7.33333333 C0,3.37376984 3.15388806,0.137390873 7.08160031,0.00426030988 L7.33333333,0 L36.6666667,0 Z M36.6666667,2.0952381 L7.33333333,2.0952381 C4.52265611,2.0952381 2.21936945,4.32455956 2.10009029,7.10658557 L2.0952381,7.33333333 L2.0952381,36.6666667 C2.0952381,39.4773439 4.32455956,41.7806306 7.10658557,41.8999097 L7.33333333,41.9047619 L36.6666667,41.9047619 C39.4773439,41.9047619 41.7806306,39.6754404 41.8999097,36.8934144 L41.9047619,36.6666667 L41.9047619,7.33333333 C41.9047619,4.52265611 39.6754404,2.21936945 36.8934144,2.10009029 L36.6666667,2.0952381 Z" id="Line" fill="#959595"></path>
    </g>
</svg>