<?xml version="1.0" encoding="UTF-8"?>
<svg width="44px" height="44px" viewBox="0 0 44 44" version="1.1" xmlns="http://www.w3.org/2000/svg" xmlns:xlink="http://www.w3.org/1999/xlink">
    <title>ico_postal_service</title>
    <g id="ico_postal_service" stroke="none" stroke-width="1" fill="none" fill-rule="evenodd">
        <path d="M31.44,5.2 C30.76352,5.2 30.5472,5.09184 30.02368,4.83008 C29.25568,4.44608 28.20288,3.92 26.31872,3.92 C24.43456,3.92 23.38176,4.44608 22.61376,4.83008 C22.09024,5.09184 21.87392,5.2 21.19744,5.2 C20.52224,5.2 20.30592,5.09184 19.78432,4.83072 C19.01632,4.44608 17.96352,3.92 16.08,3.92 L16.08,9.04 C16.7552,9.04 16.97152,9.14816 17.49312,9.40928 C18.26112,9.79392 19.31392,10.32 21.19744,10.32 C23.0816,10.32 24.1344,9.79392 24.9024,9.40992 C25.42656,9.14816 25.64224,9.04 26.31872,9.04 C26.9952,9.04 27.21152,9.14816 27.73504,9.40992 C28.50304,9.79392 29.55584,10.32 31.44,10.32 L31.44,5.2 Z" id="Path" fill="#E0E0E0"></path>
        <g id="Group" transform="translate(3.000000, 3.000000)">
            <polygon id="Path" fill="#E0E0E0" points="34.048 29.184 25.536 29.184 25.536 23.104 34.048 23.104"></polygon>
            <path d="M6.08,5.68434189e-14 C9.432512,5.68434189e-14 12.16,2.727488 12.16,6.08 C12.16,8.069984 11.194496,9.8344 9.712192,10.944 L9.712192,10.944 L13.376,10.944 C13.376,10.273376 13.921376,9.728 14.592,9.728 L14.592,9.728 L15.808,9.728 C16.478624,9.728 17.024,10.273376 17.024,10.944 L17.024,10.944 L33.44,10.944 C35.116256,10.944 36.48,12.307744 36.48,13.984 L36.48,13.984 L36.48,17.024 C37.150624,17.024 37.696,17.569376 37.696,18.24 L37.696,18.24 L37.696,19.456 C37.696,20.126624 37.150624,20.672 36.48,20.672 L36.48,20.672 L36.48,33.44 C36.48,35.116256 35.116256,36.48 33.44,36.48 L33.44,36.48 L17.024,36.48 C17.024,37.150624 16.478624,37.696 15.808,37.696 L15.808,37.696 L14.592,37.696 C13.921376,37.696 13.376,37.150624 13.376,36.48 L13.376,36.48 L4.256,36.48 C2.579744,36.48 1.216,35.116256 1.216,33.44 L1.216,33.44 L1.216,20.672 C0.545376,20.672 5.68434189e-14,20.126624 5.68434189e-14,19.456 L5.68434189e-14,19.456 L5.68434189e-14,18.24 C5.68434189e-14,17.569376 0.545376,17.024 1.216,17.024 L1.216,17.024 L1.216,13.984 C1.216,12.788672 1.915808,11.76176 2.922048,11.265632 C1.17344,10.196768 5.68434189e-14,8.275488 5.68434189e-14,6.08 C5.68434189e-14,2.727488 2.727488,5.68434189e-14 6.08,5.68434189e-14 Z M15.752064,21.211296 C15.57392,21.25264 15.390912,21.28 15.2,21.28 C15.009088,21.28 14.82608,21.25264 14.647936,21.211296 L14.647936,21.211296 L14.592,21.378496 L14.592,36.48 L15.808,36.48 L15.808,21.378496 Z M13.376,31.616 L2.432,31.616 L2.432,33.44 C2.432,34.445632 3.250368,35.264 4.256,35.264 L4.256,35.264 L13.376,35.264 L13.376,31.616 Z M35.264,31.616 L17.024,31.616 L17.024,35.264 L33.44,35.264 C34.445632,35.264 35.264,34.445632 35.264,33.44 L35.264,33.44 L35.264,31.616 Z M7.693024,20.672 L2.432,20.672 L2.432,30.4 L13.376,30.4 L13.376,25.026496 L11.86208,29.568256 L8.31136,26.905824 L11.807968,21.224064 L11.023648,21.616224 C10.667968,21.79376 10.26912,21.888 9.871488,21.888 C8.951584,21.888 8.149024,21.399168 7.693024,20.672 L7.693024,20.672 Z M35.264,20.672 L22.706976,20.672 C22.250976,21.399168 21.448416,21.888 20.528512,21.888 C20.130272,21.888 19.732032,21.79376 19.376352,21.616224 L19.376352,21.616224 L18.592032,21.224064 L22.08864,26.905824 L18.53792,29.568256 L17.024,25.026496 L17.024,30.4 L35.264,30.4 L35.264,20.672 Z M17.024,20.996064 L17.024,21.182112 L19.15808,27.583744 L20.47136,26.598176 L17.024,20.996064 Z M13.376,20.996064 L9.92864,26.598176 L11.24192,27.583744 L13.376,21.182112 L13.376,20.996064 Z M31.616,25.536 L31.616,26.752 L30.4,26.752 L30.4,25.536 L31.616,25.536 Z M29.184,25.536 L29.184,26.752 L27.968,26.752 L27.968,25.536 L29.184,25.536 Z M20.528512,17.0246075 C20.318752,17.0246075 20.108384,17.073856 19.920512,17.168096 L19.920512,17.168096 L17.576672,18.339712 C17.611936,18.503872 17.632,18.673504 17.632,18.848 C17.632,19.022496 17.611936,19.192128 17.576672,19.356896 L17.576672,19.356896 L19.920512,20.528512 C20.108384,20.622144 20.318752,20.672 20.528512,20.672 C21.278176,20.672 21.888,20.062176 21.888,19.312512 L21.888,19.312512 L21.888,18.383488 C21.888,17.633824 21.278176,17.024 20.528512,17.0246075 Z M9.871488,17.024 C9.121824,17.024 8.512,17.633824 8.512,18.383488 L8.512,18.383488 L8.512,19.312512 C8.512,20.062176 9.121824,20.672 9.871488,20.6713925 C10.081248,20.6713925 10.291616,20.622144 10.479488,20.527904 L10.479488,20.527904 L12.823328,19.356288 C12.788064,19.192128 12.768,19.022496 12.768,18.848 C12.768,18.673504 12.788064,18.503872 12.823328,18.339104 L12.823328,18.339104 L10.479488,17.167488 C10.291616,17.073856 10.081248,17.024 9.871488,17.024 Z M15.2,17.632 C14.529376,17.632 13.984,18.177376 13.984,18.848 C13.984,19.518624 14.529376,20.064 15.2,20.064 C15.870624,20.064 16.416,19.518624 16.416,18.848 C16.416,18.177376 15.870624,17.632 15.2,17.632 Z M36.48,18.24 L23.089408,18.24 C23.092448,18.28864 23.104,18.33424 23.104,18.383488 L23.104,18.383488 L23.104,19.312512 C23.104,19.36176 23.092448,19.40736 23.089408,19.456 L23.089408,19.456 L36.48,19.456 L36.48,18.24 Z M7.310592,18.24 L1.216,18.24 L1.216,19.456 L7.310592,19.456 C7.307552,19.40736 7.296,19.36176 7.296,19.312512 L7.296,19.312512 L7.296,18.383488 C7.296,18.33424 7.307552,18.28864 7.310592,18.24 L7.310592,18.24 Z M33.44,12.16 L17.024,12.16 L17.024,17.256256 L19.376352,16.079776 C19.732032,15.90224 20.13088,15.808 20.528512,15.808 C21.448416,15.808 22.250976,16.296832 22.706976,17.024 L22.706976,17.024 L35.264,17.024 L35.264,13.984 C35.264,12.978368 34.445632,12.16 33.44,12.16 L33.44,12.16 Z M13.376,12.16 L4.256,12.16 C3.250368,12.16 2.432,12.978368 2.432,13.984 L2.432,13.984 L2.432,17.024 L7.693024,17.024 C8.149024,16.296832 8.951584,15.808 9.871488,15.808 C10.269728,15.808 10.667968,15.90224 11.023648,16.079776 L11.023648,16.079776 L13.376,17.256256 L13.376,12.16 Z M15.808,10.944 L14.592,10.944 L14.592,16.502336 C14.787776,16.451264 14.989024,16.416 15.2,16.416 C15.410976,16.416 15.612224,16.451264 15.808,16.502336 L15.808,16.502336 L15.808,10.944 Z M6.08,1.216 C3.398112,1.216 1.216,3.398112 1.216,6.08 C1.216,8.761888 3.398112,10.944 6.08,10.944 C8.761888,10.944 10.944,8.761888 10.944,6.08 C10.944,3.398112 8.761888,1.216 6.08,1.216 Z M6.08,2.432 C8.091872,2.432 9.728,4.068128 9.728,6.08 C9.728,8.091872 8.091872,9.728 6.08,9.728 C4.068128,9.728 2.432,8.091872 2.432,6.08 C2.432,4.068128 4.068128,2.432 6.08,2.432 Z M23.102784,6.08 C23.88832,6.08 24.20144,6.236256 24.719456,6.495264 L24.855466,6.56307129 C25.5471031,6.90590625 26.4233,7.296 27.968,7.296 L27.968,7.296 L27.968,8.512 C26.032736,8.512 24.915232,7.953248 24.176512,7.582976 C23.712,7.351328 23.601344,7.296 23.102784,7.296 C22.604224,7.296 22.493568,7.351328 22.029056,7.582976 C21.290336,7.953248 20.172832,8.512 18.237568,8.512 C16.30352,8.512 15.186016,7.95264 14.446688,7.582368 C13.984,7.35072 13.873344,7.296 13.376,7.296 L13.376,7.296 L13.376,6.08 C14.127488,6.08 14.430272,6.214976 14.99024,6.495264 C15.703424,6.85216 16.591104,7.296 18.237568,7.296 C19.885248,7.296 20.77232,6.85216 21.485504,6.495872 C22.004128,6.236256 22.317248,6.08 23.102784,6.08 Z M6.08,3.648 C4.738752,3.648 3.648,4.738752 3.648,6.08 C3.648,7.421248 4.738752,8.512 6.08,8.512 C7.421248,8.512 8.512,7.421248 8.512,6.08 C8.512,4.738752 7.421248,3.648 6.08,3.648 Z M23.102784,3.648 C24.462272,3.648 25.176672,4.004896 25.807168,4.31984 C26.390848,4.61168 26.89488,4.864 27.968,4.864 L27.968,4.864 L27.968,6.08 C26.608512,6.08 25.894112,5.723104 25.263616,5.40816 C24.679936,5.11632 24.175904,4.864 23.102784,4.864 C22.029664,4.864 21.525632,5.11632 20.941952,5.40816 C20.311456,5.723104 19.597056,6.08 18.237568,6.08 C16.878688,6.08 16.164896,5.723104 15.535008,5.40816 C14.951936,5.11632 14.447904,4.864 13.376,4.864 L13.376,4.864 L13.376,3.648 C14.73488,3.648 15.448672,4.004896 16.07856,4.31984 C16.661632,4.61168 17.165664,4.864 18.237568,4.864 C19.310688,4.864 19.81472,4.61168 20.3984,4.31984 C21.028896,4.004896 21.743296,3.648 23.102784,3.648 Z M23.102784,1.216 C25.038048,1.216 26.155552,1.774752 26.894272,2.145024 C27.358784,2.376672 27.46944,2.432 27.968,2.432 L27.968,2.432 L27.968,3.648 C27.182464,3.648 26.869344,3.491744 26.351328,3.232736 L26.215318,3.16492871 C25.5236809,2.82209375 24.647484,2.432 23.102784,2.432 C21.455104,2.432 20.568032,2.87584 19.854848,3.232128 C19.336224,3.491744 19.023104,3.648 18.237568,3.648 C17.48608,3.648 17.183296,3.513024 16.623328,3.232736 C15.910144,2.87584 15.022464,2.432 13.376,2.432 L13.376,2.432 L13.376,1.216 C15.310048,1.216 16.42816,1.77536 17.16688,2.145632 C17.629568,2.37728 17.740224,2.432 18.237568,2.432 C18.736128,2.432 18.846784,2.376672 19.311296,2.145024 C20.050016,1.774752 21.16752,1.216 23.102784,1.216 Z" id="Combined-Shape" fill="#4A4A4A"></path>
        </g>
    </g>
</svg>