<?xml version="1.0" encoding="UTF-8"?>
<svg width="44px" height="44px" viewBox="0 0 44 44" version="1.1" xmlns="http://www.w3.org/2000/svg" xmlns:xlink="http://www.w3.org/1999/xlink">
    <title>functional button/btn_search_bk</title>
    <g id="functional-button/btn_search_bk" stroke="none" stroke-width="1" fill="none" fill-rule="evenodd">
        <path d="M42.9626301,38.1830626 L33.9055328,29.1259654 C36.0883759,25.9750224 37.1802836,22.4627031 37.1802836,18.5899798 C37.1802836,16.0726609 36.6915342,13.6652135 35.7143594,11.3679616 C34.7375088,9.07038553 33.4171075,7.09010769 31.7534797,5.42647985 C30.0898518,3.762852 28.1098981,2.4424507 25.8126461,1.46560006 C23.514746,0.48842532 21.1072986,0 18.5899798,0 C16.0726609,0 13.6652135,0.48842532 11.3679616,1.46560006 C9.07038553,2.4424507 7.09010769,3.762852 5.42647985,5.42647985 C3.762852,7.09010769 2.4424507,9.07070964 1.46560006,11.3679616 C0.48842532,13.6655376 0,16.0726609 0,18.5899798 C0,21.1072986 0.48842532,23.5140978 1.46560006,25.8119979 C2.4424507,28.1092499 3.762852,30.0892036 5.42647985,31.7528315 C7.09010769,33.4167834 9.07070964,34.7368606 11.3679616,35.7140353 C13.6655376,36.6912101 16.0726609,37.1796354 18.5899798,37.1796354 C22.4633514,37.1796354 25.9753466,36.0877277 29.1262895,33.9048846 L38.1833867,42.9354053 C38.8170108,43.6043568 39.6084737,43.9388325 40.5597201,43.9388325 C41.4749909,43.9388325 42.2677503,43.6043568 42.9360535,42.9354053 C43.605005,42.266778 43.9394807,41.4743427 43.9394807,40.5590719 C43.9398048,39.6266236 43.614404,38.8341883 42.9626301,38.1830626 L42.9626301,38.1830626 Z M26.9476597,26.9470115 C24.6325821,29.2620892 21.8469048,30.419466 18.5899798,30.419466 C15.3333788,30.419466 12.5477016,29.2617651 10.2326239,26.9470115 C7.91754621,24.6319338 6.76016942,21.8465807 6.76016942,18.5896557 C6.76016942,15.3330547 7.91787031,12.5470534 10.2326239,10.2322998 C12.5473775,7.9172221 15.3333788,6.75984532 18.5899798,6.75984532 C21.8465807,6.75984532 24.6322579,7.91754621 26.9476597,10.2322998 C29.2627374,12.5470534 30.4204383,15.3330547 30.4204383,18.5896557 C30.4204383,21.8465807 29.2624133,24.6319338 26.9476597,26.9470115 L26.9476597,26.9470115 Z" id="btn_search_1" fill="#4A4A4A"></path>
    </g>
</svg>